<?xml version="1.0" encoding="UTF-8" ?>
<!DOCTYPE svg PUBLIC "-//W3C//DTD SVG 1.1//EN" "http://www.w3.org/Graphics/SVG/1.1/DTD/svg11.dtd">
<svg width="300pt" height="300pt" viewBox="0 0 300 300" version="1.1" xmlns="http://www.w3.org/2000/svg">
  <g>
    <path fill="#808080" opacity="1.00" d=" M 146.44 0.00 L 153.49 0.00 C 184.99 0.66 216.23 11.52 241.13 30.87 C 267.18 50.70 286.46 79.28 294.91 110.92 C 298.01 122.51 299.67 134.46 300.00 146.46 L 300.00 153.56 C 299.33 185.05 288.46 216.27 269.11 241.15 C 247.57 269.44 215.68 289.77 180.80 296.85 C 171.84 298.81 162.68 299.69 153.53 300.00 L 146.52 300.00 C 115.26 299.31 84.24 288.60 59.46 269.48 C 32.19 248.89 12.25 218.73 4.31 185.47 C 1.55 174.39 0.37 162.99 0.00 151.60 L 0.00 150.39 C 0.26 139.09 1.19 127.75 3.81 116.73 C 11.37 82.57 31.64 51.49 59.55 30.45 C 84.30 11.38 115.24 0.71 146.44 0.00 M 119.38 86.51 C 115.18 92.08 111.01 97.67 106.82 103.25 C 95.64 103.30 84.46 103.16 73.28 103.31 C 69.18 103.25 66.00 107.02 66.28 111.02 C 66.21 138.01 66.29 165.00 66.24 191.99 C 66.29 194.17 66.17 196.55 67.43 198.45 C 68.87 201.11 72.16 201.83 74.96 201.75 C 123.98 201.73 172.99 201.80 222.01 201.71 C 225.99 201.95 229.65 198.71 229.57 194.65 C 229.68 166.78 229.61 138.90 229.60 111.03 C 229.87 107.08 226.79 103.32 222.73 103.32 C 211.17 103.15 199.60 103.30 188.04 103.25 C 183.83 97.67 179.65 92.06 175.45 86.47 C 174.01 84.39 171.52 83.10 168.98 83.25 C 154.61 83.25 140.25 83.25 125.88 83.25 C 123.33 83.10 120.82 84.42 119.38 86.51 Z" />
    <path fill="#808080" opacity="1.00" d=" M 192.63 118.75 C 199.83 118.75 207.04 118.75 214.25 118.75 C 214.25 125.92 214.25 133.08 214.25 140.25 C 207.04 140.25 199.83 140.25 192.63 140.25 C 192.62 133.08 192.62 125.92 192.63 118.75 Z" />
    <path fill="#808080" opacity="1.00" d=" M 140.43 128.67 C 149.10 127.02 158.79 127.70 166.30 132.70 C 174.29 138.39 177.60 148.45 178.21 157.86 C 177.73 165.97 175.35 174.54 169.23 180.25 C 161.91 186.84 151.32 187.98 141.93 186.64 C 136.00 185.90 130.28 183.19 126.19 178.80 C 115.88 166.68 116.59 147.05 127.37 135.46 C 130.81 131.80 135.55 129.61 140.43 128.67 M 144.56 139.69 C 132.36 142.01 126.54 157.89 132.73 168.19 C 138.80 179.41 157.32 179.65 163.82 168.74 C 168.92 160.69 166.77 149.43 159.76 143.23 C 155.57 139.85 149.81 138.49 144.56 139.69 Z" />
  </g>
</svg>
