<?xml version="1.0" standalone="no"?>
<!DOCTYPE svg PUBLIC "-//W3C//DTD SVG 1.1//EN" "http://www.w3.org/Graphics/SVG/1.1/DTD/svg11.dtd" >
<svg xmlns="http://www.w3.org/2000/svg" xmlns:xlink="http://www.w3.org/1999/xlink" version="1.1">
<metadata>
Created by FontForge 20200427 at Mon Jun 28 11:17:14 2021
 By www
Hany Petter (c) Virgiawan Listanto. 2021. All Rights Reserved
</metadata>
<defs>
<font id="HanyPetter" horiz-adv-x="1284" >
  <font-face 
    font-family="Hany Petter"
    font-weight="400"
    font-stretch="normal"
    units-per-em="2048"
    panose-1="2 0 6 0 0 0 0 0 0 0"
    ascent="1715"
    descent="-333"
    x-height="837"
    cap-height="1434"
    bbox="-372 -327 2356 1685"
    underline-thickness="150"
    underline-position="-292"
    unicode-range="U+0020-E106"
  />
<missing-glyph horiz-adv-x="1024" 
d="M100 0v1434h824v-1434h-824zM150 50h724v1334h-724v-1334zM325 1148q31 28 58 43q53 30 112 30q92 0 148 -47.5t56 -127.5q0 -49 -23 -98.5t-87 -129.5q-63 -80 -99 -132t-36 -99q0 -38 24 -133h-32q-35 97 -35 148q0 76 81.5 218t81.5 217q0 57 -33 90t-91 33
q-38 0 -69 -17q-26 -15 -56 -40v45zM389 334l57 58q11 10 20 10q10 0 22 -11l56 -60q9 -11 9 -20q0 -11 -10 -22l-56 -62q-14 -14 -21 -14q-11 0 -20 10l-61 71q-7 9 -7 18q0 10 11 22z" />
    <glyph glyph-name="ll" unicode="ll" horiz-adv-x="392" 
d="M219 132q-11 0 -22 7q-39 31 -39 122q0 133 88 432l4 20l-24 -43q-134 -262 -190 -290q-15 -6 -27 -6q-35 0 -44 54q-1 9 -1 20q0 115 95 490q38 152 38 171q0 52 42 54q31 -4 31 -42q0 -33 -37 -179q-41 -156 -68 -287.5t-27 -167.5q0 -1 1 -1q20 0 294 557
q42 88 56 105t32 17q17 0 28 -16q7 -11 7 -23q0 -11 -42 -135q-187 -561 -187 -729q0 -51 16 -72q9 -16 9 -28q0 -15 -16 -24q-10 -6 -17 -6z" />
    <glyph glyph-name="om" unicode="om" horiz-adv-x="1175" 
d="M954 502q-72 0 -116 44q-32 32 -59 120q-9 37 -18 37t-35 -17q-20 -13 -57 -39.5t-53 -34t-37 -7.5q-45 2 -51 61l-2 18q-87 -81 -99 -91q-39 -30 -68 -30q-32 0 -46 28q-4 8 -4 25q0 9 5 69l1 17q0 9 -8 9q-9 0 -45 -8l-37 -8q-46 -9 -49 -14.5t-3 -16.5
q0 -25 -2.5 -34.5t-10.5 -26.5q-36 -66 -91 -69q-64 4 -75 87q0 61 18 109q30 79 71 79q11 0 11 -3.5t5 -3.5t11.5 -8t6.5 -18q0 -14 -4 -20.5t-13 -15.5q-24 -20 -33 -71q-2 -14 -2 -28q0 -35 8 -35q4 0 10 7q10 10 16 26q4 10 4 19q0 5 -2 12q-4 14 -4 25q0 30 27.5 44
t132.5 35q40 7 59 8q69 0 69 -79q0 -32 -3 -43l-1 -13q0 -1 1 -1t4.5 3.5t16.5 15.5t29 28q46 44 66.5 58t38.5 14q43 0 56 -63q1 -8 2.5 -13t1.5 -6q4 0 33 22q56 41 81.5 54t52.5 13q33 0 51 -19.5t34 -73.5t31 -75q22 -32 74 -32q87 0 186 88q30 28 48 28q9 0 17.5 -8
t8.5 -12t3 -4t3 -7q0 -13 -21 -36q-26 -26 -63 -55q-22 -15 -56 -31q-59 -30 -101 -32z" />
    <glyph glyph-name="on" unicode="on" horiz-adv-x="977" 
d="M65 505q-36 0 -60 33q-21 29 -21 68q0 41 19 88q21 53 56 92q23 26 42 26q20 0 30 -21l5 -11l15 2l36 6q58 10 117 10q78 0 105 -43q8 -14 8 -32v-62q0 -25 1 -31.5t6 -6.5q21 0 69 25q23 14 77 52q92 66 130 66q61 0 73 -97q8 -53 13 -63.5t21 -10.5q56 0 160 87
q12 9 22 9q8 0 17 -5q16 -10 16 -36q-2 -13 -19 -28q-38 -33 -84 -60q-64 -37 -102 -37q-32 0 -52 8q-44 18 -56 89l-8 51q-2 18 -5 21h-1q-12 0 -92 -56q-119 -87 -181 -87q-45 0 -69 44q-5 10 -5 31v69q0 20 -2.5 26.5t-65.5 6.5q-20 0 -36 -2l-5 -1q-31 -3 -35 -7
q0 -5 1 -7.5t2 -3.5q4 -12 4 -26q0 -65 -72 -139q-37 -37 -74 -37zM66 575q3 0 13 6q18 13 38 43q24 37 24 57q0 7 -5 10l-15 9t-16.5 10t-7.5 5l-1 2q-7 0 -24.5 -42t-17.5 -68q0 -17 10 -30q1 -2 2 -2z" />
    <glyph glyph-name="oo" unicode="oo" horiz-adv-x="728" 
d="M372 462q-16 0 -25 4q-37 17 -37 60q0 28 28.5 69t156.5 171q-20 6 -20 10t-29 4q-56 -1 -109 -9l-15 -2q0 -7 2.5 -17.5t2.5 -20.5q0 -58 -48 -122q-56 -75 -144 -115q-28 -12 -70 -12q-22 0 -36 3q-18 5 -33 18q-31 25 -31 74q0 44 26 93q30 56 75.5 98.5t92.5 58.5
q17 7 37 7l35 -1q25 0 56 3q114 14 181 14q65 0 88 -13q16 -6 29 -8q73 -9 101 -63q8 -14 10 -22.5t2 -27.5q0 -29 -11 -49q-71 -132 -238 -193q-36 -12 -77 -12zM381 529l42 11q97 30 160 100q45 48 45 77q0 20 -14 30t-29 10q-6 0 -9.5 -3.5t-9.5 -11.5q-11 -14 -70 -76
q-94 -95 -110 -126zM65 549q8 0 25 5q45 12 86 47q52 43 75 104q6 17 6 28t-8 16t-39 7q-16 2 -24 2q-16 0 -25 -6q-33 -17 -67 -56q-60 -69 -60 -119q0 -28 31 -28z" />
    <glyph glyph-name="ss" unicode="ss" horiz-adv-x="705" 
d="M-1 258q-29 0 -42 22q-7 12 -7 33q0 58 109 169q49 50 92 85q35 28 35 30q0 9 -86 15q-45 3 -65 9q-37 11 -37 52q0 14 6 28q10 20 38 51q82 91 144 91q15 0 29 -6q34 -19 34 -66q-2 -34 -35 -34q-24 0 -30 24q-2 7 -3.5 8.5t-6.5 1.5q-20 -5 -67 -53l-34 -34
q63 -5 93 -8t57 -16q16 -8 23 -14q1 -1 4 -1q8 0 35 18q52 34 144 85q56 32 73 43q23 12 37 12q5 0 5 -2t2.5 -3.5t5.5 -2.5q15 -5 15 -27q0 -17 -10 -26q-2 -2 -26.5 -17t-56.5 -49q-18 -21 -18 -33q0 -4 3 -7.5t10.5 -9.5t17.5 -13.5t18 -12.5t9 -5l11 5q83 46 160 82
q19 9 32 9q33 0 33 -33q0 -16 -3.5 -20.5t-86.5 -45.5t-90 -48q0 -9 7 -23q8 -20 8 -40q0 -54 -53 -110q-48 -50 -110 -81q-51 -24 -87 -24q-46 0 -66 39q-6 12 -6 27q0 55 75 130q38 38 110 91q-61 47 -61 79q0 10 -2 10t-50 -31l-49 -30v-19q0 -82 -113 -198
q-112 -106 -174 -106zM333 336q32 4 56 16q64 32 94.5 69t30.5 60q0 10 -5 18q-2 4 -5 4q-4 0 -19 -10q-129 -89 -152 -157zM30 339q15 8 26 16.5t22 16.5q75 62 121 137l5 10q-1 0 -8 -5.5t-26 -21.5l-8 -7q-80 -68 -132 -146z" />
    <glyph glyph-name="tt" unicode="tt" horiz-adv-x="504" 
d="M331 67q-21 0 -31 6.5t-19.5 20.5t-12.5 26q-6 25 -6 96q6 183 90 474l18 66l-44 -76q-106 -192 -163.5 -263.5t-104.5 -71.5q-29 0 -48 21q-16 16 -22 40.5t-6 76.5q0 101 23.5 238t62.5 262l18 60q0 1 -6 1q-21 0 -125 -12q-195 -22 -264 -45q-19 -6 -33 -6
q-30 0 -30 32q0 26 38 40q97 33 365 57q78 6 82 10q5 8 25 67q21 57 30 72q9 9 24 11q11 0 15 -1.5t12 -9.5q11 -11 11 -28q0 -16 -8 -28.5t-19.5 -42.5t-11.5 -38v-1q39 0 103 3q88 2 146 2l44 -2q51 93 60 104q15 19 28 19q8 0 17.5 -6t11.5 -13q1 -3 2.5 -5.5t3.5 -2.5
t2 -5q0 -14 -25 -77l-3 -14q3 -3 63 -5q364 -16 464 -83q28 -20 28 -25t3 -5t3 -9q-1 -10 -6 -19q-10 -16 -31 -16q-13 0 -26 9q-70 56 -352 74q-47 3 -90.5 5.5t-86.5 2.5l-8 -20q-158 -416 -203 -720q-7 -60 -7 -141q0 -20 3.5 -24.5t10.5 -7.5q22 -9 22 -35
q0 -12 -12.5 -25t-24.5 -13zM63 416q45 0 316 511q66 125 66 127t-42 2q-109 0 -193 -4q-42 -2 -45.5 -5t-29.5 -88q-47 -150 -68 -303q-16 -116 -16 -173q0 -24 2 -41q3 -26 10 -26z" />
    <glyph glyph-name=".notdef" horiz-adv-x="1024" 
d="M100 0v1434h824v-1434h-824zM150 50h724v1334h-724v-1334zM325 1148q31 28 58 43q53 30 112 30q92 0 148 -47.5t56 -127.5q0 -49 -23 -98.5t-87 -129.5q-63 -80 -99 -132t-36 -99q0 -38 24 -133h-32q-35 97 -35 148q0 76 81.5 218t81.5 217q0 57 -33 90t-91 33
q-38 0 -69 -17q-26 -15 -56 -40v45zM389 334l57 58q11 10 20 10q10 0 22 -11l56 -60q9 -11 9 -20q0 -11 -10 -22l-56 -62q-14 -14 -21 -14q-11 0 -20 10l-61 71q-7 9 -7 18q0 10 11 22z" />
    <glyph glyph-name="space" unicode=" " horiz-adv-x="508" 
 />
    <glyph glyph-name="space" unicode="&#xa0;" horiz-adv-x="508" 
 />
    <glyph glyph-name="exclam" unicode="!" horiz-adv-x="247" 
d="M35 307h-6q-10 0 -19 7t-9 17q-1 5 -1 15q1 23 6 30.5t15 14t16 6.5q11 0 23 -13t12 -24q0 -8 -5.5 -23t-11.5 -21q-3 -3 -8.5 -5.5t-11.5 -3.5zM52 400q-12 0 -23 12.5t-11 21.5q0 18 23 117q63 280 149 493q4 12 25 63q15 39 26 44q1 0 1 1q10 6 19 6q26 0 31 -29v-4
q0 -10 -33 -96q-55 -138 -89 -262q-59 -204 -76 -307q-9 -52 -27 -56q-9 -4 -15 -4z" />
    <glyph glyph-name="quotedbl" unicode="&#x22;" horiz-adv-x="145" 
d="M107 1209q-13 0 -24 11.5t-11 23.5v11q-21 -20 -24 -21t-6 -1q-16 0 -26 8q-16 12 -16 36q0 35 36 93q22 37 44 37q9 0 18 -7q14 -9 14 -23q0 -15 -18.5 -46t-20.5 -49l-2 -17l14 26q33 66 70 66q9 0 19.5 -7t13 -14.5t2.5 -13.5q0 -13 -17 -29q-30 -30 -30 -52
q0 -8 -3.5 -8t-3.5 -5.5t-10 -12t-19 -6.5z" />
    <glyph glyph-name="numbersign" unicode="#" horiz-adv-x="1205" 
d="M612 86q-12 0 -20 10.5t-8 26.5q0 63 42 241q11 46 11 53q0 3 -86 3l-145 -3q-42 -2 -46 -4q-5 -9 -17 -86q-9 -49 -12 -102q-3 -24 -7 -42q-5 -12 -12 -14t-17 -2q-19 0 -26 9t-7 43q0 63 15 144l7 46q-31 0 -104 -5q-82 -6 -117 -6q-34 0 -42.5 4.5t-14.5 13.5t-6 19
q0 13 12 24l11 12l40 -2q44 0 117 5q110 5 119 8q4 2 25 86q37 148 59 213l2 7q-1 0 -17 -2.5t-39.5 -7t-46.5 -9.5t-38 -8q-36 -9 -40.5 -13.5t-42.5 -4.5q-11 2 -17 13q-3 3 -3 6.5t-3 3.5t-3 4q0 29 22 39q29 15 202 46q48 7 50.5 10.5t16.5 42.5q72 205 97 217
q10 6 19 6q12 0 23 -10.5t11 -23.5q0 -11 -7 -30.5t-10 -39.5q-5 -32 -17 -35q-3 -1 -6 -3t-5.5 -4.5t-22.5 -55.5q-18 -47 -18 -53v-1q18 0 48 3q43 4 124 9q78 2 89 6l11 2q56 201 80 224q6 6 22 8l8 1q8 0 19 -11.5t11 -25.5q0 -13 -9 -26q-13 -14 -44 -123l-14 -47h175
q134 0 182 -2q39 -3 48.5 -12t9.5 -27q0 -17 -9 -23.5t-38 -6.5q-35 0 -73 2q-61 3 -131 3q-35 0 -183 -4q-20 -71 -38 -142q-40 -151 -49 -191q88 -5 101 -5q64 0 150 -12q36 -5 45.5 -8.5t17 -14t7.5 -16.5q0 -5 -4.5 -13.5t-10.5 -14.5t-24 -6t-59 6q-94 12 -196 12
q-39 0 -43 -2t-19 -73q-25 -112 -35 -181q-7 -58 -19 -70q-10 -8 -28 -8zM398 485q24 0 91 3l167 3q39 155 57 221q27 104 27 109h-6q-30 0 -122 -7q-120 -10 -142 -14q-15 0 -78 -249q-10 -46 -15 -61v-2q0 -3 12 -3h9z" />
    <glyph glyph-name="dollar" unicode="$" horiz-adv-x="1125" 
d="M501 37q-32 0 -32 40q0 20 15 131q-77 -11 -130.5 -12.5t-75.5 -1.5q-210 0 -267 110q-10 20 -10 35q-1 10 -1 33q0 39 3.5 47.5t14.5 12.5q5 3 20 3q31 0 31 -65q0 -44 24 -60q63 -48 202 -48q49 0 116 8q78 8 81 11.5t21 132.5q21 146 38 242l-53 4q-254 14 -254 163
q0 45 27 99q85 161 262 282q82 50 137 71l15 6q14 61 23 92q6 23 14 30q12 12 23 12q12 0 23 -12q15 -15 15 -49q0 -11 -3 -13t-3 -6t-5 -7q-6 -6 -6 -14q0 -7 2 -7l29 5q32 7 59 7.5t34 0.5q68 0 105 -17q31 -15 33 -36q0 -7 -5 -16q-10 -21 -29 -21q-10 0 -22 6
q-33 15 -82 15q-58 0 -131 -19q-10 -3 -12 -5q-10 -14 -61 -250q-49 -227 -49 -250v-2q6 -3 72 -5q304 -11 399 -71q62 -38 62 -92q0 -94 -209 -198q-151 -76 -335 -122q-29 -7 -48.5 -12t-21 -6t-10.5 -77l-13 -84q-8 -21 -32 -21zM569 295q75 18 103 27q159 47 279 110
q132 69 149 120l1 4q0 4 -5 11q-47 64 -334 81q-78 5 -126 5l-13 -1q-6 -14 -29 -167q-25 -164 -25 -190zM559 724q4 0 4.5 4t12.5 63q31 163 81 375l6 28l-1 1q-6 0 -38 -18q-92 -50 -173 -131q-101 -102 -129 -182q-10 -22 -10 -40q0 -89 228 -98q17 0 19 -2z" />
    <glyph glyph-name="percent" unicode="%" horiz-adv-x="971" 
d="M46 7q-19 0 -26.5 3t-13.5 15t-6 27q0 69 270 390q127 150 270 302q65 69 200 204q162 164 188 196q14 18 14 22q0 9 -91 9q-93 0 -274 -20q-160 -19 -280 -44l-2 -25q-5 -56 -60 -111q-68 -67 -113 -67q-29 0 -48 27q-7 11 -7 27q0 57 85 178q35 50 51.5 62.5t27.5 12.5
q8 0 16 -4.5t14.5 -13.5t6.5 -14.5t4 -5.5h2q98 28 383 57q90 8 202 8q82 0 107 -7q50 -17 50 -58q0 -39 -49 -95q-6 -8 -168 -172q-449 -453 -667 -756q-18 -22 -18 -26l68 44q166 109 317 184q52 26 75 36q16 7 23 15t12 8t5 3.5t7 3.5q16 -2 40 -26q36 -36 38 -77l2 -32
q0 -28 -8 -51q-22 -55 -64 -85t-74 -30q-10 0 -19 2q-43 16 -43 63q0 33 21 82q7 15 7 19v1l-55 -28q-113 -59 -294 -180q-73 -48 -95 -61q-20 -12 -31 -12zM566 194q3 0 11.5 5t23 20.5t21.5 26.5q10 21 10 44l-3 29q-65 -92 -65 -122q0 -3 2 -3zM147 992q1 0 7.5 4.5
t14 11.5t15.5 14.5t13 13.5t11.5 16t11 20t5.5 14q0 3 -5.5 9.5t-8.5 6.5q-1 0 -1 -1t-9 -12q-22 -30 -46 -77q-8 -17 -8 -19v-1z" />
    <glyph glyph-name="ampersand" unicode="&#x26;" horiz-adv-x="832" 
d="M87 110q-54 0 -80 50q-7 16 -7 50q0 35 13 72q60 178 294 416q61 61 61 70q-1 4 -1 18t-1 33q0 20 0.5 31t2.5 19.5t7 19.5q42 113 171 199q77 50 152 76.5t116 26.5q10 0 19 -1q43 -12 43 -46q0 -12 -5 -27q-17 -35 -181 -170q-230 -191 -236 -205q0 -8 34 -54
q51 -71 148 -168l23 -25q85 34 132 39l23 2q23 -21 24 -23.5t1 -6.5q0 -14 -7 -24t-11.5 -10t-4.5 -3.5t-11 -3.5q-17 0 -71 -15q-20 -6 -25 -10q0 -3 27 -39q46 -62 46 -74q0 -11 -12.5 -23.5t-22.5 -12.5q-18 0 -37 27.5t-49 65.5q-17 21 -20 21q-7 0 -24 -9
q-10 -6 -28 -15q-88 -49 -246.5 -150t-215.5 -116q-20 -5 -41 -5zM82 180q30 0 80 24q35 17 105 62q206 131 286 174q38 19 38 20v2q0 6 -31 37q-97 103 -161 195l-47 -48q-177 -182 -246 -324q-37 -74 -37 -118q0 -10 2.5 -15t4.5 -7t6 -2zM433 820q72 62 93 80t29 24.5
t13.5 11.5t6.5 5q11 11 69 57q133 110 133 117h-1q-13 0 -66 -21q-128 -51 -197 -124q-70 -70 -77 -132z" />
    <glyph glyph-name="quotesingle" unicode="'" horiz-adv-x="52" 
d="M33 1260l-13 5q-20 7 -20 34q0 18 9 49q14 51 26 67q10 12 28 12q23 0 26 -15q2 -8 5 -8t3 -4q0 -9 -13 -46q-13 -42 -15 -55q-5 -29 -33 -38z" />
    <glyph glyph-name="parenleft" unicode="(" horiz-adv-x="540" 
d="M283 -3q-19 0 -49 5q-140 22 -195 137q-39 78 -39 185q0 189 116 440q126 272 302 437q75 70 103 75q8 1 20 1q44 0 44 -40q0 -12 -6 -22q-9 -14 -28 -14q-5 0 -9.5 1t-7.5 1q-7 0 -16 -7t-25 -21q-142 -123 -259 -333.5t-155 -412.5q-9 -56 -9 -105q0 -126 60 -198
q48 -49 137 -58q31 -2 45.5 -10.5t14.5 -29.5q0 -8 -10 -20q-12 -10 -18 -10.5t-16 -0.5z" />
    <glyph glyph-name="parenright" unicode=")" horiz-adv-x="489" 
d="M80 -3q-25 0 -37 5q-17 8 -31 22q-6 5 -6 9t-3 4t-3 7q0 11 6 20q11 18 30 20q2 -1 9 -3.5t15 -7t12 -6t6 -1.5q5 0 12 3q55 20 117 108q123 175 193 380q48 150 57 255t9 152q0 94 -17 167q-22 88 -69 112q-28 16 -28 35t20 30q7 5 14 5q4 0 9 -2q79 -24 116 -139
q16 -50 21 -102q2 -28 2 -119q0 -170 -42 -328q-73 -272 -234 -494q-95 -127 -178 -132z" />
    <glyph glyph-name="asterisk" unicode="*" horiz-adv-x="250" 
d="M75 1152q-13 0 -22 11q-6 5 -6 9t-3 4t-3 7q0 11 6 20q3 9 33 50l4 8q0 1 -4 1q-8 -2 -15.5 -10.5t-12.5 -8.5t-5 -3t-7 -3q-8 0 -19 5q-21 12 -21 38q0 37 67 50l20 5l-2 5q-18 26 -19 34.5t-1 11.5q0 8 5 17q11 17 29 17q15 0 25 -10q5 -7 10 -16q11 -20 14 -20
q1 0 5.5 7.5t11.5 19.5q21 39 40 39q13 0 25 -12t12 -25q0 -3 -4.5 -13t-10.5 -20.5t-9 -14t-3 -4.5t1 -1l4 1q20 5 42 5q10 0 10 -3t5.5 -3t11.5 -10t6 -19q0 -12 -10 -22t-18.5 -12t-20.5 -3q-27 -2 -30 -5q0 -4 8 -14q21 -21 21 -37q0 -11 -12 -23.5t-23 -12.5
q-17 0 -55 48q-49 -72 -60 -80t-20 -8z" />
    <glyph glyph-name="plus" unicode="+" horiz-adv-x="743" 
d="M278 389q-8 0 -8 3t-5.5 3t-11.5 10t-6 20q0 41 42 209l4 21q-1 1 -9 1q-22 0 -92 -7q-94 -12 -129 -20q-18 -6 -31 -6q-32 0 -32 33q0 22 19 32q44 23 294 39l36 157q11 53 20 67t28 14q18 -1 29 -18v-1q4 -5 4 -13q0 -11 -6 -41q-14 -56 -14 -61l-23 -100
q223 -4 269.5 -10.5t48.5 -20.5q2 -7 5 -7t3 -10t-3 -10t-5 -9.5t-12 -11t-19 -1.5q-13 0 -31 2q-45 5 -275 7q-43 -178 -46 -201q-5 -32 -10 -46q-10 -24 -34 -24z" />
    <glyph glyph-name="comma" unicode="," horiz-adv-x="158" 
d="M37 297h-3q-7 0 -15 5t-13.5 14t-5.5 15q0 13 26 38q17 15 17 28t3.5 13t3.5 6.5t15 13.5q6 3 11 3q37 0 37 -40q0 -50 -56 -88q-12 -8 -20 -8z" />
    <glyph glyph-name="hyphen" unicode="-" horiz-adv-x="630" 
d="M564 640q-16 0 -46 6q-61 13 -214 13q-183 0 -237 -10q-16 -4 -38 -4q-29 0 -29 36q0 10 10 20q13 13 45 18q76 10 238 10q268 0 300 -38q7 -9 7 -16q0 -6 -6 -16t-11 -14.5t-19 -4.5z" />
    <glyph glyph-name="hyphen" unicode="&#xad;" horiz-adv-x="630" 
d="M564 640q-16 0 -46 6q-61 13 -214 13q-183 0 -237 -10q-16 -4 -38 -4q-29 0 -29 36q0 10 10 20q13 13 45 18q76 10 238 10q268 0 300 -38q7 -9 7 -16q0 -6 -6 -16t-11 -14.5t-19 -4.5z" />
    <glyph glyph-name="period" unicode="." horiz-adv-x="121" 
d="M33 331q-6 0 -13 4q-20 10 -20 32q0 10 4 23q11 43 38 43q4 0 12 -4q22 -9 22 -33q0 -12 -4.5 -26.5t-9 -21.5t-13 -12t-16.5 -5z" />
    <glyph glyph-name="slash" unicode="/" horiz-adv-x="902" 
d="M34 7l-11 5q-23 8 -23 33q0 12 30 70q102 195 328 502t454 548l66 71q15 18 34 18q23 0 30 -15q5 -10 5 -17q0 -8 -5 -17q-4 -4 -26 -29t-53 -57q-256 -269 -514 -633q-182 -254 -267 -423q-11 -20 -16.5 -30.5t-10 -14.5t-9.5 -6t-8 -3z" />
    <glyph glyph-name="zero" unicode="0" horiz-adv-x="848" 
d="M158 12q-119 0 -151 111q-7 33 -7 74q0 146 105 399q61 149 150 291q56 90 126 173q-52 -4 -79 -10.5t-38 -6.5q-8 0 -8 3t-6.5 5t-13.5 17q-3 6 -3 10q0 16 19 30q24 12 95.5 18.5t153.5 6.5q76 0 127 -7q37 -6 71 -19q110 -47 158 -162q20 -51 20 -110q0 -87 -42 -193
q-156 -371 -472 -563q-114 -67 -205 -67zM157 81q21 0 46 6q156 41 325 211q126 127 206 291q70 138 71 230l1 23q0 51 -21 92q-46 97 -153 119q-26 6 -93 12l-26 1q-12 0 -14.5 -4t-4.5 -8q-3 -8 -13.5 -14.5t-21.5 -6.5t-50 -49q-183 -226 -295 -563q-45 -139 -45 -224
q0 -46 13 -76q21 -40 75 -40z" />
    <glyph glyph-name="one" unicode="1" horiz-adv-x="262" 
d="M28 -7q-5 0 -5 3.5t-4.5 3.5t-11.5 8t-7 23q0 16 6.5 55t42.5 210q189 901 217 958q15 23 35 23q12 0 23 -11t11 -19q0 -18 -12.5 -52.5t-64 -259t-141.5 -658.5l-42 -203q-8 -47 -11 -58t-12 -15q-12 -8 -24 -8z" />
    <glyph glyph-name="two" unicode="2" horiz-adv-x="1088" 
d="M38 -8q-15 0 -26.5 11.5t-11.5 26.5q0 50 137 87q28 7 49 20q152 94 343 254q207 173 312 304q158 199 158 338q0 28 -8 49q-37 71 -219 89l-22 1q-48 0 -103 -14q-111 -29 -173 -92q-20 -21 -20 -31q0 -4 19 -15q30 -16 30 -35q0 -8 -7 -18.5t-14 -13t-13 -2.5
q-28 0 -57 27t-29 57q0 35 37 75q85 89 231 122q33 6 87 6q80 0 121 -8q139 -30 182 -95q29 -43 29 -104q0 -21 -4 -45q-28 -173 -215 -387q-78 -87 -208.5 -202t-263.5 -214q-42 -29 -42 -32h11q88 8 282 8q77 0 133 -4q106 -9 289 -42q49 -9 63 -17q19 -11 19 -25
q0 -38 -35 -38q-11 0 -24 4q-56 13 -213 36q-111 16 -190 17l-81 1q-113 0 -173 -5q-200 -14 -238 -35q-101 -59 -142 -59z" />
    <glyph glyph-name="three" unicode="3" horiz-adv-x="942" 
d="M194 1q-155 0 -187 60q-7 15 -7 37q0 45 19 71q8 10 25 10q15 0 23.5 -8t9.5 -14q0 -19 -4 -36q-4 -13 -4 -21q0 -5 2 -8q17 -20 131 -20q47 0 86 6q142 24 286 83.5t236 132.5q109 93 109 169q0 10 -2 21q-57 129 -664 152q-101 4 -144 11.5t-59 25.5q-19 16 -19 38
q0 24 24 55q28 37 136 109q322 213 322 223q0 8 -70 8q-91 -3 -193 -22q-65 -13 -99 -26q-14 -5 -24 -5q-31 0 -31 39v6q11 27 115 50q125 27 244 27q140 0 140 -67q0 -42 -82 -102q-63 -45 -277 -185q-51 -33 -88.5 -63t-37.5 -38q5 -9 195 -17q512 -18 642 -143
q24 -24 33 -46q7 -26 7 -52q0 -181 -335 -344q-66 -29 -144 -55.5t-141 -41.5q-91 -20 -173 -20z" />
    <glyph glyph-name="four" unicode="4" horiz-adv-x="843" 
d="M612 -9q-8 0 -15 2q-17 8 -25 48q-2 9 -2 21q0 34 26 147q9 37 42 190l18 81l6 38l-66 -14q-183 -40 -357 -95q-91 -30 -123 -35q-22 -5 -60 -5q-15 0 -25 5q-21 11 -28 31q-3 5 -3 13q0 19 17 53q42 81 334 456l220 283q23 33 44 33q31 0 34 -32q0 -29 -16 -40
q-12 -9 -41 -49q-14 -18 -30 -39t-27 -34.5t-26 -32.5l-74 -95q-222 -287 -277 -363q-77 -106 -77 -117v-1q24 0 154 41q158 50 355 93q49 11 67 14q14 2 18 5t8 26t50 225q16 70 28 115q40 162 53 189q5 10 15 17.5t17 7.5q5 0 15.5 -5.5t14.5 -11t5 -11.5q0 -11 -11 -51
q-27 -86 -71 -280q-44 -185 -44 -205v-1h14l31 3q36 6 53 6q9 -1 18.5 -7t9.5 -11.5t3 -5.5t4 -4q0 -34 -43 -42q-19 -4 -108 -15l-48 -232l-17 -76q-31 -132 -31 -152q0 -11 2 -23.5t2 -23.5q0 -19 -7.5 -25.5t-15 -7.5t-10.5 -1z" />
    <glyph glyph-name="five" unicode="5" horiz-adv-x="898" 
d="M180 9q-60 0 -101 23q-30 19 -51 54q-28 45 -28 82q0 20 14 28q9 5 9 7t5 2q12 0 20.5 -5.5t15 -17t6.5 -21.5q6 -19 24 -50q27 -33 88 -33q83 0 192 56q274 152 342 368q8 27 8 50q0 92 -131 92q-91 0 -265 -78q-100 -46 -131 -46q-22 0 -37 20q-12 10 -12 36
q0 81 121 321q53 109 58 121q10 20 13.5 24.5t3.5 6.5v1q-13 0 -78 -14q-104 -26 -109 -26q-6 0 -6 3.5t-6 3.5t-14 15q-4 7 -4 13q0 18 13.5 27t57.5 20q198 54 527 54q149 0 312 -23q79 -12 85 -15q20 -9 20 -33q0 -19 -14 -27q-6 -3 -26 -3q-25 0 -84 9q-144 23 -307 23
q-160 0 -316 -19q-19 -2 -19 -5t5.5 -3t10.5 -9.5t5 -23.5t-8.5 -33.5t-47.5 -98.5q-119 -244 -119 -285q0 -1 1 -1q6 0 31 10q183 81 246 94q36 8 112 8q125 0 169 -94q12 -30 12 -66q0 -63 -37 -143q-86 -170 -288 -302q-51 -31 -110 -56t-104 -34q-36 -7 -74 -7z" />
    <glyph glyph-name="six" unicode="6" horiz-adv-x="838" 
d="M213 -9q-93 0 -153 58t-60 154q0 83 7 122q48 211 195 417q11 16 18.5 26.5t7.5 11.5q-1 0 -14.5 1.5t-34.5 2.5q-43 4 -49 8q-22 11 -22 30q0 9 6.5 19t12 10t5.5 2.5t4 3t15 0t30.5 -2.5t51.5 -5l48 -5l45 45q231 227 429 284q38 10 74 10q42 0 49 -21q5 -14 5 -19
q0 -15 -15 -26q-9 -7 -19 -7l-30 2q-18 0 -40 -6q-162 -37 -395 -258l-22 -20l15 -4q181 -43 271 -162q16 -22 30 -51q19 -36 25.5 -63.5t6.5 -67.5v-26q0 -35 -4.5 -60t-19.5 -61q-46 -114 -147 -204q-166 -138 -326 -138zM215 60q25 0 55 6q112 25 208 104t141 182
q23 62 23 118q0 123 -114 213q-70 54 -201 81l-13 1q-8 0 -9 -2q-171 -214 -226 -438q-10 -48 -10 -105q0 -105 65 -140q34 -20 81 -20z" />
    <glyph glyph-name="seven" unicode="7" horiz-adv-x="789" 
d="M48 -35q-9 0 -20 6q-15 8 -15 33q0 64 297 461q25 33 25 38l-17 -1q-58 -12 -78 -12q-9 0 -15 2q-21 12 -21 31q0 9 8.5 19.5t18 14t37 8t58.5 9.5q44 6 73 8l27 35q26 32 110 140q253 322 264 371q2 6 2 11q0 10 -12.5 16.5t-77.5 6.5q-61 -2 -190 -12
q-287 -21 -404 -25h-69q-33 0 -43 19q-6 9 -6 17q0 5 4 12q7 16 34 19q17 1 52 1q115 2 421 26q177 13 223 13q137 0 137 -93q0 -29 -20 -69.5t-81 -122.5q-76 -102 -277 -358q79 -4 94 -11q19 -9 19 -32q0 -7 -6.5 -16.5t-13.5 -13.5l-149 2q-152 -203 -189 -256
q-152 -214 -166 -263q-13 -34 -34 -34z" />
    <glyph glyph-name="eight" unicode="8" horiz-adv-x="793" 
d="M137 -2q-35 0 -66 18q-71 41 -71 149q0 118 83 271q74 138 183 235q25 22 43 33q-92 110 -117 160t-25 99v8q0 103 96 195q116 111 268 142q30 5 65 5q49 0 85 -7q65 -15 107 -58q50 -43 50 -117q0 -26 -5 -54q-11 -49 -44 -118q-61 -125 -178 -262q-59 -69 -109 -119
q-27 -25 -27 -32l1 -4q3 -8 6 -27.5t5 -42t2 -37.5q0 -176 -139 -325q-115 -112 -213 -112zM139 69q70 0 156 85q59 58 91 130q18 40 24.5 72t6.5 77q0 56 -1.5 60.5t-4.5 4.5q-4 0 -13 -7q-20 -13 -43.5 -25t-34.5 -12l-6 1q-28 5 -28 31q0 11 4 19q6 11 36 25l29 17
q37 22 37 26q0 2 -13 28q-16 29 -27 47q-29 -20 -52 -42q-56 -53 -79 -85q-131 -177 -151 -333q-2 -13 -2 -25q0 -94 71 -94zM448 625q2 0 23 21q265 280 298 472v9q0 62 -65 97q-45 20 -99 20q-126 0 -250 -90q-101 -75 -117 -165q-2 -10 -2 -20q0 -65 68 -149
q63 -79 71 -79q14 3 24 3q25 0 37 -20q6 -9 6 -20q0 -10 -15 -44q19 -35 21 -35z" />
    <glyph glyph-name="nine" unicode="9" horiz-adv-x="622" 
d="M330 -3q-13 0 -26.5 9t-15.5 34v24q0 51 4 82q3 20 10 50q81 334 223 713q23 60 23 63q-2 0 -27 -34q-202 -255 -359 -311q-26 -8 -54 -8q-29 0 -48 8q-60 32 -60 114q0 45 17 104q43 131 142 247t221 179q81 39 119 39.5t40 0.5q72 0 113 -37q10 -8 12 -8q1 0 5 4
q13 15 27 15q10 0 20 -8q16 -13 16 -30q0 -13 -48 -128q-198 -477 -301 -892q-27 -102 -27 -150l2 -44q0 -13 -7 -21t-12 -8t-5 -3.5t-4 -3.5zM107 687q13 0 30 6q118 39 287 236q68 83 141 190q30 44 30.5 52.5t9.5 24.5q6 11 7 16q0 4 -3 7q-20 22 -71 22
q-104 -2 -222 -95q-139 -110 -209 -261q-37 -80 -37 -146q0 -52 37 -52z" />
    <glyph glyph-name="colon" unicode=":" horiz-adv-x="94" 
d="M33 409q-12 0 -21 8q-3 2 -4 5q0 7 -4 7t-4 7q0 26 14 67q7 20 28 26l11 1q4 -1 4 -4t5.5 -3t11.5 -10t6 -21q0 -32 -16 -67q-9 -16 -31 -16zM95 727q-16 0 -26 15q-3 3 -3 4q0 5 -3.5 5.5t-3.5 5.5q0 4 3 16q4 16 4 27.5t12.5 24.5t24.5 13q8 0 18 -7q19 -15 19 -32
q0 -6 -5 -24q-13 -48 -40 -48z" />
    <glyph glyph-name="semicolon" unicode=";" horiz-adv-x="153" 
d="M33 375q-33 0 -33 40q0 9 21.5 29.5t32.5 44.5t19 31.5t24 7.5q32 0 32 -32q0 -16 -13.5 -42.5t-34.5 -48t-31 -26t-17 -4.5zM152 726q-7 0 -7 3t-6 3t-14 16q-4 6 -4 11q0 10 3.5 31t16.5 32q9 11 17 11q14 0 26 -8q8 -5 8 -10.5t3 -6t3 -5.5q0 -6 -2 -19
q-9 -58 -44 -58z" />
    <glyph glyph-name="less" unicode="&#x3c;" horiz-adv-x="551" 
d="M469 406q-16 0 -87 22l-173 54q-118 39 -163.5 65t-45.5 58q0 34 45 65q50 33 329 150q43 17 82 34q88 38 106 42q9 -1 18.5 -7t9.5 -11.5t3 -5.5t3 -7q0 -9 -6 -19.5t-22 -18.5q-62 -29 -206 -88q-165 -68 -243 -108l-43 -22q35 -17 52.5 -23.5t35.5 -13.5
q39 -15 189 -61q56 -18 87.5 -26.5t40.5 -12.5q25 -10 25 -31q0 -9 -6 -19q-8 -13 -17 -14.5t-14 -1.5z" />
    <glyph glyph-name="equal" unicode="=" horiz-adv-x="563" 
d="M56 555h-6q-10 0 -10 1.5t-10 6.5q-14 8 -14 26q1 19 17 29q17 8 92 16q130 14 258 14q127 0 150 -13q8 -6 13 -18q3 -6 3 -10t-4 -11q-9 -21 -29 -21q-32 0 -61 2q-37 2 -77 2q-140 0 -322 -24zM36 712q-13 0 -13 3t-5 3t-11.5 10t-6.5 19q0 11 3 11t3 5q0 11 35 18.5
t131.5 17t196.5 9.5q162 0 183 -21q11 -11 11 -23q0 -9 -6 -19t-11 -10t-6 -3t-10 -3q-14 0 -48 4q-55 6 -119 6q-112 0 -253 -18q-20 -3 -34.5 -4.5t-24 -3t-15.5 -1.5z" />
    <glyph glyph-name="greater" unicode="&#x3e;" horiz-adv-x="504" 
d="M30 372q-7 0 -7 3t-4.5 3t-11.5 9t-7 19q0 9 3 17t37 36q75 67 270 172l55 30l66 37l24 15q0 3 -109 34q-234 65 -257 101q-12 13 -12 23q0 9 6 19q11 15 26 15t33 -12q37 -25 236 -82q106 -30 132 -40q39 -16 39 -50q0 -25 -23 -45t-97 -59q-155 -83 -227 -127.5
t-139 -101.5q-20 -16 -33 -16z" />
    <glyph glyph-name="question" unicode="?" horiz-adv-x="1104" 
d="M109 267h-2q-4 0 -10 4q-21 11 -21 33q0 9 3 19q10 27 33 27q7 0 16 -3.5t15 -13.5t6 -18l-1 -6q-11 -42 -39 -42zM137 410q-19 0 -32 12t-13 32q0 23 19 56q83 154 263 281q129 90 397 212q307 141 307 203q0 50 -218 84q-68 8 -143 8q-94 0 -197 -13
q-292 -38 -406 -144q-43 -40 -45 -67q0 -22 57 -82q40 -42 47 -55q32 -53 32 -99q0 -12 -4 -20t-13.5 -15t-16.5 -7q-12 0 -23.5 13t-11.5 27q0 10 -7 30t-15 33q-3 6 -17 21.5t-31 34.5q-39 40 -52.5 65t-13.5 54q0 27 11 47q74 137 320 201q199 45 381 45q121 0 235 -20
q200 -41 202 -140q0 -78 -151 -168q-69 -41 -200 -101q-181 -84 -271 -134q-186 -104 -282 -221q-74 -90 -74 -120q0 -4 2 -6.5t4 -2.5t2 -10t-3 -10t-3 -6.5t-11 -12t-25 -5.5z" />
    <glyph glyph-name="at" unicode="@" horiz-adv-x="1068" 
d="M302 88l-40 1q-180 21 -243 168q-19 48 -19 118q0 83 31 174q23 66 60.5 138.5t76.5 125.5q92 119 230 213q184 124 334 124q64 0 105 -8q73 -16 137 -51q139 -88 139 -249q0 -64 -22 -140q-38 -113 -118 -196q-95 -97 -157 -97q-24 0 -43 15q-24 19 -24 61q0 32 7 79
t16 80l4 20q0 2 -2 2q-3 0 -15 -10.5t-14 -18.5q-5 -22 -30 -27q-12 -2 -34 -19l-36 -31q-190 -162 -270 -193q-32 -12 -55 -12q-43 0 -60 39q-3 8 -3 18q0 30 22 80q29 67 86 144q71 93 145 151q81 64 140 64q15 0 28 -7q47 -21 62 -89l5 -21l10 5q30 22 57 25
q27 -2 40 -25q5 -8 5 -22q0 -19 -13 -72q-10 -41 -22 -120q-5 -29 -5 -37t2 -8l5 1q30 10 71 46q66 58 105 137q44 92 44 175q0 88 -53 152q-45 48 -120 69t-131 21q-142 0 -318 -124q-137 -96 -221 -218q-88 -137 -122 -279q-9 -40 -9 -91q0 -27 4 -48q35 -161 233 -164
q262 8 531 199q50 36 76 60q36 36 52 36q11 0 24 -11q4 -4 4 -8.5t3.5 -4.5t3.5 -6q0 -10 -3.5 -18.5t-27.5 -30.5q-77 -72 -222 -158q-234 -127 -446 -127zM335 429q48 0 270 189l72 60l-2 30q-6 71 -30 71q-27 0 -78 -36q-56 -41 -110 -105q-88 -103 -122 -192l-5 -13
q0 -4 5 -4z" />
    <glyph glyph-name="A" unicode="A" 
d="M950 1h-17q-37 18 -37 138q0 141 95 433l19 58l-232 1q-224 -2 -325 -8q-289 -20 -303 -31q-7 -7 -24 -27.5t-35.5 -42t-27.5 -33.5q-156 -196 -186 -304q-2 -9 -2 -15q0 -3 9.5 -14t9.5 -22q0 -12 -12.5 -23t-27.5 -11q-50 0 -50 66q1 26 9 51q45 126 186 304
q39 47 44 56q0 2 -8 2l-54 -3q-16 0 -23 5q-17 11 -18 21v11q0 17 14 24q10 5 10 7t19 2q27 0 77 8l58 7l71 75q269 282 550 484q224 159 406 213q34 9 72 9q26 0 42 -7q49 -15 49 -91q0 -69 -41 -188l-163 -464h86q86 0 112 -9t27 -23q0 -34 -35 -34q-16 0 -59 4
q-25 2 -63 2q-37 0 -87 -2q-120 -350 -120 -506q0 -41 8 -62q6 -17 6 -29q0 -27 -29 -32zM236 675q5 1 24.5 2.5t43.5 4.5q193 18 446 18l282 -3l24 70q16 43 67 191q89 251 104 311q11 46 11 80q0 12 -3.5 18.5t-19.5 6.5q-40 0 -126 -35q-203 -80 -464 -293
q-166 -132 -368 -339q-28 -28 -28 -32h7z" />
    <glyph glyph-name="B" unicode="B" horiz-adv-x="989" 
d="M184 1q-86 0 -131 25q-58 31 -70 84q-1 8 -1 31q0 32 4 48q14 36 31 40.5t22 4.5q21 0 35 -22q8 -13 8 -21q0 -9 -8 -20q-11 -17 -11 -31q0 -49 115 -49h17q90 0 132 15q7 4 45 13q70 18 155 56q144 63 265 163q26 21 44 52q7 14 7 26q0 29 -66 53q-20 5 -33 12
q-52 21 -216 21q-65 0 -134 -5q-55 -5 -177 -10q-38 -150 -49 -197q-14 -61 -45 -61q-29 0 -40 28q-3 8 -3 14q0 8 5 36q4 17 7 31.5t5 19.5q7 20 12 45q11 51 51 194q31 118 42 150l3 11q0 6 -6 14q-15 17 -15 34q1 16 19 43q23 34 49 34q21 0 35 -14q13 -20 16 -38
q0 -18 -12.5 -72.5t-14.5 -57t-5.5 -17.5t-3.5 -18l5 1q12 12 75 54q6 3 7 4.5t12.5 9.5t73.5 53q28 19 77 55q41 27 56 39q45 35 105 80q38 30 48 37q63 50 118.5 104t75.5 84q28 45 28 75q0 14 -7 25q-40 54 -204 54q-75 0 -166 -16q-58 -12 -158 -44q-37 -13 -47 -19
q-4 -4 -26 -12q-178 -78 -288 -213q-66 -81 -66 -116q0 -5 6 -16t6 -19q0 -21 -16 -37q-8 -8 -23 -8q-33 0 -52 37q-5 10 -5 30q0 30 2 39q2 14 16 45q38 76 113 154q102 102 222 162q82 41 166 69q94 30 177 43q67 11 138 11q53 0 86 -4t77 -16q60 -17 97.5 -58t37.5 -89
q0 -101 -142 -236q-34 -32 -64 -58q-4 -2 -17 -13q-74 -62 -161 -126q-123 -91 -144 -103q-10 -8 -142 -102q-52 -36 -63 -46q9 0 53 4q127 11 186 11q74 0 170 -15q50 -8 68 -16q5 -4 30 -11q106 -42 120 -121l2 -15q0 -11 -7 -34q-29 -103 -203 -206q-116 -74 -234 -115
q-23 -7 -35 -13q-6 -4 -78 -23q-84 -25 -189 -25z" />
    <glyph glyph-name="C" unicode="C" horiz-adv-x="819" 
d="M232 0q-63 0 -118 36q-34 21 -56 49q-90 119 -90 333q0 285 154 596q63 127 151 230q172 199 334 199q83 0 144 -54q85 -81 111 -231q2 -13 2 -21q0 -7 -5 -16q-13 -23 -29 -23q-5 0 -15.5 6.5t-13.5 12t-6 16.5t-5 23q-36 177 -101 192t-83 15q-100 0 -226 -114
q-225 -224 -316 -603q-27 -130 -27 -237q0 -35 3 -68q36 -261 194 -261q99 0 215.5 106.5t206.5 280.5q15 33 27 52.5t29 19.5q19 0 31 -22q5 -10 5 -14q-5 -25 -32 -78q-67 -132 -162 -237q-163 -188 -322 -188z" />
    <glyph glyph-name="D" unicode="D" horiz-adv-x="1066" 
d="M-82 0q-41 0 -52 3q-45 12 -60 57q-4 13 -4 24q0 17 9 28.5t26 11.5q29 0 33 -28q2 -16 23 -18q14 -2 42 -2q109 0 338 118q226 112 394 254q374 313 374 615q0 59 -8 98q-49 195 -320 197q-201 -1 -411 -93q-136 -60 -211 -139q-32 -32 -38.5 -36.5t-13.5 -4.5t-7 3.5
t-5.5 3.5t-12 11.5t-6.5 22.5q0 27 51 74.5t127 91.5q179 101 396 135q56 7 129 7q72 0 117 -7q283 -60 283 -357q0 -378 -473 -741q-166 -127 -391 -233q-187 -90 -289 -95zM113 212q-45 0 -45 65q0 37 6 72q17 105 88 353q107 373 137 427q11 15 25 15q15 0 28 -13
q9 -8 9 -44q0 -13 -3 -13q-8 0 -45 -116q-62 -192 -112 -378q-65 -239 -65 -297q0 -10 3 -19t3 -14q0 -11 -10 -24q-4 -5 -8.5 -5.5t-4.5 -4.5t-6 -4z" />
    <glyph glyph-name="E" unicode="E" horiz-adv-x="1025" 
d="M-62 -5q-17 0 -27 13q-12 12 -12 26q0 50 118 93q58 23 152 43q34 159 92 373q7 28 7 36q0 2 -2 2q-30 0 -124 -24q-44 -11 -66.5 -19.5t-34.5 -8.5q-18 0 -28 18q-7 11 -7 20t10 22q35 43 278 76l73 237q22 74 96 314q0 59 5 110q-130 -23 -165 -31l-136 -34
q-33 -11 -39 -11q-3 0 -4 4t-5 4t-11.5 10.5t-7.5 21.5q0 21 17 33q27 16 125 39.5t202 38.5q183 28 456 28q301 0 512 -33q81 -13 116 -24q48 -16 48 -52q-1 -5 -3 -5t-4.5 -9.5t-15.5 -15.5q-6 -3 -12 -3q-7 0 -26 6q-78 29 -368 53q-73 4 -192 5q-320 0 -389 -16
q-20 -88 -150 -514q-42 -136 -42.5 -140t-1.5 -7l42 2q47 5 112 5q151 0 296 -15q29 -3 46 -4.5t27.5 -3.5t15.5 -7q14 -20 14 -31q0 -6 -7 -17.5t-14 -15.5q-2 -2 -5 -3t-10 -1q-33 0 -179 13q-104 8 -149 8q-112 0 -195 -11q-15 -2 -20 -8.5t-74 -279.5q-26 -106 -26 -120
q14 0 33 3q82 10 201 10q88 0 157 -6q142 -13 292 -81q20 -11 54 -21q38 -11 43 -45q0 -8 -3 -8t-5 -9t-10 -13.5t-18 -4.5q-27 0 -85 26q-89 39 -156 57q-106 27 -262 27q-162 0 -247 -17q-8 -2 -8 -8t6 -19.5t6 -25.5q0 -6 -3 -6t-3 -5q0 -9 -15 -17q-7 -4 -12 -4
q-29 0 -42 38q-2 6 -7 33q-156 -43 -174 -61q-4 -5 -6 -9q-9 -24 -44 -24z" />
    <glyph glyph-name="F" unicode="F" horiz-adv-x="639" 
d="M132 0q-24 0 -39 30q-21 43 -21 100q0 116 75 442q5 26 5 30q0 2 -4 2q-135 -34 -184 -59q-19 -10 -36 -10q-26 7 -27.5 21t-1.5 17q0 22 21.5 39t85.5 38.5t129 34.5q38 7 41 11.5t10 28.5q15 58 92 340q59 212 59 225q-12 0 -97 -25q-132 -39 -164 -65q-10 -7 -19 -7
q-18 0 -33 28q-4 7 -4 15q0 65 311 140q19 4 23.5 9t8.5 13q16 26 34 26q12 0 26 -13q9 -12 17 -12q210 35 408 35q301 0 464 -68q61 -26 61 -44q0 -6 3 -6t4 -6q0 -19 -7 -31q-13 -22 -35 -22q-16 0 -37 18q-25 23 -129 47q-142 30 -319 30q-172 0 -330 -24
q-95 -14 -102 -19l-149 -548q-13 -50 -13 -55q23 0 62 3q62 5 141 5q65 0 82 -7q27 -10 27 -38q0 -12 -6.5 -23.5t-11 -11.5t-7.5 -5q0 -2 -9 -2q-11 0 -36 3t-51 3q-40 0 -137 -7q-75 -6 -79 -10q0 -3 -23 -100q-68 -298 -68 -375q0 -32 15 -78q5 -14 5 -26q0 -19 -15 -30
q-11 -7 -16 -7z" />
    <glyph glyph-name="G" unicode="G" horiz-adv-x="999" 
d="M514 0q-6 0 -15 7t-15 14.5t-6 25.5q0 64 88 266q74 173 104 233q-25 -36 -154 -190q-301 -354 -478 -354q-15 0 -26 2q-124 33 -124 227q0 218 143 522q107 229 258 413q162 197 312 257q21 10 39.5 10.5t34.5 0.5q41 0 50 -3q80 -27 80 -132q0 -41 -5 -71.5t-20 -82.5
q-27 -93 -46 -105l-8 -4t-4 -1q-5 0 -14 4q-19 7 -20 17t-1 13q0 18 11 50q36 109 36 178q0 21 -4 32.5t-17 19t-34 7.5q-23 0 -56 -12q-136 -54 -284.5 -234t-260.5 -426q-122 -274 -122 -454q0 -147 86 -147q18 0 40 7q170 54 461 415q34 42 74 93t68.5 88.5t29.5 40.5
q-113 -9 -155 -33q-14 -8 -24 -8q-19 0 -30 25q-4 8 -4 16q0 54 139 73q79 11 169 11q19 0 39 -5q11 -4 23 -7q96 -27 96 -60q0 -23 -11 -36q-8 -10 -19 -10q-8 0 -43.5 13.5t-57.5 15.5q-102 -205 -176 -372q-112 -252 -112 -305q0 -14 -12 -29.5t-23 -15.5z" />
    <glyph glyph-name="H" unicode="H" horiz-adv-x="933" 
d="M615 -148q-42 0 -42 84q0 143 57 447q32 183 47 227q0 2 -1.5 3t-18.5 1l-26 -2q-222 -11 -402 -53l-55 -12q-68 -381 -68 -502q0 -11 8 -19q8 -12 8 -29q0 -40 -39 -40q-43 0 -46 85q0 127 46 402q13 72 13 79q-92 -23 -190 -72q-30 -16 -39 -24t-13.5 -8t-4.5 -3.5
t-7 -3.5q-12 0 -20.5 6t-14 16t-5.5 19q0 23 31 45q68 51 234 102q35 11 47 17l7 27q28 136 71 309q85 346 114 420q13 26 36 26q30 -6 30 -44q0 -39 -15 -65q-11 -18 -71 -255q-41 -157 -88 -364l-6 -36l42 9q171 39 462 53q118 441 149 462q10 6 19 6q7 0 7 -2t3 -4t7 -5
q14 -6 14 -31q0 -12 -25 -82q-42 -129 -83 -273q-16 -61 -16 -69q5 -4 65 -6q65 -5 120 -5l11 -14q11 -12 11 -25q0 -10 -6 -21q-6 -15 -19.5 -18t-29.5 -3t-39 2q-69 3 -135 3q-50 -231 -74 -387q-34 -211 -34 -271q0 -9 6 -11.5t13 -14.5t7 -21q0 -17 -17.5 -35.5
t-34.5 -19.5z" />
    <glyph glyph-name="I" unicode="I" horiz-adv-x="523" 
d="M308 9q-7 0 -14 3.5t-19 24.5t-22 46l-11 28l1 86q0 106 37 269q23 100 68 279q61 238 76 330q10 57 10 102q0 101 -48 141q-19 17 -40 22t-56 5q-45 0 -65 -2q-72 -10 -208 -70q-89 -39 -156 -80q-17 -13 -26 -13q-12 0 -24.5 15.5t-12.5 32.5q0 16 20.5 33t80.5 48
q238 125 383 125q143 0 196 -120q15 -33 20 -61.5t5 -76.5q0 -71 -18 -164t-73 -308q-63 -247 -82 -346.5t-19 -163.5l2 -70q31 -61 31 -74q0 -10 -5 -20q-11 -21 -31 -21z" />
    <glyph glyph-name="J" unicode="J" horiz-adv-x="932" 
d="M65 -5q-19 0 -35 3q-131 23 -131 168q0 22 4 42q43 190 267 352q63 44 171 97q34 16 46.5 31.5t20.5 19t14 3.5q14 0 23.5 -12t9.5 -25q0 -47 -79 -86q-119 -61 -170 -97q-122 -87 -179 -176.5t-57 -155.5q0 -16 3 -32q12 -50 100 -50q89 0 210 69q72 40 132.5 92
t130.5 133q288 341 353 672q7 47 8 104q0 57 -7 91q-21 95 -81 112q-10 3 -45 3q-94 0 -236 -103q-89 -65 -156 -142q-34 -37 -46.5 -62t-12.5 -51v-7q0 -56 -36 -56q-10 0 -18 8q-18 15 -18 50q0 31 10 61q31 94 177 217q163 137 274 161q25 5 62 5q190 0 203 -254v-21
q0 -347 -318 -766q-212 -278 -440 -366q-81 -32 -154 -32z" />
    <glyph glyph-name="K" unicode="K" horiz-adv-x="729" 
d="M728 -95q-48 0 -75 4q-174 23 -391 221q-91 82 -154 148q-22 23 -25 23q-7 0 -10 -136q0 -69 15 -101q7 -16 7 -26q0 -7 -3 -14q-11 -27 -36 -27q-7 0 -17 10q-32 34 -35 121q0 75 1 107q2 47 12 127q-3 1 -5.5 2t-8.5 1q-38 -11 -52 -11q-56 0 -56 48q0 15 8 27
q12 18 27.5 24.5t44.5 6.5q51 0 59 14q3 5 5 19q31 182 87 401q77 308 147 488q19 52 31 58q7 3 14 3q35 0 35 -39q-1 -17 -13 -46q-37 -99 -85 -261q-68 -228 -108 -425q-10 -45 -30 -146l24 19q136 105 287 260q285 295 456 605q45 83 62 89q6 3 12 3q5 0 11 -4
q22 -12 22 -34q0 -27 -114 -209q-237 -385 -611 -708q-85 -74 -142 -112q-27 -17 -27 -28t24.5 -33t54.5 -55q272 -280 450 -320q51 -12 109 -12q46 0 84 10q17 3 20 15q5 27 32 27q32 0 32 -40v-7q0 -68 -100 -83q-27 -4 -75 -4z" />
    <glyph glyph-name="L" unicode="L" horiz-adv-x="415" 
d="M94 -4h-25q-134 0 -134 187q0 77 5 131q40 393 218 954q15 48 15 59q0 5 -3 9t-3 11q0 12 16 39t26 36.5t24 9.5q13 0 23.5 -12.5t10.5 -25.5q0 -11 -22 -84q-81 -255 -123 -412.5t-72 -323.5q-46 -247 -46 -374q0 -50 7 -81t20.5 -40.5t36.5 -9.5q34 0 85 14
q44 12 148 45q363 120 615 120q133 0 231 -37q23 -9 32 -17t9 -26q0 -20 -14 -29q-8 -5 -19 -5q-10 0 -24 5q-30 14 -99 28q-49 10 -112 10q-233 0 -584 -114q-197 -65 -242 -67z" />
    <glyph glyph-name="M" unicode="M" horiz-adv-x="1202" 
d="M1110 -6q-10 0 -24 11t-28 30t-24 39q-30 55 -30 168q0 172 95 684q54 289 58 373q0 57 -16 57q-52 0 -352 -358q-157 -186 -195 -211q-25 -16 -48 -16q-78 0 -78 156q0 95 8 157q6 55 8 131q0 31 -1.5 45.5t-9.5 14.5q-6 0 -21 -10q-55 -34 -164 -192
q-170 -247 -238 -471q-37 -117 -37 -212l3 -61q0 -12 -8 -18q-10 -11 -25 -11q-41 0 -41 92q0 173 117 428q72 152 174.5 300t172.5 203q42 29 73 29q43 0 66 -52q4 -8 5.5 -16t2 -23t0.5 -45q0 -64 -10 -169q-8 -90 -8 -109t6 -59q4 -29 9 -29q21 0 194 207q8 8 34 40
q164 195 258 280q63 55 108 55q33 0 56 -30q15 -17 19 -37.5t4 -89.5q0 -54 -17.5 -155t-35.5 -200q-95 -510 -95 -684q0 -113 44 -161q23 -27 26 -50q-1 -5 -4 -5t-3 -6t-9.5 -13t-18.5 -7z" />
    <glyph glyph-name="N" unicode="N" horiz-adv-x="1021" 
d="M939 0h-4q-37 0 -74 81q-24 52 -33.5 106.5t-9.5 148.5q0 114 12 229q13 124 50 357q36 244 39 278q2 27 2 67q0 41 -1 52q-1 17 -8 17q-5 0 -14 -5q-113 -55 -461 -580q-153 -231 -205 -298q-91 -115 -160 -115q-86 5 -86 155q0 203 109 603q28 107 83 266
q20 61 25 68.5t23 7.5q32 0 32 -36q0 -17 -38 -138q-62 -190 -102 -363q-65 -279 -65 -403q0 -49 10 -74q4 -11 12 -11q35 0 108 95q56 72 168 241q352 535 479 625q51 38 88 38q76 0 76 -130q0 -84 -31 -278q-58 -388 -71 -526q-3 -52 -3 -137t3 -115q17 -100 54 -152
q20 -27 21 -37q0 -8 -11 -25q-5 -6 -9 -6t-4 -3t-4 -3z" />
    <glyph glyph-name="O" unicode="O" horiz-adv-x="876" 
d="M260 7h-9q-161 0 -235 189q-27 74 -33 201q-1 14 -1 32q0 94 8 156q0 2 8.5 69t13.5 85q66 296 179 423q40 42 73 42q22 0 41 -21q11 -12 14 -21q0 -6 4 -6q3 0 20 31q89 144 211 211q19 10 46 18q46 16 86 16q60 0 113 -32q15 -9 30 -24q86 -85 91 -227l1 -60
q-1 -42 -4 -66q-6 -56 -30 -156q-22 -87 -39 -134l-23 -61q-95 -250 -250 -443q-64 -79 -123 -129q-7 -7 -7.5 -9t-4.5 -2t-7 -3q-3 -8 -37.5 -30t-84.5 -38q-31 -10 -51 -11zM244 82q33 0 88 20q48 27 100 75q109 102 210 270q175 302 209 594q3 21 3 65t-2 62
q-24 150 -119 185q-13 4 -42 4q-56 0 -102 -24q-149 -76 -240 -282q-95 -214 -95 -355q0 -17 1 -26t3 -14.5t6 -11.5q8 -12 8 -24q0 -14 -10.5 -25t-21.5 -11q-8 0 -17 6q-35 22 -35 106q0 160 104 395q-21 12 -27.5 23.5t-10.5 11.5q-8 0 -40 -46q-45 -65 -81 -165
q-55 -144 -77 -325q-7 -57 -7 -179q0 -36 4 -71q7 -42 7 -55q5 -26 26 -77q9 -22 9 -26q29 -50 66 -78q33 -22 83 -22z" />
    <glyph glyph-name="P" unicode="P" horiz-adv-x="790" 
d="M40 0q-11 0 -23 8q-17 11 -20.5 37t-3.5 53t2 63q24 326 102 665q30 124 63 221.5t52 117.5q10 8 21 8q20 0 34 -28q2 -6 2 -14q0 -32 -14 -46q-18 -22 -50 -133q-51 -173 -81 -346q-7 -39 -7 -52q0 -36 55 -36q26 0 64 10q94 25 207 97q216 141 324 307q87 130 87 244
q0 166 -291 181h-22q-144 0 -303 -74q-173 -79 -255 -199q-13 -17 -15 -38q-3 -41 -34 -41q-15 0 -27 13t-12 39q0 34 45 94t109 110q170 127 382 170q44 7 112 7t111 -7q204 -37 251 -156q18 -48 18 -103q0 -108 -71 -242q-93 -161 -268 -301q-248 -189 -409 -189
q-39 0 -58 5q-5 5 -17 5q-4 0 -6 -24q-29 -216 -32 -323q0 -31 6.5 -42t6.5 -21q0 -12 -8.5 -26t-26.5 -14z" />
    <glyph glyph-name="Q" unicode="Q" horiz-adv-x="997" 
d="M860 -327q-38 0 -61 4q-106 26 -226 136q-72 67 -138 174q-21 35 -25 37.5t-7 2.5q-67 -20 -116 -20q-98 0 -168 53q-151 113 -151 384q0 63 8 121q46 309 241 573q28 37 78 89.5t83 79.5q159 125 232 125h73q143 0 231 -122q83 -117 83 -307q0 -288 -167 -578
q-23 -40 -55 -85q-121 -173 -268 -263q-12 -7 -20.5 -12.5t-9.5 -5.5q0 -6 42 -71q56 -84 134 -148q107 -89 187 -92h21q21 0 37 4l12 1q32 0 36 -41q0 -39 -86 -39zM284 83q37 0 87 13q-14 37 -51 95q-23 34 -33 34q-2 0 -7.5 -4t-10.5 -4q-9 0 -20 6q-27 17 -27 32v16
q0 28 26 41q9 4 22 4q66 0 142 -142q25 -46 30 -48q6 0 55 32q20 13 34 24q163 129 271 340q119 234 125 475q0 153 -59 253q-70 108 -186 108q-141 0 -305 -149q-151 -143 -245 -356t-94 -411q0 -250 146 -337q44 -22 100 -22z" />
    <glyph glyph-name="R" unicode="R" horiz-adv-x="992" 
d="M1142 -90q-75 0 -177 25q-235 57 -440 257q-49 47 -186 196q-18 19 -20 20q-8 0 -36 -8q-79 -21 -139 -21h-6q-13 0 -16 -15q-2 -11 -6 -48q-19 -147 -19 -205q0 -24 7 -50q5 -17 5 -30q0 -33 -38 -33q-7 0 -17 9q-14 13 -19 37.5t-5 74.5q0 97 19 226l3 35q0 10 -6 10
t-28 13q-53 29 -57.5 56t-4.5 34q0 38 33 74q44 44 92 44h12q15 86 47 210q69 271 98 318q8 11 24 11t27 -14q3 -4 3 -7.5t3 -3.5t3 -6q0 -14 -14 -55q-57 -172 -96 -344q-24 -107 -24 -113q0 -2 17 -7q58 -17 136 -86q17 -15 24 -15q102 38 219 108q150 90 260 190
q178 162 214 312q5 21 5 40q0 73 -76 127q-110 74 -221.5 78.5t-135.5 4.5q-177 0 -356 -54q-118 -39 -197 -89t-79 -84v-10q0 -21 -14 -33q-9 -7 -19 -7q-9 0 -19.5 7t-14.5 17.5t-4 28.5q0 87 149 167q234 130 557 130q114 0 157 -7q296 -51 339 -231q4 -21 4 -44
q0 -144 -158 -325q-211 -229 -543 -381l-14 -6l56 -61q171 -192 312 -278t319 -108q35 -5 64 -5q65 0 108 24l24 12q3 43 16.5 47.5t18.5 4.5q13 0 25 -9q18 -13 18 -41q0 -31 -33 -60q-67 -54 -180 -54zM147 453q7 0 66 9q36 8 36 10q0 6 -34 27q-47 29 -62 29
q-4 0 -10 -31q0 -4 -1 -7q-4 -20 -4 -30q0 -7 9 -7zM64 464q2 0 7.5 31.5t5.5 35.5l-1 1q-1 0 -4.5 -1t-10 -3.5t-11.5 -5.5q-23 -14 -23 -28q0 -11 16 -20.5t21 -9.5z" />
    <glyph glyph-name="S" unicode="S" horiz-adv-x="1245" 
d="M464 -5h-26q-179 0 -319 82q-69 41 -126 107q-94 104 -94 192q0 57 40 99q50 57 145 57q44 0 44 -41q0 -12 -11 -26q-4 -6 -8.5 -6t-4.5 -2t-9 -4t-22 -2q-78 -6 -100 -56q-5 -13 -5 -29q2 -14 12 -36q25 -53 75 -104q147 -153 398 -153q155 0 330 57q160 55 256.5 138.5
t96.5 165.5q-7 91 -193 91q-92 0 -282 -30q-105 -16 -139 -17q-24 -1 -139 -1l-26 15q-59 30 -59 111q0 77 54 200q118 277 316 464q180 166 327 166q155 0 218 -217q6 -20 7.5 -36.5t1.5 -66.5q0 -64 -18 -73q-10 -5 -10 -7.5t-10 -2.5t-10 3.5t-4.5 3.5t-11.5 11
q-7 7 -7 24q0 11 2 33l1 26q0 26 -7 51q-26 102 -76 145q-38 24 -83 24q-125 0 -311 -182q-160 -160 -258 -394q-49 -117 -49 -180q0 -41 75 -41q58 0 204.5 21.5t207.5 26.5t92 5q191 0 245 -114q10 -19 12 -36q0 -57 -1 -70q-9 -58 -76 -135q-189 -202 -554 -252
q-45 -5 -111 -5z" />
    <glyph glyph-name="T" unicode="T" horiz-adv-x="603" 
d="M327 6q-9 0 -18 5q-23 13 -23 48q0 48 49 304q74 391 229 893q23 74 23 77q-9 0 -55 -4q-262 -25 -602 -100l-12 7q-19 13 -19 34q0 20 19.5 31.5t182.5 42.5q248 48 466 66q48 4 63 11q8 5 14 5q4 0 7 -2q0 -4 236 -5q366 -2 577 -32q173 -25 173 -51q0 -5 3 -5t3 -6
q0 -9 -6 -23q-12 -22 -33 -22q-11 0 -34 7q-128 34 -451 52q-48 3 -139 4t-175 1q-92 -1 -140 -6q-211 -644 -299 -1200l-10 -62q13 -27 13 -30q0 -4 -5 -13q-12 -27 -37 -27z" />
    <glyph glyph-name="U" unicode="U" horiz-adv-x="1162" 
d="M954 -117q-8 0 -8 2.5t-6 5t-13 14.5q-6 8 -6 99q0 291 164 1029q37 161 37 167q0 2 -1 2q-16 -22 -277 -484l-37 -62q-247 -418 -402 -550q-111 -94 -197 -94q-45 0 -82 23q-99 62 -130 257q-7 54 -7 175q0 83 6 147q20 211 69 394q41 153 96 266q66 139 118 156
q7 1 21 1q21 -2 28 -12q18 -19 18 -48q0 -89 -37 -89q-27 0 -35 30q-1 5 -2 6q-4 0 -20 -27q-137 -243 -186 -675q-6 -68 -6 -165q0 -98 6 -144q36 -210 143 -210q170 0 473 493q90 146 186 318q191 339 234 399q36 51 64 51q12 0 22 -8q20 -12 20 -52q0 -45 -61 -322
q-86 -379 -133 -714q-24 -175 -24 -275q0 -75 -3 -81q-12 -23 -32 -23z" />
    <glyph glyph-name="V" unicode="V" horiz-adv-x="927" 
d="M293 -2q-34 0 -61 8q-42 14 -82 60q-94 113 -133 354q-16 102 -16.5 176.5t-0.5 94.5q0 122 10 311q3 59 3 87q0 13 -2.5 18.5t-2.5 22.5q0 74 21 76q6 2 6 5t9 3q22 -2 33 -18q7 -11 7 -49q0 -67 -7 -194q-8 -134 -8 -283q0 -278 80 -466q55 -134 138 -134q80 0 183 133
q52 68 113.5 173t165.5 302q311 593 376 688q39 61 49.5 66.5t15.5 5.5t13 -4q22 -12 22 -36q0 -11 -23 -42q-68 -104 -194 -338q-20 -42 -32 -60q-267 -506 -303 -569q-196 -351 -336 -386q-19 -5 -44 -5z" />
    <glyph glyph-name="W" unicode="W" horiz-adv-x="1396" 
d="M617 3q-97 0 -144 91q-16 32 -20.5 62.5t-4.5 85.5q0 56 0.5 87.5t10.5 90.5q21 128 57 261q6 20 6 26q-10 -10 -157.5 -235t-194.5 -284q-81 -99 -139 -99q-57 0 -90 92q-10 24 -10 101q0 95 19 195q52 270 143 424q56 90 116 90q11 0 21 -5q25 -11 25 -47
q0 -15 -11 -27.5t-19 -12.5q-3 0 -8 1t-10 3t-6.5 4t-3.5 2q-10 0 -35 -34q-49 -70 -90.5 -201t-56.5 -233t-15 -156q0 -70 18 -106q8 -17 15 -17q27 0 96 90q38 50 206 304q191 294 223 315q15 10 27 10q20 0 34 -26q4 -7 4 -19q0 -24 -34 -157q-52 -201 -63.5 -286.5
t-11.5 -131.5q0 -50 8 -89q15 -96 102 -96h11q196 0 513 500q201 318 261 557q22 87 25 143l2 36l-22 44q-6 10 -16 12q-25 8 -25 36q0 34 42 34q18 0 30 -7q10 -8 26 -33t25 -47.5t9 -60.5q0 -93 -45 -241q-65 -213 -246 -502q-300 -477 -512 -537q-28 -7 -85 -7z" />
    <glyph glyph-name="X" unicode="X" horiz-adv-x="992" 
d="M903 -125q-12 0 -26 6q-96 41 -202 310q-39 99 -82 232q-42 127 -70 239l-4 9q-102 -82 -234 -225q-186 -204 -301 -398q-24 -41 -34 -48t-17 -7q-9 0 -20 9q-14 12 -14 30q0 12 11 32q189 333 543 652q46 41 46 44q-38 190 -59 348q-29 209 -29 301q0 9 7 18
q11 11 28 11q16 -1 25 -15q5 -7 15 -105q17 -178 42 -332q30 -165 33 -175q4 0 28 20q80 65 199 149q502 346 804 427q70 16 127 16q72 0 75 -32v-12q0 -19 -14 -27q-10 -5 -10 -7t-54 -2q-239 0 -770 -348q-94 -61 -199 -138t-167 -129q20 -81 40 -153q70 -245 144 -411
q92 -208 145 -208q13 0 13 -3.5t5 -3.5t11.5 -11t6.5 -21q0 -12 -7 -22.5t-17 -15t-18 -4.5z" />
    <glyph glyph-name="Y" unicode="Y" horiz-adv-x="718" 
d="M567 -21q-3 0 -8 2t-9 2t-11 5q-12 7 -28 34q-7 10 -7 15t-3 6q-2 4 -7 33q-7 34 -7 40l-1 75q0 111 25 326q26 192 42 272q3 18 3.5 23t14 72t15 72t2.5 9t2.5 9.5t2 10t2 10.5t2.5 10.5t3.5 14t4.5 19.5q6 27 8.5 34.5t4 14t2.5 10t2.5 10.5t3.5 13.5t4.5 17t5.5 19.5
q7 24 13 51q-2 -1 -40 -63q-42 -73 -68 -113q-91 -151 -94 -154t-23 -38q-107 -179 -166 -247q-80 -92 -151 -92q-45 0 -73 36q-15 18 -15 23.5t-4 13.5q-7 12 -12 70q-3 31 -3 66q0 108 16 200q5 24 6.5 36.5t5.5 37.5q10 54 12 59.5t2 9.5l-1 1q1 5 3 11t4 18q0 7 7 37
q35 149 51 192l2 9q4 25 32 90q12 21 37 21q16 0 26.5 -4.5t10.5 -8.5t2.5 -4t4.5 -10q0 -12 -20 -72q-37 -115 -52 -190q-4 -18 -6 -24.5t-6 -28.5q-11 -47 -11 -54q-6 -36 -14 -76q-24 -153 -24 -241q0 -145 24 -145q4 0 27 14q29 19 75 80q74 104 130 201q18 30 36 58
q13 19 49 81q22 38 56 91q7 11 24.5 40t38.5 62q119 197 128 206q3 3 13 19q26 37 56 38q22 0 35.5 -12t14.5 -31q0 -23 -17 -78q-6 -24 -12 -41q0 -7 -7 -26q-19 -61 -19.5 -68.5t-7.5 -23.5l-5 -18l1 -1q-9 -25 -14 -51l-18 -63q-5 -27 -22 -100q-7 -25 -14 -65
q-6 -35 -7.5 -37.5t-2.5 -13.5l-3 -16q-3 -6 -3 -16q-9 -40 -14 -77l-20 -129l-10 -71q-9 -58 -13 -114q-14 -127 -14 -246q0 -115 28 -132q3 -2 3 -15q0 -17 -5 -24q-25 -17 -32 -17z" />
    <glyph glyph-name="Z" unicode="Z" horiz-adv-x="960" 
d="M-118 -13q-36 0 -47 8q-28 14 -29 39q-1 7 -1 21q0 135 583 592q263 204 570 408q223 147 223 166q0 9 -47 26t-107 31q-282 63 -669 63q-354 0 -487 -49q-21 -9 -34 -9q-15 0 -23 18q-7 12 -7 23q0 12 8 22q25 51 320 74q65 5 232 5q169 0 236 -5q500 -41 616 -126
q31 -26 33.5 -46t2.5 -25q0 -48 -61 -100q-45 -39 -231 -161q-333 -220 -642 -468q-246 -198 -374 -341q-67 -75 -67 -82q0 -2 6 -2q30 0 205 41q189 45 286.5 57.5t189.5 12.5q124 0 219 -13q140 -20 280 -70q51 -19 59 -29q13 -21 13 -30q0 -18 -20 -36q-8 -5 -15 -5
q-9 0 -54 17q-233 84 -474 84q-113 0 -235 -21q-84 -14 -235 -50q-172 -40 -223 -40z" />
    <glyph glyph-name="bracketleft" unicode="[" horiz-adv-x="430" 
d="M59 28h-9q-11 0 -19 2q-31 12 -31 46q0 27 39 157q92 308 148 509q66 236 94 447q8 60 15 77q4 10 10 14q11 7 117 7q27 -2 33 -6q11 -7 15 -13.5t4 -13.5q0 -35 -33 -35q-12 -1 -36 -1.5t-50 -1.5l-12 -84q-19 -134 -56.5 -286t-116.5 -417l-98 -330h5q42 7 53 7
q5 0 6.5 -0.5t14.5 -11.5q2 -4 2 -7.5t3 -3.5t3 -6q0 -18 -6 -26q-19 -23 -95 -23z" />
    <glyph glyph-name="backslash" unicode="\" horiz-adv-x="543" 
d="M553 109q-13 0 -21 10q-15 18 -51 74q-185 288 -314 621q-48 126 -113 282q-54 134 -54 162q0 19 12.5 26.5t25.5 7.5q5 0 5 -3.5t4 -3.5q12 0 31 -57q12 -33 91 -227l74 -188q47 -122 127 -282q86 -172 201 -349q18 -23 18 -37q0 -36 -36 -36z" />
    <glyph glyph-name="bracketright" unicode="]" horiz-adv-x="525" 
d="M150 37q-15 1 -36 2t-38.5 3t-30.5 3t-17 1.5t-11 6.5t-12 14t-5 14q0 10 3.5 10t3.5 5.5t15 15.5q2 1 14 1l127 -7q49 199 88 326q33 111 101 312q148 440 148 524q-68 -3 -86 -3q-34 0 -41.5 5t-12 14.5t-4.5 14.5q0 18 16 28t114 10q41 0 51 -5q33 -15 33 -65
q0 -96 -151 -543q-110 -329 -172 -572q-16 -64 -26 -86q-14 -23 -41 -27q-9 -2 -30 -2z" />
    <glyph glyph-name="asciicircum" unicode="^" horiz-adv-x="164" 
d="M169 1211q-45 0 -48 68q-3 35 -6 35q-2 0 -10.5 -9.5t-19 -24.5t-16.5 -27q-15 -26 -37 -26q-30 0 -32 40q0 11 11 28q74 108 102 122q10 5 20 5q26 0 41 -27q6 -13 12 -68.5t10 -57.5t9 -14q4 -7 4 -12q0 -4 -4 -11q-8 -21 -36 -21z" />
    <glyph glyph-name="underscore" unicode="_" horiz-adv-x="702" 
d="M34 301q-17 0 -23 9q-11 16 -11 25q0 5 5 11q9 22 52 29q167 32 424 32q206 0 251 -23q15 -8 15 -29q0 -20 -13 -26q-8 -4 -10 -6t-7 -2q-9 0 -31 4q-74 12 -210 12q-117 0 -232.5 -9t-178.5 -23q-18 -4 -31 -4z" />
    <glyph glyph-name="grave" unicode="`" horiz-adv-x="84" 
d="M94 1286q-23 0 -74 57q-20 24 -20 41q0 31 30 32l15 2l64 -64q20 -23 20 -36q0 -8 -2.5 -8t-5.5 -8q-5 -16 -27 -16z" />
    <glyph glyph-name="a" unicode="a" horiz-adv-x="511" 
d="M-4 415q-26 0 -39 16q-16 19 -16 54q0 37 9 72q21 76 59 147q91 172 196 172h8q78 0 84 -71q2 -20 5 -20q1 0 3 1.5t9 2t15 0.5q40 0 40 -42q0 -18 -10 -63q-20 -82 -20 -122q0 -43 24 -43q29 0 85 69q38 49 49.5 75.5t22.5 26.5q10 0 20 -6t13 -11.5t3 -15.5
q-4 -65 -87 -148q-33 -34 -60 -48q-23 -12 -50 -12q-35 0 -57 24q-33 32 -33 98q0 40 15 103l-34 -34l-51 -54q-108 -116 -141.5 -143.5t-61.5 -27.5zM12 496q1 0 16.5 14.5t37 36.5t41.5 42.5t28.5 30t24 26t31.5 33.5t32 35q2 14 2.5 26.5t1.5 25.5t1 21q0 14 -3.5 17
t-15.5 3q-29 0 -64.5 -32t-69.5 -95.5t-55 -135.5q-9 -35 -9 -44q0 -4 1 -4z" />
    <glyph glyph-name="b" unicode="b" horiz-adv-x="441" 
d="M-11 377h-9q-10 0 -18.5 6t-11 11.5t-2.5 30.5q0 31 8 58q17 61 30 134q41 218 99 454q22 84 22 94.5t12 22.5q4 4 8 4t4 3t7 3q11 0 20 -6q19 -11 19 -32q0 -16 -33 -146q-41 -172 -66 -292v-1q0 -1 1 -1q5 0 36 31q91 89 160 94l23 1q64 0 93 -56q10 -20 10 -53
q0 -35 -7 -52q-64 -172 -237 -238q-30 -11 -67 -11q-35 0 -63 10l-4 -20q-8 -46 -34 -49zM87 505q15 0 35 4q66 19 124 72q47 47 66.5 89.5t19.5 67.5q0 40 -36 40q-66 0 -156 -101q-63 -72 -98 -157q21 -15 45 -15z" />
    <glyph glyph-name="c" unicode="c" horiz-adv-x="347" 
d="M88 379h-12q-21 0 -26 2q-79 25 -79 146q0 46 13 102q24 109 84 197q61 81 116 81q71 0 71 -108q0 -33 -6 -47.5t-32 -14.5q-14 0 -21 9q-10 12 -10 50.5t-8 38.5q-5 0 -13 -6q-49 -40 -84.5 -126.5t-38.5 -174.5q0 -34 3 -44q8 -36 34 -36q86 0 234 204q27 37 44 37
q6 0 15 -5.5t14.5 -13t5.5 -16.5q0 -11 -11 -28q-115 -169 -228 -229q-34 -16 -42.5 -17t-22.5 -1z" />
    <glyph glyph-name="d" unicode="d" horiz-adv-x="378" 
d="M251 315h-12q-15 0 -26 15q-8 11 -8 18.5t-2.5 10.5t-2.5 44q0 35 3 77q1 23 4 32l1 3q0 3 -3 3t-3 -4.5t-24 -35.5q-70 -90 -129 -90q-44 0 -66 38q-9 14 -9 22q0 4 -1 7q-5 8 -5 43q0 29 3 68t21 95q10 31 19.5 52t9.5 22q0 7 32 56q65 109 146 119q8 0 18.5 -2.5
t20.5 -6t16.5 -8t11.5 -6.5t6 -2q3 1 15 36q35 100 64 162q8 18 10 31q4 20 29 53q16 21 35 21q14 0 26 -13q9 -9 9 -20q0 -13 -24 -59q-35 -68 -67 -161q-45 -127 -68 -259q-27 -161 -29 -270q0 -34 6.5 -43t6.5 -17q0 -7 -4 -14q-9 -15 -30 -17zM52 453q8 0 22 12
q70 62 134 223q14 40 22 61.5t12 33t7 21.5q-31 36 -37.5 37.5t-10.5 1.5q-18 0 -66 -51q-7 -8 -7 -10t-14 -23q-27 -43 -47 -99q-27 -76 -27 -151q0 -56 12 -56z" />
    <glyph glyph-name="e" unicode="e" horiz-adv-x="407" 
d="M100 426q-37 0 -70 17q-28 14 -44 39q-12 19 -15 31t-3 56q0 50 27 113q42 98 108 153q24 20 42.5 28t51.5 8q13 0 25 -8q27 -14 29 -47q-1 -32 -37 -81t-88 -90q-28 -22 -53 -22l-26 3q-11 -48 -11 -68q0 -62 68 -62q46 0 117 34q46 24 92 61t67 66q10 14 16 20t12 8
t11 2q31 0 33 -34q-2 -31 -53 -80t-125 -93q-96 -54 -174 -54zM84 702q4 0 26.5 21t38.5 41q21 26 21 31q0 1 -1 1q-6 0 -33 -25q-20 -20 -43 -52q-10 -13 -10 -17h1z" />
    <glyph glyph-name="f" unicode="f" horiz-adv-x="340" 
d="M-8 130q-35 0 -49 40q-12 29 -12 95q0 94 23 221q26 146 74 291q85 255 159 255q14 0 26 -9.5t16 -22t4 -39.5q0 -30 -5 -44t-18 -20q-7 -4 -14 -4q-12 0 -23 11q-7 6 -7 10.5t-2 4.5q-8 0 -43 -92q-21 -53 -49 -146q-20 -67 -20 -73l125 38q99 32 129 39q17 3 54 3
q25 -4 25 -32q0 -19 -12 -26.5t-51 -13.5q-38 -9 -94 -27q-76 -23 -85 -29q0 -4 5 -12q6 -13 6 -57q-2 -81 -40 -197q-56 -164 -122 -164zM4 222q3 0 17 27q22 45 41 116q23 84 23 137q0 16 -3 23q-5 10 -22 10q-7 0 -12.5 1.5t-6.5 2t-2 0.5q-3 0 -7 -18q-30 -157 -30 -254
v-24q0 -21 2 -21z" />
    <glyph glyph-name="g" unicode="g" horiz-adv-x="380" 
d="M-118 -53q-30 0 -41 4q-34 19 -34 58q0 40 7 63q5 19 22 52q53 104 170 233q61 67 101 105q84 80 88 87l7 35l6 40q0 2 -1 2q-4 0 -82 -108q-81 -115 -112 -126q-15 -7 -29 -7q-16 0 -30 9q-35 21 -35 73q0 73 54 176q60 116 134 166q33 19 56 19q15 0 31 -4
q21 -6 39 -36q9 -17 9 -33.5t3 -19.5t9 -6q17 -8 21.5 -20t4.5 -46l1 -40l29 23q55 44 81 44q20 0 31 -22q3 -7 3 -12q0 -18 -30 -37q-49 -29 -134 -106q-3 -5 -16 -52q-87 -302 -217 -442q-51 -51 -118 -70q-13 -2 -28 -2zM-127 14q19 4 28 7q53 16 96 66q88 109 161 327
q-144 -143 -222 -259q-55 -81 -61 -127zM-14 457q18 17 28 29q21 25 76 103t74 96q6 5 7 17v22q0 30 -2 31.5t-5 1.5q-20 0 -57 -39q-43 -48 -78.5 -120t-42.5 -141z" />
    <glyph glyph-name="h" unicode="h" horiz-adv-x="525" 
d="M11 390h-11q-31 0 -39 42l-1 12q0 42 21 144q24 119 67 268q26 88 105 322q28 80 36 130q6 27 33 27q12 0 23.5 -10t11.5 -34q0 -16 -10 -52t-74 -224q-77 -225 -118 -417l-14 -64q0 -1 1 -1q3 0 15 21q192 315 253 343q12 6 27 6q41 -2 41 -54q0 -31 -14 -117
q-22 -127 -22 -169q0 -37 11 -37q4 0 13 5q54 33 100 90q42 53 48 58q9 9 23 9q33 0 33 -34q0 -4 -1 -8.5t-8.5 -15.5t-24.5 -33q-96 -125 -176 -142h-9q-21 0 -40 12q-22 16 -31 43q-6 21 -6 56q0 63 19 172q8 40 8 51h-1q-9 0 -97 -135q-39 -60 -76 -120q-57 -97 -80 -122
q-17 -20 -36 -22z" />
    <glyph glyph-name="i" unicode="i" horiz-adv-x="309" 
d="M62 395q-18 0 -33 7q-58 28 -58 114q0 85 53 256q20 65 22 75q4 18 11.5 26t24.5 8q26 0 34 -27q1 -4 1 -9q-1 -6 -3.5 -16t-8 -30t-12.5 -41q-50 -160 -51 -233q0 -33 4.5 -45.5t17.5 -12.5q32 0 99 63.5t100 109.5q16 22 25.5 33t16.5 14.5t15 3.5q12 0 23 -10
q4 -5 4 -9t3.5 -4t3.5 -6q0 -11 -7 -24q-20 -36 -95 -116q-82 -89 -134 -113q-31 -14 -56 -14zM106 882q-8 0 -18 7q-14 10 -14 35q0 22 11.5 58.5t24.5 36.5q4 0 4 3.5t10 3.5t10 -2t10 -7q13 -4 13 -13v-10q0 -18 -13 -70q-4 -18 -9 -27q-3 -5 -10 -8q-11 -7 -19 -7z" />
    <glyph glyph-name="j" unicode="j" horiz-adv-x="212" 
d="M-273 -31q-38 0 -59 42q-9 14 -9 27v32q0 70 70 175.5t177 206.5q41 37 45 49.5t22.5 84.5t40.5 160q30 123 41 132q3 3 9 5t10 2.5t6 0.5q22 0 31 -22q3 -5 3 -10t-2.5 -15t-8.5 -30t-14 -51t-14.5 -59t-13 -55.5t-10.5 -43t-8 -31.5q50 38 85 62l72 49q14 9 21 9
q36 0 36 -34q0 -13 -5 -20.5t-72 -51.5q-77 -52 -168 -131l-25 -73q-81 -239 -152 -336q-42 -50 -69 -64q-20 -10 -39 -10zM-267 41q5 0 19 14q47 47 110 190q38 90 38 100v1q-7 0 -65 -73q-71 -91 -92 -151q-16 -42 -16 -63q0 -18 5 -18h1zM84 904q-13 0 -17 6
q-14 16 -14 28q0 18 9 51q6 21 11 33q11 21 33 21q32 0 32 -32q0 -12 -5 -30q-7 -23 -9 -38.5t-5 -15.5t-3 -5q0 -9 -11 -13.5t-21 -4.5z" />
    <glyph glyph-name="k" unicode="k" horiz-adv-x="578" 
d="M-47 351h-6q-28 0 -28 34q0 22 37 150q77 263 189 591q14 38 24 57q12 8 27 8q8 0 18 -10.5t12 -17.5q0 -26 -25 -94q-53 -143 -98 -292v-1l15 15q56 68 112 68q16 0 29 -12q20 -18 20 -49q0 -49 -48 -104q-36 -41 -104 -92q-9 -7 -9 -8q0 -4 32 -34q23 -25 41 -37
q29 -14 63 -14q97 0 250 120q77 61 86 61q5 0 10 -3q23 -11 23 -34q0 -10 -12 -21q-148 -121 -199 -147q-55 -28 -87 -36t-81 -8q-61 2 -96 26q-27 21 -57 53q-16 16 -24.5 28.5t-11.5 12.5q-8 0 -42 -97q-14 -38 -21 -63q-11 -50 -39 -50zM134 697q30 25 44 41q26 32 26 39
q0 1 -1 1q-11 0 -69 -81z" />
    <glyph glyph-name="l" unicode="l" horiz-adv-x="359" 
d="M108 379h-11q-79 0 -96 96q-7 41 -7 94q0 179 73 467q42 164 50.5 177t26.5 13q8 0 14 -3q15 -7 15 -13.5t3 -6.5t3 -6q0 -18 -19 -87q-97 -353 -97 -540q0 -94 19 -114q6 -8 19 -8q6 0 26 4q68 25 192 192q22 30 31.5 38t19.5 8q29 0 34 -32v-4q0 -8 -8 -21
q-6 -10 -20 -29q-134 -183 -219 -215q-23 -9 -49 -10z" />
    <glyph glyph-name="m" unicode="m" horiz-adv-x="902" 
d="M681 365q-7 0 -13 1q-36 11 -51 46q-7 16 -7 60q0 59 26 178l14 62l1 3q0 1 -1 1q-2 0 -16 -16q-71 -79 -118 -102q-24 -10 -44 -10q-70 0 -87 107q-9 50 -17 60q-5 4 -11 4q-24 0 -153 -117q-75 -66 -104 -83q-15 -9 -31 -9q-22 0 -28.5 1.5t-14.5 7.5q-30 24 -30 81
q0 66 28 135q17 41 35 43l12 1q9 0 15 -4q18 -11 18 -39q0 -21 -4 -33q-3 -6 -10 -12q-16 -15 -23 -69q-2 -17 -2 -24q0 -14 4 -14q3 0 10 5q15 10 71 58q116 109 164 133q22 10 42 10q21 0 39 -10q25 -13 37 -35.5t20 -70.5q9 -42 12 -49t11 -7q33 0 147 137q40 47 54 58
q12 7 24 7q25 0 37 -25q4 -7 4 -19q0 -20 -20 -112q-41 -176 -41 -226q0 -43 9 -43q6 0 21 10q24 16 86 98q46 60 74.5 103t40.5 43q23 0 29.5 -9.5t6.5 -18.5q0 -12 -8 -30q-30 -60 -101 -150q-64 -84 -107 -105q-22 -11 -50 -11z" />
    <glyph glyph-name="n" unicode="n" horiz-adv-x="631" 
d="M4 455q-12 0 -20.5 4t-15 17t-6.5 25q0 48 55 247q18 63 18 70.5t8 15.5q14 14 27 14q11 0 22 -11t11 -29q0 -9 -6 -32q-47 -172 -47 -183q2 0 24 27q158 187 237 187q45 0 71 -46q14 -27 24 -80q12 -62 22 -86q13 -36 45 -36q40 0 76 34q43 46 65 71t33 25q5 0 13 -4.5
t13 -18.5q3 -7 3 -14q0 -16 -40 -66q-48 -60 -88.5 -79t-74.5 -19q-46 0 -81 34q-19 20 -30 47t-22 81q-16 86 -30 86q-24 0 -84 -56.5t-134 -147.5q-52 -66 -67 -73q-9 -4 -21 -4z" />
    <glyph glyph-name="o" unicode="o" horiz-adv-x="360" 
d="M73 455h-11q-25 0 -36 4q-58 25 -58 102q0 80 62 178q18 28 59 69q33 33 56 33q13 0 24 -9q4 -3 4.5 -6.5t14.5 -3.5l22 -2q36 0 53 -7q39 -16 58 -52q9 -18 9 -46q-1 -84 -91 -174q-83 -86 -166 -86zM64 523q64 0 132 71q46 49 62 103q3 10 3 19q0 36 -57 36
q-19 0 -39 -5q-30 -5 -37.5 -5t-28.5 -28q-61 -87 -61 -155q0 -28 9 -32t17 -4z" />
    <glyph glyph-name="p" unicode="p" horiz-adv-x="350" 
d="M-60 39q-7 0 -14 4q-15 8 -22 29q-2 12 -2 60q0 58 5 106q6 57 20.5 137t23.5 117q2 7 2 11q-1 3 -5 7q-19 19 -19 40q0 34 32 34q12 0 12 5q3 5 20.5 72.5t39.5 133.5q16 49 22 60q12 18 29 18q12 0 23.5 -11.5t11.5 -22.5q0 -12 -12 -44l-11 -32l15 9q41 27 71 31.5
t43 4.5q29 0 51 -10q44 -20 44 -74q0 -26 -2 -36q-15 -54 -77 -115q-46 -46 -100 -71q-50 -25 -96 -25h-25q-50 -228 -50 -340q0 -24 2.5 -41t2.5 -23t-6 -16t-17 -14q-7 -4 -12 -4zM41 544q13 0 43 11q61 21 112 72t57 94q0 4 -1 7q-5 11 -27 11q-30 0 -71 -22
q-56 -34 -83 -68q-15 -21 -23 -56l-11 -45q0 -3 4 -4z" />
    <glyph glyph-name="q" unicode="q" horiz-adv-x="494" 
d="M127 13q-15 0 -25 10t-13 20q-2 5 -2 16q0 73 14 163q31 183 41 218l1 3q0 1 -1 1t-5.5 -1.5t-11.5 -2.5t-13 -1q-5 0 -5 3t-5.5 3t-12 10t-6.5 19.5t-2 9.5q-33 -16 -45 -16q-35 0 -57 46q-8 18 -8 47q0 41 10 73q62 189 188 220q11 2 21 2q29 0 59 -20l4 -1q4 0 9 4
q10 5 17 5q9 -1 18 -7.5t13.5 -14t4.5 -20.5q0 -28 -39 -147q-17 -51 -17 -58l73 35q57 30 87 41q36 12 82 16q7 0 11.5 -1t9.5 -4q17 -11 17 -28q0 -8 -3 -17q-7 -17 -53 -23q-37 -3 -127 -50q-17 -8 -43 -22q-17 -9 -17 -14q0 -3 2 -7.5t2 -23.5q0 -67 -36 -200
q-23 -79 -54 -161t-47 -105q-17 -20 -36 -20zM185 285q2 0 17 58q7 26 13.5 58t10.5 54.5t4 30.5v4q-4 0 -21 -75q-24 -106 -24 -129v-1zM123 524l13 9l36 22q18 60 18 62q-1 0 -8 -9.5t-18.5 -25.5t-21.5 -30t-15 -20t-5 -7zM42 546q11 0 101 130q64 93 64 100q0 10 -18 10
q-48 0 -95 -73q-43 -64 -53 -132l-1 -19q0 -16 2 -16z" />
    <glyph glyph-name="r" unicode="r" horiz-adv-x="407" 
d="M62 144q-18 0 -34.5 16.5t-20.5 33.5q-3 10 -3 47q0 49 16 108q10 36 30 101q40 131 40 158q0 10 -2 13t-9.5 5t-18.5 4q-60 12 -60 53q0 30 41 92q43 66 67 66q14 0 24.5 -11.5t10.5 -18.5q0 -18 -17 -38q-28 -32 -49 -75l16 -2q32 -6 52 -34q15 -20 15 -52
q0 -43 -35 -154q-52 -170 -52 -211v-28q32 25 81 88q95 124 212 326q7 14 20.5 36.5t29.5 22.5q7 0 16 -4q20 -10 20 -25q0 -4 -2 -9q-66 -137 -136 -242q-155 -233 -213 -256q-19 -10 -39 -10z" />
    <glyph glyph-name="s" unicode="s" horiz-adv-x="407" 
d="M30 261q-11 0 -22 4q-37 16 -37 57q0 82 154 210q38 31 38 33q0 6 -87 15q-46 3 -64 12q-29 18 -29 45q0 44 101 149q52 53 83 57q8 1 10.5 4t4.5 12q4 16 14.5 27t21.5 11q10 0 20 -6.5t10 -12t3 -5.5t3 -6q0 -14 -5 -30q-9 -31 -9 -44q0 -7 12 -18t12 -18
q0 -22 -15 -33.5t-33 -11.5q-34 0 -48 47q-1 5 -4 5q-4 0 -27 -23q-36 -36 -61 -70q-11 -15 -11 -18q0 -4 18 -4q67 -3 105 -17q7 -4 15.5 -8t23.5 -16q137 83 193 83q25 0 32 -31v-5q0 -12 -9.5 -19.5t-69 -29.5t-119.5 -63v-17q0 -55 -52 -136q-46 -68 -93 -98.5
t-79 -30.5zM44 334q5 0 31 20q59 46 90 110q7 13 7 15v1q-3 0 -33 -27q-39 -36 -63 -65q-33 -40 -33 -53q0 -1 1 -1z" />
    <glyph glyph-name="t" unicode="t" horiz-adv-x="526" 
d="M101 322q-30 0 -50 10q-72 32 -72 160q0 76 11 137q32 161 114 402q18 51 18 60q0 3 -2 3q-8 0 -39.5 -3.5t-69.5 -7.5q-89 -12 -155 -24q-44 -8 -122 -25q-18 -3 -26 -3q-3 0 -3.5 1.5t-2 3t-3.5 1.5q-7 0 -15 15q-4 7 -4 13q0 18 14.5 27t64.5 20q171 37 393 53
q36 94 46 114q17 35 40 35q26 0 32 -28q0 -17 -31 -89q-7 -17 -9 -26l132 -1q121 -1 194 -9.5t152 -28.5q123 -28 123 -66q0 -10 -6.5 -19.5t-12 -9.5t-5.5 -3t-5 -3q-13 0 -60 17q-165 55 -405 55l-56 -1l-40 -1q-39 -2 -40.5 -6t-11.5 -33q-143 -415 -143 -562
q0 -46 15 -80q7 -19 15 -23.5t28 -4.5q33 0 83 25q80 40 204 154q130 120 146 120q17 0 27 -10q6 -9 8 -22q0 -14 -4 -19l-29 -29l-119 -108q-116 -106 -211 -152q-58 -29 -108 -29z" />
    <glyph glyph-name="u" unicode="u" horiz-adv-x="492" 
d="M29 435q-17 0 -33 16q-10 8 -15 21q-2 5 -4 44q0 30 1 43q4 75 44 205q24 77 40 94q7 6 23 6q20 0 29 -18q5 -10 5 -21q-1 -4 -10.5 -25.5t-22.5 -67.5q-23 -76 -38 -168q-4 -30 -4 -40q3 0 121 160q55 75 78.5 93.5t38.5 18.5q10 0 20 -7t15 -14q8 -13 12 -68
q2 -39 6 -59q8 -17 30 -17q23 0 66 20q30 14 46 28q9 9 22 11q11 0 14 -1q12 -6 21 -21q3 -5 3 -12q0 -37 -106 -81q-30 -11 -72 -11q-18 0 -26 2q-33 6 -55 42q-16 27 -16 59q0 12 -1.5 14.5t-2.5 2.5q-7 0 -36 -40q-55 -75 -59 -82q-61 -84 -88.5 -105.5t-45.5 -21.5z" />
    <glyph glyph-name="v" unicode="v" horiz-adv-x="429" 
d="M51 415q-41 0 -65 44q-8 16 -8.5 33t-0.5 49q0 42 14 101q9 37 26 101q20 67 24 93q3 15 13 26.5t21 11.5q18 0 27.5 -13t9.5 -28q0 -9 -9 -41q-46 -176 -52 -206q-7 -42 -7 -63q0 -13 2 -21q2 -16 6.5 -16.5t6.5 -0.5q8 0 26.5 10t36 24.5t46.5 43.5q104 108 179 255
q19 38 26.5 61.5t7.5 46.5t4 32.5t14.5 14t14.5 4.5t12 -4q15 -6 19 -17t4 -33q0 -30 -1 -42q-6 -41 -70 -153q-41 -70 -87 -129q-135 -171 -218 -182q-15 -2 -22 -2z" />
    <glyph glyph-name="w" unicode="w" horiz-adv-x="597" 
d="M285 430q-49 0 -84 38q-24 25 -35 76l-6 26q-69 -71 -89 -89q-28 -24 -53 -24q-24 0 -40 25q-10 13 -10 45q0 82 40 186.5t81 104.5q16 0 28 -15q7 -9 7 -18q0 -16 -7 -25t-12.5 -9t-18.5 -33q-33 -79 -44 -148q-2 -17 -4 -22q5 0 43 40t55.5 53t34.5 13q49 0 60 -79
q7 -31 14 -47t17 -22t21 -6q49 0 124 85q54 60 91 134q29 61 29 104q0 32 -10 40l-3 1q-1 0 -3.5 -1t-8.5 -2t-12 -1q-32 0 -32 33q0 28 31 37q14 5 27 5q25 0 44 -17q37 -29 37 -94q0 -90 -76 -206q-84 -126 -172 -171q-34 -17 -64 -17z" />
    <glyph glyph-name="x" unicode="x" horiz-adv-x="481" 
d="M-72 408q-38 0 -38 35q0 13 13 35q49 80 115 146l-28 126q-10 47 -13.5 55.5t-9.5 10.5h-1q-10 5 -18 18q-11 17 -11 34q0 12 10 22q13 16 27 16q45 0 67 -71q10 -32 35 -150q154 136 245 180q46 22 60 22q5 0 5 -3t10 -7q13 -7 13 -25t-21 -31q-12 -7 -27 -14
q-99 -48 -216 -155q-45 -41 -45 -47q0 -16 23 -61q10 -20 26.5 -36.5t31 -21.5t30.5 -5q75 0 181 101q17 17 35 38q53 69 64 69q10 0 22.5 -12.5t12.5 -23.5q0 -16 -42 -70q-76 -96 -164 -142q-55 -29 -103 -29q-22 0 -34.5 0.5t-32.5 10.5q-58 23 -95 100q-11 22 -13 22
q-5 0 -26 -29q-33 -43 -46 -65q-22 -41 -42 -43z" />
    <glyph glyph-name="y" unicode="y" horiz-adv-x="557" 
d="M-22 -21q-36 0 -56 38q-6 14 -6 39q0 32 11 68q22 60 61 126q97 153 287 289q40 28 45 40q3 7 4 20l1 9q2 17 2.5 40.5t0 43.5t-4.5 20q-14 0 -100 -68q-111 -87 -156 -87q-43 0 -64 41q-6 16 -6 41q0 57 25 124q27 74 62 74q8 0 15 -4q20 -10 22 -37q0 -15 -13 -26
q-20 -18 -32 -72q-10 -41 -10 -58q0 -6 0.5 -9t4.5 -3q15 1 94 60q73 57 107.5 77.5t57.5 20.5q44 0 63 -55q4 -12 4 -65v-52q127 75 172 75q8 0 14 -3q19 -10 19 -29v-6q-1 -15 -64 -38.5t-155 -85.5q-35 -134 -88 -242q-84 -171 -188 -250q-66 -51 -109 -54zM-12 49
q8 0 28 10q47 22 100 78q81 85 149 251q27 66 27 74l-1 1q-9 0 -86 -69q-172 -155 -215 -310q-7 -26 -7 -31q0 -4 5 -4z" />
    <glyph glyph-name="z" unicode="z" horiz-adv-x="453" 
d="M-137 15q-68 0 -68 78q0 43 23 84q83 158 338 322l53 32q-21 10 -54 10q-40 0 -96 -14q-64 -16 -82 -16q-51 3 -51 43q0 17 19 49q13 21 115 160q27 36 27 41q0 1 -2 1q-3 0 -14 -5t-24.5 -13.5t-21.5 -15.5q-23 -22 -33 -22q-4 0 -10.5 3t-11.5 7t-6 7t-2 5t-3.5 2
t-2.5 6q0 43 83 83q32 15 59 15q44 0 61 -36q6 -12 6 -24q0 -21 -27 -63q-22 -35 -68 -95q-48 -64 -48 -67l37 7q53 13 96 13q69 0 113 -39q56 38 116 77.5t83 39.5q19 0 25 -11.5t6 -19.5t-3 -15t-9 -11.5t-66 -38t-118 -83.5q3 -15 3 -30q0 -67 -61 -170
q-54 -92 -128 -159q-44 -37 -105 -74q-101 -63 -148 -63zM-138 84q22 4 51 18q194 97 281 263q25 46 40 109q-159 -104 -257 -202.5t-113 -172.5z" />
    <glyph glyph-name="braceleft" unicode="{" horiz-adv-x="273" 
d="M55 77q-39 0 -39 114q0 97 34 276q23 116 23 153q0 17 -4 22.5t-20 7.5q-26 2 -41 20q-8 9 -8 25q0 20 37 111q31 74 49.5 127t36.5 122q23 91 41 130t48 68q34 37 61 37q19 0 36 -21q9 -13 9 -21q0 -12 -13 -23t-27 -11q-5 0 -9 -2q-20 -16 -35.5 -45.5t-52.5 -166.5
q-24 -92 -73 -207l-29 -71q0 -2 12 -7q50 -17 50 -99q0 -19 -1.5 -37.5t-6.5 -47t-15 -79.5q-33 -174 -33 -254q0 -21 2 -36q4 -30 4 -53q0 -32 -36 -32z" />
    <glyph glyph-name="bar" unicode="|" horiz-adv-x="236" 
d="M34 60q-10 0 -21.5 10t-12 17t-0.5 12q0 15 10 94q10 88 108 614q21 111 66 299q26 116 26 119q0 7 13 23q4 5 7.5 5t3.5 3t5 4q5 0 11.5 -1.5t12 -5t8.5 -7t3 -5.5t1 -3.5t3.5 -1.5t2.5 -8q0 -22 -22 -108q-51 -211 -113 -546t-72 -431q-4 -41 -9 -57q-8 -26 -31 -26z
" />
    <glyph glyph-name="braceright" unicode="}" horiz-adv-x="279" 
d="M34 65q-12 0 -23 12t-11 23q0 12 21 38q24 31 46.5 94.5t36.5 138.5q13 93 22 180q6 81 40 114q12 11 12 18l-1 5q-3 16 -3 39q0 103 57 335q24 92 24 126q0 18 -3 20.5t-10.5 5.5t-15.5 13t-8 18q0 6 5.5 15t14 14.5t27.5 5.5q60 0 60 -93q0 -42 -30 -162
q-50 -209 -50 -298q0 -26 8.5 -37.5t8.5 -21.5q0 -18 -16 -26q-33 -29 -38 -38q-3 -6 -5 -15v-1q-5 -26 -14 -101q-11 -112 -27 -183q-26 -116 -71 -188q-32 -51 -57 -51z" />
    <glyph glyph-name="asciitilde" unicode="~" horiz-adv-x="225" 
d="M193 609q-31 0 -57 7q-42 12 -56 12q-8 0 -19 -8q-16 -11 -31 -11q-9 0 -18.5 7t-11.5 15v14q1 13 8 21.5t26 20t30 12.5q32 0 66 -9q38 -10 60 -10q15 0 27 8t22 8q10 -1 20.5 -11.5t10.5 -24.5q0 -15 -14 -29t-28 -18t-35 -4z" />
    <glyph glyph-name="exclamdown" unicode="&#xa1;" horiz-adv-x="247" 
d="M255 1068q-11 0 -23 13t-12 24q0 8 5.5 23t12 21.5t22.5 8.5q14 0 22.5 -7t9.5 -17v-15q-1 -23 -6 -30.5t-15 -14t-16 -6.5zM31 307q-28 0 -31 32q0 11 33 97q55 137 89 262q59 204 76 307q9 52 27 56q9 3 15 3q12 0 23 -12t11 -21q0 -18 -22 -117q-64 -281 -150 -493
q-32 -98 -51 -107l-1 -1q-10 -6 -19 -6z" />
    <glyph glyph-name="cent" unicode="&#xa2;" horiz-adv-x="620" 
d="M233 110q-22 0 -27 17q-3 9 -3 23q0 34 7 67h-21q-111 4 -163 103q-17 33 -21.5 58.5t-4.5 76.5q0 49 5 82q8 62 44 153q13 34 35 78q136 273 313 364q15 8 26.5 13.5t15 7t8 20.5t16.5 56q17 61 44 61q24 0 30 -15q2 -9 5 -9t3 -4q0 -10 -11 -43q-15 -45 -15 -53
q0 -3 15 -5q57 -10 81 -57q10 -21 10 -41q0 -29 -15 -34q-8 -2 -8 -5t-10 -3t-10 2.5t-10 6.5t-15 26q-6 33 -40 35l-19 2l-15 -58q-179 -690 -179 -720h1q9 0 67 37t119 93q57 53 79 80l26 28q16 18 24 20q3 1 11 1q35 0 35 -36q0 -7 -5 -14q-10 -16 -53 -60
q-91 -94 -140 -131q-65 -54 -172 -97l-12 -5q-14 -102 -24 -111.5t-27 -9.5zM205 288q13 0 16 1.5t9 23.5l58 243q41 167 62 247q15 56 30 116q37 139 37 143l-9 -3q-35 -17 -88 -72q-42 -42 -70 -78q-175 -246 -181 -454q1 -135 85 -163q12 -4 38 -4h13z" />
    <glyph glyph-name="sterling" unicode="&#xa3;" horiz-adv-x="827" 
d="M172 17q-44 0 -67 6q-66 23 -66 100q0 48 29 132q42 116 104 261q15 32 15 39q0 3 -2 4q-14 0 -66 -4q-57 -4 -78 -4q-23 0 -32 9.5t-9 25.5q0 12 12 22q14 14 209 23q99 217 124 266q35 68 69 120q110 170 236 170q69 0 89 -48q5 -12 5 -24q0 -9 -2 -9t-7 -10
q-6 -14 -27 -14q-20 0 -30 21q-7 16 -27 16q-98 0 -204 -182q-59 -101 -138 -282l-11 -23q0 -3 97 -3q95 -2 165 -6.5t82 -10.5q15 -11 15 -27q0 -34 -38 -34q-21 0 -111 4.5t-162 4.5l-79 1q-136 -321 -155 -403q-5 -21 -5 -35q0 -29 20 -34q11 -3 39 -3q52 0 99 5
q229 29 344 29q76 0 167 -9q60 -6 76 -13q7 -4 13.5 -14t6.5 -16q0 -7 -8 -17t-13.5 -13t-10 -3h-9.5q-13 0 -48 4q-91 12 -196 12q-91 -2 -250 -22q-103 -12 -165 -12z" />
    <glyph glyph-name="currency" unicode="&#xa4;" horiz-adv-x="326" 
d="M303 434q-26 0 -64 55l-10 13q-40 -12 -55 -12q-27 0 -51 16q-10 6 -16 6q-8 0 -28 -8q-10 -5 -18 -11q-18 -12 -27 -12q-29 0 -34 31q0 11 1 14q5 15 30 30q32 21 41 21q2 0 2 26q0 81 54 149l18 23q-9 27 -9 38q0 35 36 35q20 -2 30 -25q6 -11 15 -11t9 -3t6 -4t10 -10
t8 -9q3 0 8 6q11 11 37 27q26 20 38 20q31 0 36 -29q1 -2 1 -5q0 -18 -23 -35q-7 -4 -7 -7q0 -4 3 -10.5t5 -24t2 -37.5q0 -36 -20 -79q-9 -18 -38 -62q-5 -7 -5 -9q0 -3 23 -31q10 -11 17 -21.5l9 -13.5q0 -12 -4 -21q-12 -20 -30 -20zM173 561q12 0 29 8q29 14 52 48
q30 44 30 86q0 15 -11.5 15t-25.5 18q-6 7 -6 11t-3 4t-19 -11q-72 -50 -76 -132q1 -47 30 -47z" />
    <glyph glyph-name="yen" unicode="&#xa5;" horiz-adv-x="759" 
d="M511 -23h-6q-10 0 -18 8q-24 22 -24 90q0 124 31 294l4 25l-36 -5q-42 -9 -63 -9q-7 0 -12.5 3.5t-13.5 17.5q-4 8 -4 12t4 11q6 15 26 23q24 9 101 19q11 1 12 2t13.5 55.5t12.5 58.5h-2q-6 0 -34 -4l-53 -10q-19 -4 -33 -4q-38 0 -38 30q0 16 10 27t81 22q25 5 90 12
q10 37 44 150q53 176 66 214v3l-2 -3q-3 -3 -9 -10.5t-15 -21t-23 -33.5q-211 -303 -322 -411q-103 -103 -176 -103q-26 0 -46 11q-76 41 -76 230q0 146 50 314q24 83 53 154q25 59 41 68q10 6 18 6q6 0 13 -4q25 -12 25 -55q0 -13 -6 -21q-8 -11 -17.5 -15t-19.5 -32
q-85 -227 -85 -402q0 -184 50 -184q92 0 345 349l196 277q53 75 68 89.5t31 14.5q8 0 17 -6q18 -8 18 -29q0 -22 -26 -100q-19 -55 -84 -265q-50 -161 -54 -181h66q63 0 78 -3q11 -2 19 -12t8 -20q0 -11 -12 -25q-5 -6 -10.5 -7.5t-167.5 -1.5l-28 -116l45 -1q132 0 138 -25
q2 -9 5 -9t3 -10t-3 -10t-3 -4t-8 -11t-19 -7h-10q-18 2 -163 6q-38 -232 -38 -317q0 -35 5 -54q4 -12 4 -22q0 -28 -31 -33z" />
    <glyph glyph-name="brokenbar" unicode="&#xa6;" horiz-adv-x="221" 
d="M34 -19h-7q-9 0 -15.5 6t-11.5 10q0 108 24 251q10 62 32 171q7 37 10.5 46t14 16.5t20.5 7.5q11 0 11 -2t6 -4.5t13 -14.5q4 -9 4 -13l-4 -20q-36 -148 -65 -417l-3 -17q-7 -18 -29 -20zM126 533q-21 0 -29 17q-3 5 -3 32q0 72 2 97q2 48 18 136q26 149 65 299
q16 64 22 76q9 13 30 13q35 0 35 -40q0 -9 -4 -16.5t-15.5 -53t-25 -103t-21.5 -102.5q-40 -199 -40 -279l2 -37q0 -12 -5 -20q-10 -19 -31 -19z" />
    <glyph glyph-name="section" unicode="&#xa7;" horiz-adv-x="956" 
d="M357 8q-81 0 -89 1q-212 17 -258 108q-10 18 -10 49q0 48 26 71q8 7 22 7q33 0 33 -33q0 -10 -6 -22.5t-6 -23.5q0 -55 149 -80q39 -6 106 -6q99 0 156 7q195 29 273 81q36 21 36 44q0 34 -95 81q-42 20 -83 34q-7 2 -12 2q-24 -4 -51 -4q-60 0 -60 37q0 5 -2 7.5t-9 6
t-24 9.5q-207 75 -262 136q-42 46 -42 108q0 18 3.5 36.5t12 39.5t18.5 34q5 8 5 11q0 1 -1 1q-9 4 -23 15q-39 29 -39 68q0 60 87 143q203 192 470 245q46 8 102 8q148 0 190 -83q11 -24 11 -47q0 -36 -24 -57q-12 -10 -25 -10q-20 0 -31 21q-4 9 -4 14t5 14q7 13 7 24
q0 37 -76 51q-26 4 -55 4q-69 0 -153 -23q-191 -54 -342 -185q-90 -80 -90 -113q0 -16 20 -25q38 -15 192 -23q160 -8 240 -20q156 -22 252 -71q100 -54 100 -125q0 -96 -207 -182q-36 -16 -81 -32l22 -12q125 -62 125 -139q0 -51 -59 -95q-151 -98 -444 -107zM607 403
q3 0 40 11q114 35 182 73q101 52 101 90q0 17 -20 34q-92 79 -384 103q-65 5 -204 13q-30 1 -34 2h-1q-7 0 -24.5 -11t-29.5 -36q-8 -14 -10 -23t-2 -29q0 -25 6 -38q16 -42 116 -87q70 -33 222 -87z" />
    <glyph glyph-name="copyright" unicode="&#xa9;" horiz-adv-x="1035" 
d="M434 208q-73 0 -105 4q-205 35 -292 208q-37 71 -37 173q0 128 66 260q53 106 130.5 192.5t155.5 127.5q49 24 79 24q29 0 41 -22l5 -9h75q147 0 255 -47q173 -76 243 -219q30 -63 30 -154q0 -55 -19 -111q-70 -202 -283 -330q-171 -97 -344 -97zM418 275q22 0 49 3
q336 43 493 301q50 91 50 176q0 124 -95 212q-135 131 -373 131q-108 0 -190 -39q-24 -13 -33 -13q-7 0 -14 4l-4 1q-5 0 -12 -7.5t-21 -21.5q-104 -113 -159 -244q-38 -101 -38 -188q0 -61 18 -115q64 -163 257 -194q46 -6 72 -6zM448 385q-28 0 -44 5q-93 31 -120 140
q-5 23 -5 60q0 130 85 235.5t189 105.5q65 0 116 -49q28 -28 28 -49q0 -34 -33 -34q-10 0 -14.5 2t-10.5 10q-32 39 -56 45q-14 5 -29 5q-31 0 -67 -20q-69 -40 -104 -113.5t-35 -136.5q0 -77 41 -113q27 -23 61 -23q54 0 111 52q19 18 32 35q20 27 40 27q8 0 8 -3t5 -3
t11.5 -10t6.5 -19q0 -20 -40 -63q-82 -86 -176 -86z" />
    <glyph glyph-name="registered" unicode="&#xae;" horiz-adv-x="1035" 
d="M711 405q-18 0 -33 5q-27 9 -83.5 47.5t-171.5 130.5q-42 -125 -54.5 -142.5t-29.5 -17.5q-8 0 -18 8q-18 12 -18 30q0 20 22 99q18 60 72 261l23 84q11 47 39 47q17 0 29 -14q8 -11 8 -20q0 -10 -35 -128v-1q5 0 25 22q96 95 179 95q76 -4 76 -70q0 -60 -89 -138
q-29 -24 -70.5 -45.5t-70.5 -27.5q-17 -2 -17 -6q0 -5 23 -22q140 -109 190 -127q28 -9 37 -28q3 -6 3 -10q0 -10 -10 -21t-26 -11zM482 696q4 0 27 7q46 15 88.5 47t64.5 68q8 12 8 18t-7 6l-6 -1q-85 -17 -166 -128q-10 -13 -10 -16q0 -1 1 -1zM434 208q-73 0 -105 4
q-205 35 -292 208q-37 71 -37 173q0 128 66 260q53 106 130.5 192.5t155.5 127.5q49 24 79 24q29 0 41 -22l5 -9h75q147 0 255 -47q173 -76 243 -219q30 -63 30 -154q0 -55 -19 -111q-70 -202 -283 -330q-171 -97 -344 -97zM418 275q22 0 49 3q336 43 493 301q50 91 50 176
q0 124 -95 212q-135 131 -373 131q-108 0 -190 -39q-24 -13 -33 -13q-7 0 -14 4l-4 1q-5 0 -12 -7.5t-21 -21.5q-104 -113 -159 -244q-38 -101 -38 -188q0 -61 18 -115q64 -163 257 -194q46 -6 72 -6z" />
    <glyph glyph-name="questiondown" unicode="&#xbf;" horiz-adv-x="1104" 
d="M1040 1367h2q4 0 10 -4q21 -11 21 -33q0 -9 -3 -19q-10 -27 -33 -27q-7 0 -16 3.5t-15 13.5t-6 18l1 6q11 42 39 42zM1012 1224q19 0 32 -11.5t13 -32.5q0 -23 -19 -56q-83 -154 -263 -281q-129 -90 -397 -212q-307 -141 -307 -203q0 -50 218 -84q68 -8 143 -8
q94 0 197 13q292 38 406 144q43 40 45 67q0 22 -57 82q-40 42 -47 55q-32 53 -32 100q0 11 4 19t13.5 15t16.5 7q12 0 23.5 -13t11.5 -27q0 -10 7 -30t15 -33q3 -6 17 -21.5t31 -34.5q39 -40 52.5 -65t13.5 -54q0 -26 -11 -47q-74 -137 -320 -201q-199 -45 -381 -45
q-121 0 -235 20q-200 41 -202 140q0 79 151 168q69 41 200 101q181 85 271 134q186 105 282 221q74 90 74 120q0 4 -2 6.5t-4 2.5t-2 10t3 10t3 6.5t11 12t25 5.5z" />
    <glyph glyph-name="Agrave" unicode="&#xc0;" 
d="M950 1h-17q-37 18 -37 138q0 141 95 433l19 58l-232 1q-224 -2 -325 -8q-289 -20 -303 -31q-7 -7 -24 -27.5t-35.5 -42t-27.5 -33.5q-156 -196 -186 -304q-2 -9 -2 -15q0 -3 9.5 -14t9.5 -22q0 -12 -12.5 -23t-27.5 -11q-50 0 -50 66q1 26 9 51q45 126 186 304
q39 47 44 56q0 2 -8 2l-54 -3q-16 0 -23 5q-17 11 -18 21v11q0 17 14 24q10 5 10 7t19 2q27 0 77 8l58 7l71 75q269 282 550 484q224 159 406 213q34 9 72 9q26 0 42 -7q49 -15 49 -91q0 -69 -41 -188l-163 -464h86q86 0 112 -9t27 -23q0 -34 -35 -34q-16 0 -59 4
q-25 2 -63 2q-37 0 -87 -2q-120 -350 -120 -506q0 -41 8 -62q6 -17 6 -29q0 -27 -29 -32zM236 675q5 1 24.5 2.5t43.5 4.5q193 18 446 18l282 -3l24 70q16 43 67 191q89 251 104 311q11 46 11 80q0 12 -3.5 18.5t-19.5 6.5q-40 0 -126 -35q-203 -80 -464 -293
q-166 -132 -368 -339q-28 -28 -28 -32h7zM1260 1493q-16 0 -21 3q-20 14 -61 54q-18 16 -22 22q-6 10 -6 21q0 17 15 26q11 7 19 7q12 0 64 -46q41 -36 41 -46l1 -9q0 -28 -30 -32z" />
    <glyph glyph-name="Aacute" unicode="&#xc1;" 
d="M950 1h-17q-37 18 -37 138q0 141 95 433l19 58l-232 1q-224 -2 -325 -8q-289 -20 -303 -31q-7 -7 -24 -27.5t-35.5 -42t-27.5 -33.5q-156 -196 -186 -304q-2 -9 -2 -15q0 -3 9.5 -14t9.5 -22q0 -12 -12.5 -23t-27.5 -11q-50 0 -50 66q1 26 9 51q45 126 186 304
q39 47 44 56q0 2 -8 2l-54 -3q-16 0 -23 5q-17 11 -18 21v11q0 17 14 24q10 5 10 7t19 2q27 0 77 8l58 7l71 75q269 282 550 484q224 159 406 213q34 9 72 9q26 0 42 -7q49 -15 49 -91q0 -69 -41 -188l-163 -464h86q86 0 112 -9t27 -23q0 -34 -35 -34q-16 0 -59 4
q-25 2 -63 2q-37 0 -87 -2q-120 -350 -120 -506q0 -41 8 -62q6 -17 6 -29q0 -27 -29 -32zM236 675q5 1 24.5 2.5t43.5 4.5q193 18 446 18l282 -3l24 70q16 43 67 191q89 251 104 311q11 46 11 80q0 12 -3.5 18.5t-19.5 6.5q-40 0 -126 -35q-203 -80 -464 -293
q-166 -132 -368 -339q-28 -28 -28 -32h7zM1275 1484q-8 0 -8 3t-5 3t-11.5 9.5t-6.5 18.5q0 8 3.5 14.5t15 15.5t34.5 26q57 40 74 45t23 5q22 0 32 -24q2 -6 2 -9q0 -9 -7.5 -19.5t-18 -14.5t-53.5 -33q-47 -32 -54 -35q-11 -5 -20 -5z" />
    <glyph glyph-name="Acircumflex" unicode="&#xc2;" 
d="M950 1h-17q-37 18 -37 138q0 141 95 433l19 58l-232 1q-224 -2 -325 -8q-289 -20 -303 -31q-7 -7 -24 -27.5t-35.5 -42t-27.5 -33.5q-156 -196 -186 -304q-2 -9 -2 -15q0 -3 9.5 -14t9.5 -22q0 -12 -12.5 -23t-27.5 -11q-50 0 -50 66q1 26 9 51q45 126 186 304
q39 47 44 56q0 2 -8 2l-54 -3q-16 0 -23 5q-17 11 -18 21v11q0 17 14 24q10 5 10 7t19 2q27 0 77 8l58 7l71 75q269 282 550 484q224 159 406 213q34 9 72 9q26 0 42 -7q49 -15 49 -91q0 -69 -41 -188l-163 -464h86q86 0 112 -9t27 -23q0 -34 -35 -34q-16 0 -59 4
q-25 2 -63 2q-37 0 -87 -2q-120 -350 -120 -506q0 -41 8 -62q6 -17 6 -29q0 -27 -29 -32zM236 675q5 1 24.5 2.5t43.5 4.5q193 18 446 18l282 -3l24 70q16 43 67 191q89 251 104 311q11 46 11 80q0 12 -3.5 18.5t-19.5 6.5q-40 0 -126 -35q-203 -80 -464 -293
q-166 -132 -368 -339q-28 -28 -28 -32h7zM1343 1485q-13 0 -23 6q-15 9 -15 42l1 32q0 8 -2 8q-6 0 -50 -50q-18 -25 -35 -25q-8 0 -23 13q-6 4 -6 7.5t-3 3.5t-3 10q0 12 7 23q11 19 68 71q46 43 77 43q23 0 39 -22q6 -10 6 -22q0 -40 -6 -82q-5 -35 -13 -44q-3 -4 -8.5 -6
t-5.5 -5t-5 -3z" />
    <glyph glyph-name="Atilde" unicode="&#xc3;" 
d="M950 1h-17q-37 18 -37 138q0 141 95 433l19 58l-232 1q-224 -2 -325 -8q-289 -20 -303 -31q-7 -7 -24 -27.5t-35.5 -42t-27.5 -33.5q-156 -196 -186 -304q-2 -9 -2 -15q0 -3 9.5 -14t9.5 -22q0 -12 -12.5 -23t-27.5 -11q-50 0 -50 66q1 26 9 51q45 126 186 304
q39 47 44 56q0 2 -8 2l-54 -3q-16 0 -23 5q-17 11 -18 21v11q0 17 14 24q10 5 10 7t19 2q27 0 77 8l58 7l71 75q269 282 550 484q224 159 406 213q34 9 72 9q26 0 42 -7q49 -15 49 -91q0 -69 -41 -188l-163 -464h86q86 0 112 -9t27 -23q0 -34 -35 -34q-16 0 -59 4
q-25 2 -63 2q-37 0 -87 -2q-120 -350 -120 -506q0 -41 8 -62q6 -17 6 -29q0 -27 -29 -32zM236 675q5 1 24.5 2.5t43.5 4.5q193 18 446 18l282 -3l24 70q16 43 67 191q89 251 104 311q11 46 11 80q0 12 -3.5 18.5t-19.5 6.5q-40 0 -126 -35q-203 -80 -464 -293
q-166 -132 -368 -339q-28 -28 -28 -32h7zM1302 1512q-26 0 -58 5q-17 3 -29 3q-8 0 -13 -3q-10 -5 -19 -5q-10 0 -19 7q-14 15 -14 28q0 20 28 36q13 6 38 6q22 0 54 -5q19 -3 34 -3q32 0 46 13q6 8 10.5 8t4.5 3t5 4l10 -1q30 -8 30 -35q0 -19 -18 -35q-30 -26 -90 -26z
" />
    <glyph glyph-name="Adieresis" unicode="&#xc4;" 
d="M950 1h-17q-37 18 -37 138q0 141 95 433l19 58l-232 1q-224 -2 -325 -8q-289 -20 -303 -31q-7 -7 -24 -27.5t-35.5 -42t-27.5 -33.5q-156 -196 -186 -304q-2 -9 -2 -15q0 -3 9.5 -14t9.5 -22q0 -12 -12.5 -23t-27.5 -11q-50 0 -50 66q1 26 9 51q45 126 186 304
q39 47 44 56q0 2 -8 2l-54 -3q-16 0 -23 5q-17 11 -18 21v11q0 17 14 24q10 5 10 7t19 2q27 0 77 8l58 7l71 75q269 282 550 484q224 159 406 213q34 9 72 9q26 0 42 -7q49 -15 49 -91q0 -69 -41 -188l-163 -464h86q86 0 112 -9t27 -23q0 -34 -35 -34q-16 0 -59 4
q-25 2 -63 2q-37 0 -87 -2q-120 -350 -120 -506q0 -41 8 -62q6 -17 6 -29q0 -27 -29 -32zM236 675q5 1 24.5 2.5t43.5 4.5q193 18 446 18l282 -3l24 70q16 43 67 191q89 251 104 311q11 46 11 80q0 12 -3.5 18.5t-19.5 6.5q-40 0 -126 -35q-203 -80 -464 -293
q-166 -132 -368 -339q-28 -28 -28 -32h7zM1338 1479q-14 0 -16 1q-6 3 -12.5 9t-6.5 34q0 36 22 47q9 5 17 5q9 0 20.5 -11t11.5 -15.5v-6.5l-1 -11q-5 -50 -35 -52zM1227 1489q-11 0 -21 11q-8 7 -10 12t-2 16q0 41 26 53q7 4 12 4q6 0 15 -5q20 -8 20 -32q0 -22 -6 -35
q-12 -24 -34 -24z" />
    <glyph glyph-name="Aring" unicode="&#xc5;" 
d="M950 1h-17q-37 18 -37 138q0 141 95 433l19 58l-232 1q-224 -2 -325 -8q-289 -20 -303 -31q-7 -7 -24 -27.5t-35.5 -42t-27.5 -33.5q-156 -196 -186 -304q-2 -9 -2 -15q0 -3 9.5 -14t9.5 -22q0 -12 -12.5 -23t-27.5 -11q-50 0 -50 66q1 26 9 51q45 126 186 304
q39 47 44 56q0 2 -8 2l-54 -3q-16 0 -23 5q-17 11 -18 21v11q0 17 14 24q10 5 10 7t19 2q27 0 77 8l58 7l71 75q269 282 550 484q224 159 406 213q34 9 72 9q26 0 42 -7q49 -15 49 -91q0 -69 -41 -188l-163 -464h86q86 0 112 -9t27 -23q0 -34 -35 -34q-16 0 -59 4
q-25 2 -63 2q-37 0 -87 -2q-120 -350 -120 -506q0 -41 8 -62q6 -17 6 -29q0 -27 -29 -32zM236 675q5 1 24.5 2.5t43.5 4.5q193 18 446 18l282 -3l24 70q16 43 67 191q89 251 104 311q11 46 11 80q0 12 -3.5 18.5t-19.5 6.5q-40 0 -126 -35q-203 -80 -464 -293
q-166 -132 -368 -339q-28 -28 -28 -32h7zM1291 1457q-23 0 -30 14q-3 3 -3 6.5t-3 3.5t-3 7t-2 8q-2 0 -9 -3t-10 -3q-25 0 -41 31q-12 21 -12 43q0 17 11 37q24 48 91 71q37 13 77 13q89 -12 89 -80q0 -53 -69 -108q-52 -40 -86 -40zM1267 1521q8 0 29 9q27 11 48 32
q31 31 31 41q-3 12 -25 12t-48.5 -9.5t-42.5 -24.5q-10 -9 -10 -16q0 -8 7.5 -23t7.5 -19v-1q0 -1 3 -1z" />
    <glyph glyph-name="AE" unicode="&#xc6;" horiz-adv-x="1876" 
d="M887 631h-109q-224 -2 -325 -8q-289 -20 -303 -31q-7 -7 -24 -27.5t-35.5 -42t-27.5 -33.5q-156 -196 -186 -304q-2 -9 -2 -15q0 -3 9.5 -14t9.5 -22q0 -12 -12.5 -23t-27.5 -11q-50 0 -50 66q1 26 9 51q45 126 186 304q39 47 44 56q0 2 -8 2l-54 -3q-16 0 -23 5
q-17 11 -18 21v11q0 17 14 24q10 5 10 7t19 2q27 0 77 8l58 7l71 75q269 282 550 484q80 56 154 100q2 1 4 3q5 3 12 6q126 71 236 104q34 9 72 9q26 0 42 -7q21 -7 34 -25q163 19 387 19q301 0 512 -33q81 -13 116 -24q48 -16 48 -52q-1 -5 -3 -5t-4.5 -9.5t-15.5 -15.5
q-6 -3 -12 -3q-7 0 -26 6q-78 29 -368 53q-73 4 -192 5q-320 0 -389 -16q-20 -88 -150 -514q-31 -101 -39 -129h33q86 0 112 -9q3 -1 5 -2q151 0 295 -15q29 -3 46 -4.5t27.5 -3.5t15.5 -7q14 -20 14 -31q0 -6 -7 -17.5t-14 -15.5q-2 -2 -5 -3t-10 -1q-33 0 -179 13
q-104 8 -149 8q-112 0 -195 -11q-15 -2 -20 -8.5t-74 -279.5q-26 -106 -26 -120q14 0 33 3q82 10 201 10q88 0 157 -6q142 -13 292 -81q20 -11 54 -21q38 -11 43 -45q0 -8 -3 -8t-5 -9t-10 -13.5t-18 -4.5q-27 0 -85 26q-89 39 -156 57q-106 27 -262 27q-162 0 -247 -17
q-8 -2 -8 -8t6 -19.5t6 -25.5q0 -6 -3 -6t-3 -5q0 -9 -15 -17q-7 -4 -12 -4q-7 0 -14 3q-5 -16 -27 -20h-17q-26 13 -34 76q-116 -34 -131 -49q-4 -5 -6 -9q-9 -24 -44 -24q-17 0 -27 13q-12 12 -12 26q0 50 118 93q41 16 99 31q6 141 95 414v1q-28 -6 -69 -16
q-44 -11 -66.5 -19.5t-34.5 -8.5q-18 0 -28 18q-7 11 -7 20t10 22q18 22 91 42zM1237 1324q-121 -21 -154 -29l-136 -34q-26 -9 -35 -10q-134 -80 -287 -205q-166 -132 -368 -339q-28 -28 -28 -32h7q5 1 24.5 2.5t43.5 4.5q193 18 446 18l282 -3l24 70q16 43 67 191
q89 251 104 311q7 30 10 55z" />
    <glyph glyph-name="Ccedilla" unicode="&#xc7;" horiz-adv-x="819" 
d="M198 3q-44 7 -84 33q-34 21 -56 49q-90 119 -90 333q0 285 154 596q63 127 151 230q172 199 334 199q83 0 144 -54q85 -81 111 -231q2 -13 2 -21q0 -7 -5 -16q-13 -23 -29 -23q-5 0 -15.5 6.5t-13.5 12t-6 16.5t-5 23q-36 177 -101 192t-83 15q-100 0 -226 -114
q-225 -224 -316 -603q-27 -130 -27 -237q0 -35 3 -68q36 -261 194 -261q99 0 215.5 106.5t206.5 280.5q15 33 27 52.5t29 19.5q19 0 31 -22q5 -10 5 -14q-5 -25 -32 -78q-67 -132 -162 -237q-142 -164 -281 -185q-1 -7 -5 -14l-3 -9l10 3q32 8 49 8q50 0 66 -38q5 -12 5 -25
q0 -34 -33 -75q-56 -64 -141 -64q-30 0 -50.5 17.5t-20.5 41.5q0 4 2.5 4t4.5 7t9 9t7 5t12 3q11 0 11 -3.5t3.5 -3.5t6.5 -1q9 -9 20 -9q48 0 88 45q10 11 10 15l-1 2q-16 -2 -43 -10q-38 -11 -63 -11q-18 2 -29 21q-7 11 -7 24q0 17 10 42q4 9 7 16z" />
    <glyph glyph-name="Egrave" unicode="&#xc8;" horiz-adv-x="1025" 
d="M-62 -5q-17 0 -27 13q-12 12 -12 26q0 50 118 93q58 23 152 43q34 159 92 373q7 28 7 36q0 2 -2 2q-30 0 -124 -24q-44 -11 -66.5 -19.5t-34.5 -8.5q-18 0 -28 18q-7 11 -7 20t10 22q35 43 278 76l73 237q22 74 96 314q0 59 5 110q-130 -23 -165 -31l-136 -34
q-33 -11 -39 -11q-3 0 -4 4t-5 4t-11.5 10.5t-7.5 21.5q0 21 17 33q27 16 125 39.5t202 38.5q183 28 456 28q301 0 512 -33q81 -13 116 -24q48 -16 48 -52q-1 -5 -3 -5t-4.5 -9.5t-15.5 -15.5q-6 -3 -12 -3q-7 0 -26 6q-78 29 -368 53q-73 4 -192 5q-320 0 -389 -16
q-20 -88 -150 -514q-42 -136 -42.5 -140t-1.5 -7l42 2q47 5 112 5q151 0 296 -15q29 -3 46 -4.5t27.5 -3.5t15.5 -7q14 -20 14 -31q0 -6 -7 -17.5t-14 -15.5q-2 -2 -5 -3t-10 -1q-33 0 -179 13q-104 8 -149 8q-112 0 -195 -11q-15 -2 -20 -8.5t-74 -279.5q-26 -106 -26 -120
q14 0 33 3q82 10 201 10q88 0 157 -6q142 -13 292 -81q20 -11 54 -21q38 -11 43 -45q0 -8 -3 -8t-5 -9t-10 -13.5t-18 -4.5q-27 0 -85 26q-89 39 -156 57q-106 27 -262 27q-162 0 -247 -17q-8 -2 -8 -8t6 -19.5t6 -25.5q0 -6 -3 -6t-3 -5q0 -9 -15 -17q-7 -4 -12 -4
q-29 0 -42 38q-2 6 -7 33q-156 -43 -174 -61q-4 -5 -6 -9q-9 -24 -44 -24zM998 1479q-16 0 -21 3q-20 14 -61 54q-18 16 -22 22q-6 10 -6 21q0 17 15 26q11 7 19 7q12 0 64 -46q41 -36 41 -46l1 -9q0 -28 -30 -32z" />
    <glyph glyph-name="Eacute" unicode="&#xc9;" horiz-adv-x="1025" 
d="M-62 -5q-17 0 -27 13q-12 12 -12 26q0 50 118 93q58 23 152 43q34 159 92 373q7 28 7 36q0 2 -2 2q-30 0 -124 -24q-44 -11 -66.5 -19.5t-34.5 -8.5q-18 0 -28 18q-7 11 -7 20t10 22q35 43 278 76l73 237q22 74 96 314q0 59 5 110q-130 -23 -165 -31l-136 -34
q-33 -11 -39 -11q-3 0 -4 4t-5 4t-11.5 10.5t-7.5 21.5q0 21 17 33q27 16 125 39.5t202 38.5q183 28 456 28q301 0 512 -33q81 -13 116 -24q48 -16 48 -52q-1 -5 -3 -5t-4.5 -9.5t-15.5 -15.5q-6 -3 -12 -3q-7 0 -26 6q-78 29 -368 53q-73 4 -192 5q-320 0 -389 -16
q-20 -88 -150 -514q-42 -136 -42.5 -140t-1.5 -7l42 2q47 5 112 5q151 0 296 -15q29 -3 46 -4.5t27.5 -3.5t15.5 -7q14 -20 14 -31q0 -6 -7 -17.5t-14 -15.5q-2 -2 -5 -3t-10 -1q-33 0 -179 13q-104 8 -149 8q-112 0 -195 -11q-15 -2 -20 -8.5t-74 -279.5q-26 -106 -26 -120
q14 0 33 3q82 10 201 10q88 0 157 -6q142 -13 292 -81q20 -11 54 -21q38 -11 43 -45q0 -8 -3 -8t-5 -9t-10 -13.5t-18 -4.5q-27 0 -85 26q-89 39 -156 57q-106 27 -262 27q-162 0 -247 -17q-8 -2 -8 -8t6 -19.5t6 -25.5q0 -6 -3 -6t-3 -5q0 -9 -15 -17q-7 -4 -12 -4
q-29 0 -42 38q-2 6 -7 33q-156 -43 -174 -61q-4 -5 -6 -9q-9 -24 -44 -24zM954 1479q-8 0 -8 3t-5 3t-11.5 9.5t-6.5 18.5q0 8 3.5 14.5t15 15.5t34.5 26q57 40 74 45t23 5q22 0 32 -24q2 -6 2 -9q0 -9 -7.5 -19.5t-18 -14.5t-53.5 -33q-47 -32 -54 -35q-11 -5 -20 -5z" />
    <glyph glyph-name="Ecircumflex" unicode="&#xca;" horiz-adv-x="1025" 
d="M-62 -5q-17 0 -27 13q-12 12 -12 26q0 50 118 93q58 23 152 43q34 159 92 373q7 28 7 36q0 2 -2 2q-30 0 -124 -24q-44 -11 -66.5 -19.5t-34.5 -8.5q-18 0 -28 18q-7 11 -7 20t10 22q35 43 278 76l73 237q22 74 96 314q0 59 5 110q-130 -23 -165 -31l-136 -34
q-33 -11 -39 -11q-3 0 -4 4t-5 4t-11.5 10.5t-7.5 21.5q0 21 17 33q27 16 125 39.5t202 38.5q183 28 456 28q301 0 512 -33q81 -13 116 -24q48 -16 48 -52q-1 -5 -3 -5t-4.5 -9.5t-15.5 -15.5q-6 -3 -12 -3q-7 0 -26 6q-78 29 -368 53q-73 4 -192 5q-320 0 -389 -16
q-20 -88 -150 -514q-42 -136 -42.5 -140t-1.5 -7l42 2q47 5 112 5q151 0 296 -15q29 -3 46 -4.5t27.5 -3.5t15.5 -7q14 -20 14 -31q0 -6 -7 -17.5t-14 -15.5q-2 -2 -5 -3t-10 -1q-33 0 -179 13q-104 8 -149 8q-112 0 -195 -11q-15 -2 -20 -8.5t-74 -279.5q-26 -106 -26 -120
q14 0 33 3q82 10 201 10q88 0 157 -6q142 -13 292 -81q20 -11 54 -21q38 -11 43 -45q0 -8 -3 -8t-5 -9t-10 -13.5t-18 -4.5q-27 0 -85 26q-89 39 -156 57q-106 27 -262 27q-162 0 -247 -17q-8 -2 -8 -8t6 -19.5t6 -25.5q0 -6 -3 -6t-3 -5q0 -9 -15 -17q-7 -4 -12 -4
q-29 0 -42 38q-2 6 -7 33q-156 -43 -174 -61q-4 -5 -6 -9q-9 -24 -44 -24zM1054 1471q-13 0 -23 6q-15 9 -15 42l1 32q0 8 -2 8q-6 0 -50 -50q-18 -25 -35 -25q-8 0 -23 13q-6 4 -6 7.5t-3 3.5t-3 10q0 12 7 23q11 19 68 71q46 43 77 43q23 0 39 -22q6 -10 6 -22
q0 -40 -6 -82q-5 -35 -13 -44q-3 -4 -8.5 -6t-5.5 -5t-5 -3z" />
    <glyph glyph-name="Edieresis" unicode="&#xcb;" horiz-adv-x="1025" 
d="M-62 -5q-17 0 -27 13q-12 12 -12 26q0 50 118 93q58 23 152 43q34 159 92 373q7 28 7 36q0 2 -2 2q-30 0 -124 -24q-44 -11 -66.5 -19.5t-34.5 -8.5q-18 0 -28 18q-7 11 -7 20t10 22q35 43 278 76l73 237q22 74 96 314q0 59 5 110q-130 -23 -165 -31l-136 -34
q-33 -11 -39 -11q-3 0 -4 4t-5 4t-11.5 10.5t-7.5 21.5q0 21 17 33q27 16 125 39.5t202 38.5q183 28 456 28q301 0 512 -33q81 -13 116 -24q48 -16 48 -52q-1 -5 -3 -5t-4.5 -9.5t-15.5 -15.5q-6 -3 -12 -3q-7 0 -26 6q-78 29 -368 53q-73 4 -192 5q-320 0 -389 -16
q-20 -88 -150 -514q-42 -136 -42.5 -140t-1.5 -7l42 2q47 5 112 5q151 0 296 -15q29 -3 46 -4.5t27.5 -3.5t15.5 -7q14 -20 14 -31q0 -6 -7 -17.5t-14 -15.5q-2 -2 -5 -3t-10 -1q-33 0 -179 13q-104 8 -149 8q-112 0 -195 -11q-15 -2 -20 -8.5t-74 -279.5q-26 -106 -26 -120
q14 0 33 3q82 10 201 10q88 0 157 -6q142 -13 292 -81q20 -11 54 -21q38 -11 43 -45q0 -8 -3 -8t-5 -9t-10 -13.5t-18 -4.5q-27 0 -85 26q-89 39 -156 57q-106 27 -262 27q-162 0 -247 -17q-8 -2 -8 -8t6 -19.5t6 -25.5q0 -6 -3 -6t-3 -5q0 -9 -15 -17q-7 -4 -12 -4
q-29 0 -42 38q-2 6 -7 33q-156 -43 -174 -61q-4 -5 -6 -9q-9 -24 -44 -24zM1098 1469q-14 0 -16 1q-6 3 -12.5 9t-6.5 34q0 36 22 47q9 5 17 5q9 0 20.5 -11t11.5 -15.5v-6.5l-1 -11q-5 -50 -35 -52zM987 1479q-11 0 -21 11q-8 7 -10 12t-2 16q0 41 26 53q7 4 12 4
q6 0 15 -5q20 -8 20 -32q0 -22 -6 -35q-12 -24 -34 -24z" />
    <glyph glyph-name="Igrave" unicode="&#xcc;" horiz-adv-x="523" 
d="M308 9q-7 0 -14 3.5t-19 24.5t-22 46l-11 28l1 86q0 106 37 269q23 100 68 279q61 238 76 330q10 57 10 102q0 101 -48 141q-19 17 -40 22t-56 5q-45 0 -65 -2q-72 -10 -208 -70q-89 -39 -156 -80q-17 -13 -26 -13q-12 0 -24.5 15.5t-12.5 32.5q0 16 20.5 33t80.5 48
q238 125 383 125q143 0 196 -120q15 -33 20 -61.5t5 -76.5q0 -71 -18 -164t-73 -308q-63 -247 -82 -346.5t-19 -163.5l2 -70q31 -61 31 -74q0 -10 -5 -20q-11 -21 -31 -21zM344 1479q-16 0 -21 3q-20 14 -61 54q-18 16 -22 22q-6 10 -6 21q0 17 15 26q11 7 19 7q12 0 64 -46
q41 -36 41 -46l1 -9q0 -28 -30 -32z" />
    <glyph glyph-name="Iacute" unicode="&#xcd;" horiz-adv-x="523" 
d="M308 9q-7 0 -14 3.5t-19 24.5t-22 46l-11 28l1 86q0 106 37 269q23 100 68 279q61 238 76 330q10 57 10 102q0 101 -48 141q-19 17 -40 22t-56 5q-45 0 -65 -2q-72 -10 -208 -70q-89 -39 -156 -80q-17 -13 -26 -13q-12 0 -24.5 15.5t-12.5 32.5q0 16 20.5 33t80.5 48
q238 125 383 125q143 0 196 -120q15 -33 20 -61.5t5 -76.5q0 -71 -18 -164t-73 -308q-63 -247 -82 -346.5t-19 -163.5l2 -70q31 -61 31 -74q0 -10 -5 -20q-11 -21 -31 -21zM381 1479q-8 0 -8 3t-5 3t-11.5 9.5t-6.5 18.5q0 8 3.5 14.5t15 15.5t34.5 26q57 40 74 45t23 5
q22 0 32 -24q2 -6 2 -9q0 -9 -7.5 -19.5t-18 -14.5t-53.5 -33q-47 -32 -54 -35q-11 -5 -20 -5z" />
    <glyph glyph-name="Icircumflex" unicode="&#xce;" horiz-adv-x="523" 
d="M308 9q-7 0 -14 3.5t-19 24.5t-22 46l-11 28l1 86q0 106 37 269q23 100 68 279q61 238 76 330q10 57 10 102q0 101 -48 141q-19 17 -40 22t-56 5q-45 0 -65 -2q-72 -10 -208 -70q-89 -39 -156 -80q-17 -13 -26 -13q-12 0 -24.5 15.5t-12.5 32.5q0 16 20.5 33t80.5 48
q238 125 383 125q143 0 196 -120q15 -33 20 -61.5t5 -76.5q0 -71 -18 -164t-73 -308q-63 -247 -82 -346.5t-19 -163.5l2 -70q31 -61 31 -74q0 -10 -5 -20q-11 -21 -31 -21zM436 1466q-13 0 -23 6q-15 9 -15 42l1 32q0 8 -2 8q-6 0 -50 -50q-18 -25 -35 -25q-8 0 -23 13
q-6 4 -6 7.5t-3 3.5t-3 10q0 12 7 23q11 19 68 71q46 43 77 43q23 0 39 -22q6 -10 6 -22q0 -40 -6 -82q-5 -35 -13 -44q-3 -4 -8.5 -6t-5.5 -5t-5 -3z" />
    <glyph glyph-name="Idieresis" unicode="&#xcf;" horiz-adv-x="523" 
d="M308 9q-7 0 -14 3.5t-19 24.5t-22 46l-11 28l1 86q0 106 37 269q23 100 68 279q61 238 76 330q10 57 10 102q0 101 -48 141q-19 17 -40 22t-56 5q-45 0 -65 -2q-72 -10 -208 -70q-89 -39 -156 -80q-17 -13 -26 -13q-12 0 -24.5 15.5t-12.5 32.5q0 16 20.5 33t80.5 48
q238 125 383 125q143 0 196 -120q15 -33 20 -61.5t5 -76.5q0 -71 -18 -164t-73 -308q-63 -247 -82 -346.5t-19 -163.5l2 -70q31 -61 31 -74q0 -10 -5 -20q-11 -21 -31 -21zM444 1455q-14 0 -16 1q-6 3 -12.5 9t-6.5 34q0 36 22 47q9 5 17 5q9 0 20.5 -11t11.5 -15.5v-6.5
l-1 -11q-5 -50 -35 -52zM333 1465q-11 0 -21 11q-8 7 -10 12t-2 16q0 41 26 53q7 4 12 4q6 0 15 -5q20 -8 20 -32q0 -22 -6 -35q-12 -24 -34 -24z" />
    <glyph glyph-name="Eth" unicode="&#xd0;" horiz-adv-x="1066" 
d="M-82 0q-41 0 -52 3q-45 12 -60 57q-4 13 -4 24q0 17 9 28.5t26 11.5q29 0 33 -28q2 -16 23 -18q14 -2 42 -2q109 0 338 118q226 112 394 254q374 313 374 615q0 59 -8 98q-49 195 -320 197q-201 -1 -411 -93q-136 -60 -211 -139q-32 -32 -38.5 -36.5t-13.5 -4.5t-7 3.5
t-5.5 3.5t-12 11.5t-6.5 22.5q0 27 51 74.5t127 91.5q179 101 396 135q56 7 129 7q72 0 117 -7q283 -60 283 -357q0 -378 -473 -741q-166 -127 -391 -233q-187 -90 -289 -95zM224 663q-12 -42 -23 -83q-65 -239 -65 -297q0 -10 3 -19t3 -14q0 -11 -10 -24q-4 -5 -8.5 -5.5
t-4.5 -4.5t-6 -4q-45 0 -45 65q0 37 6 72q16 96 76 310q-188 -9 -212 -30q-11 -9 -18 -9q-17 0 -22 10q-1 4 -2 4l-3 -1q-6 0 -6 19q0 46 102 64q62 10 181 15q100 346 129 398q11 15 25 15q15 0 28 -13q9 -8 9 -44q0 -13 -3 -13q-8 0 -45 -116q-37 -113 -69 -224
q106 3 247 3q150 0 183 -8q19 -8 19 -30q0 -10 -4.5 -20.5t-33.5 -20.5l-8 -2q-3 0 -3 1q-3 10 -206 10q-109 0 -214 -4z" />
    <glyph glyph-name="Ntilde" unicode="&#xd1;" horiz-adv-x="1021" 
d="M939 0h-4q-37 0 -74 81q-24 52 -33.5 106.5t-9.5 148.5q0 114 12 229q13 124 50 357q36 244 39 278q2 27 2 67q0 41 -1 52q-1 17 -8 17q-5 0 -14 -5q-113 -55 -461 -580q-153 -231 -205 -298q-91 -115 -160 -115q-86 5 -86 155q0 203 109 603q28 107 83 266
q20 61 25 68.5t23 7.5q32 0 32 -36q0 -17 -38 -138q-62 -190 -102 -363q-65 -279 -65 -403q0 -49 10 -74q4 -11 12 -11q35 0 108 95q56 72 168 241q352 535 479 625q51 38 88 38q76 0 76 -130q0 -84 -31 -278q-58 -388 -71 -526q-3 -52 -3 -137t3 -115q17 -100 54 -152
q20 -27 21 -37q0 -8 -11 -25q-5 -6 -9 -6t-4 -3t-4 -3zM670 1466q-26 0 -58 5q-17 3 -29 3q-8 0 -13 -3q-10 -5 -19 -5q-10 0 -19 7q-14 15 -14 28q0 20 28 36q13 6 38 6q22 0 54 -5q19 -3 34 -3q32 0 46 13q6 8 10.5 8t4.5 3t5 4l10 -1q30 -8 30 -35q0 -19 -18 -35
q-30 -26 -90 -26z" />
    <glyph glyph-name="Ograve" unicode="&#xd2;" horiz-adv-x="876" 
d="M260 7h-9q-161 0 -235 189q-27 74 -33 201q-1 14 -1 32q0 94 8 156q0 2 8.5 69t13.5 85q66 296 179 423q40 42 73 42q22 0 41 -21q11 -12 14 -21q0 -6 4 -6q3 0 20 31q89 144 211 211q19 10 46 18q46 16 86 16q60 0 113 -32q15 -9 30 -24q86 -85 91 -227l1 -60
q-1 -42 -4 -66q-6 -56 -30 -156q-22 -87 -39 -134l-23 -61q-95 -250 -250 -443q-64 -79 -123 -129q-7 -7 -7.5 -9t-4.5 -2t-7 -3q-3 -8 -37.5 -30t-84.5 -38q-31 -10 -51 -11zM244 82q33 0 88 20q48 27 100 75q109 102 210 270q175 302 209 594q3 21 3 65t-2 62
q-24 150 -119 185q-13 4 -42 4q-56 0 -102 -24q-149 -76 -240 -282q-95 -214 -95 -355q0 -17 1 -26t3 -14.5t6 -11.5q8 -12 8 -24q0 -14 -10.5 -25t-21.5 -11q-8 0 -17 6q-35 22 -35 106q0 160 104 395q-21 12 -27.5 23.5t-10.5 11.5q-8 0 -40 -46q-45 -65 -81 -165
q-55 -144 -77 -325q-7 -57 -7 -179q0 -36 4 -71q7 -42 7 -55q5 -26 26 -77q9 -22 9 -26q29 -50 66 -78q33 -22 83 -22zM723 1479q-16 0 -21 3q-20 14 -61 54q-18 16 -22 22q-6 10 -6 21q0 17 15 26q11 7 19 7q12 0 64 -46q41 -36 41 -46l1 -9q0 -28 -30 -32z" />
    <glyph glyph-name="Oacute" unicode="&#xd3;" horiz-adv-x="875" 
d="M260 7h-9q-161 0 -235 189q-27 74 -33 201q-1 14 -1 32q0 94 8 156q0 2 8.5 69t13.5 85q66 296 179 423q40 42 73 42q22 0 41 -21q11 -12 14 -21q0 -6 4 -6q3 0 20 31q89 144 211 211q19 10 46 18q46 16 86 16q60 0 113 -32q15 -9 30 -24q86 -85 91 -227l1 -60
q-1 -42 -4 -66q-6 -56 -30 -156q-22 -87 -39 -134l-23 -61q-95 -250 -250 -443q-64 -79 -123 -129q-7 -7 -7.5 -9t-4.5 -2t-7 -3q-3 -8 -37.5 -30t-84.5 -38q-31 -10 -51 -11zM244 82q33 0 88 20q48 27 100 75q109 102 210 270q175 302 209 594q3 21 3 65t-2 62
q-24 150 -119 185q-13 4 -42 4q-56 0 -102 -24q-149 -76 -240 -282q-95 -214 -95 -355q0 -17 1 -26t3 -14.5t6 -11.5q8 -12 8 -24q0 -14 -10.5 -25t-21.5 -11q-8 0 -17 6q-35 22 -35 106q0 160 104 395q-21 12 -27.5 23.5t-10.5 11.5q-8 0 -40 -46q-45 -65 -81 -165
q-55 -144 -77 -325q-7 -57 -7 -179q0 -36 4 -71q7 -42 7 -55q5 -26 26 -77q9 -22 9 -26q29 -50 66 -78q33 -22 83 -22zM738 1493q-8 0 -8 3t-5 3t-11.5 9.5t-6.5 18.5q0 8 3.5 14.5t15 15.5t34.5 26q57 40 74 45t23 5q22 0 32 -24q2 -6 2 -9q0 -9 -7.5 -19.5t-18 -14.5
t-53.5 -33q-47 -32 -54 -35q-11 -5 -20 -5z" />
    <glyph glyph-name="Ocircumflex" unicode="&#xd4;" horiz-adv-x="876" 
d="M260 7h-9q-161 0 -235 189q-27 74 -33 201q-1 14 -1 32q0 94 8 156q0 2 8.5 69t13.5 85q66 296 179 423q40 42 73 42q22 0 41 -21q11 -12 14 -21q0 -6 4 -6q3 0 20 31q89 144 211 211q19 10 46 18q46 16 86 16q60 0 113 -32q15 -9 30 -24q86 -85 91 -227l1 -60
q-1 -42 -4 -66q-6 -56 -30 -156q-22 -87 -39 -134l-23 -61q-95 -250 -250 -443q-64 -79 -123 -129q-7 -7 -7.5 -9t-4.5 -2t-7 -3q-3 -8 -37.5 -30t-84.5 -38q-31 -10 -51 -11zM244 82q33 0 88 20q48 27 100 75q109 102 210 270q175 302 209 594q3 21 3 65t-2 62
q-24 150 -119 185q-13 4 -42 4q-56 0 -102 -24q-149 -76 -240 -282q-95 -214 -95 -355q0 -17 1 -26t3 -14.5t6 -11.5q8 -12 8 -24q0 -14 -10.5 -25t-21.5 -11q-8 0 -17 6q-35 22 -35 106q0 160 104 395q-21 12 -27.5 23.5t-10.5 11.5q-8 0 -40 -46q-45 -65 -81 -165
q-55 -144 -77 -325q-7 -57 -7 -179q0 -36 4 -71q7 -42 7 -55q5 -26 26 -77q9 -22 9 -26q29 -50 66 -78q33 -22 83 -22zM802 1462q-13 0 -23 6q-15 9 -15 42l1 32q0 8 -2 8q-6 0 -50 -50q-18 -25 -35 -25q-8 0 -23 13q-6 4 -6 7.5t-3 3.5t-3 10q0 12 7 23q11 19 68 71
q46 43 77 43q23 0 39 -22q6 -10 6 -22q0 -40 -6 -82q-5 -35 -13 -44q-3 -4 -8.5 -6t-5.5 -5t-5 -3z" />
    <glyph glyph-name="Otilde" unicode="&#xd5;" horiz-adv-x="876" 
d="M260 7h-9q-161 0 -235 189q-27 74 -33 201q-1 14 -1 32q0 94 8 156q0 2 8.5 69t13.5 85q66 296 179 423q40 42 73 42q22 0 41 -21q11 -12 14 -21q0 -6 4 -6q3 0 20 31q89 144 211 211q19 10 46 18q46 16 86 16q60 0 113 -32q15 -9 30 -24q86 -85 91 -227l1 -60
q-1 -42 -4 -66q-6 -56 -30 -156q-22 -87 -39 -134l-23 -61q-95 -250 -250 -443q-64 -79 -123 -129q-7 -7 -7.5 -9t-4.5 -2t-7 -3q-3 -8 -37.5 -30t-84.5 -38q-31 -10 -51 -11zM244 82q33 0 88 20q48 27 100 75q109 102 210 270q175 302 209 594q3 21 3 65t-2 62
q-24 150 -119 185q-13 4 -42 4q-56 0 -102 -24q-149 -76 -240 -282q-95 -214 -95 -355q0 -17 1 -26t3 -14.5t6 -11.5q8 -12 8 -24q0 -14 -10.5 -25t-21.5 -11q-8 0 -17 6q-35 22 -35 106q0 160 104 395q-21 12 -27.5 23.5t-10.5 11.5q-8 0 -40 -46q-45 -65 -81 -165
q-55 -144 -77 -325q-7 -57 -7 -179q0 -36 4 -71q7 -42 7 -55q5 -26 26 -77q9 -22 9 -26q29 -50 66 -78q33 -22 83 -22zM761 1475q-26 0 -58 5q-17 3 -29 3q-8 0 -13 -3q-10 -5 -19 -5q-10 0 -19 7q-14 15 -14 28q0 20 28 36q13 6 38 6q22 0 54 -5q19 -3 34 -3q32 0 46 13
q6 8 10.5 8t4.5 3t5 4l10 -1q30 -8 30 -35q0 -19 -18 -35q-30 -26 -90 -26z" />
    <glyph glyph-name="Odieresis" unicode="&#xd6;" horiz-adv-x="876" 
d="M260 7h-9q-161 0 -235 189q-27 74 -33 201q-1 14 -1 32q0 94 8 156q0 2 8.5 69t13.5 85q66 296 179 423q40 42 73 42q22 0 41 -21q11 -12 14 -21q0 -6 4 -6q3 0 20 31q89 144 211 211q19 10 46 18q46 16 86 16q60 0 113 -32q15 -9 30 -24q86 -85 91 -227l1 -60
q-1 -42 -4 -66q-6 -56 -30 -156q-22 -87 -39 -134l-23 -61q-95 -250 -250 -443q-64 -79 -123 -129q-7 -7 -7.5 -9t-4.5 -2t-7 -3q-3 -8 -37.5 -30t-84.5 -38q-31 -10 -51 -11zM244 82q33 0 88 20q48 27 100 75q109 102 210 270q175 302 209 594q3 21 3 65t-2 62
q-24 150 -119 185q-13 4 -42 4q-56 0 -102 -24q-149 -76 -240 -282q-95 -214 -95 -355q0 -17 1 -26t3 -14.5t6 -11.5q8 -12 8 -24q0 -14 -10.5 -25t-21.5 -11q-8 0 -17 6q-35 22 -35 106q0 160 104 395q-21 12 -27.5 23.5t-10.5 11.5q-8 0 -40 -46q-45 -65 -81 -165
q-55 -144 -77 -325q-7 -57 -7 -179q0 -36 4 -71q7 -42 7 -55q5 -26 26 -77q9 -22 9 -26q29 -50 66 -78q33 -22 83 -22zM779 1478q-14 0 -16 1q-6 3 -12.5 9t-6.5 34q0 36 22 47q9 5 17 5q9 0 20.5 -11t11.5 -15.5v-6.5l-1 -11q-5 -50 -35 -52zM668 1488q-11 0 -21 11
q-8 7 -10 12t-2 16q0 41 26 53q7 4 12 4q6 0 15 -5q20 -8 20 -32q0 -22 -6 -35q-12 -24 -34 -24z" />
    <glyph glyph-name="multiply" unicode="&#xd7;" horiz-adv-x="443" 
d="M315 479q-3 0 -15 6q-11 8 -50 64q-37 58 -43 58q-8 -3 -32.5 -19t-52 -36.5t-44 -36t-26.5 -23t-14 -8.5t-7 -1q-4 0 -8 2q-23 9 -23 38q0 8 7 19q14 18 55 51q43 35 114 78q-62 124 -62 137q0 10 11.5 21.5t23.5 11.5q10 0 19 -7t37.5 -66.5t30.5 -59.5q4 0 56 27
t102 48t62 21t22.5 -11t10.5 -19q0 -9 -4 -18q-5 -15 -55 -33q-81 -34 -159 -79q53 -79 66.5 -100.5t13.5 -28.5q0 -11 -11 -23t-25 -13z" />
    <glyph glyph-name="Oslash" unicode="&#xd8;" horiz-adv-x="876" 
d="M93 189q2 -5 2 -7q29 -50 66 -78q33 -22 83 -22q33 0 88 20q48 27 100 75q109 102 210 270q175 302 209 594q3 21 3 65t-2 62q-3 19 -7 36q-247 -263 -496 -614q-170 -238 -256 -401zM62 277q102 181 296 444q226 307 454 548l6 7q-31 57 -85 77q-13 4 -42 4
q-56 0 -102 -24q-149 -76 -240 -282q-95 -214 -95 -355q0 -17 1 -26t3 -14.5t6 -11.5q8 -12 8 -24q0 -14 -10.5 -25t-21.5 -11q-8 0 -17 6q-35 22 -35 106q0 160 104 395q-21 12 -27.5 23.5t-10.5 11.5q-8 0 -40 -46q-45 -65 -81 -165q-55 -144 -77 -325q-7 -57 -7 -179
q0 -36 4 -71q7 -42 7 -55zM900 1262q18 -51 20 -113l1 -60q-1 -42 -4 -66q-6 -56 -30 -156q-22 -87 -39 -134l-23 -61q-95 -250 -250 -443q-64 -79 -123 -129q-7 -7 -7.5 -9t-4.5 -2t-7 -3q-3 -8 -37.5 -30t-84.5 -38q-31 -10 -51 -11h-9q-125 0 -197 114q-4 -3 -8 -5
q-5 -2 -8 -3l-4 -2l-11 5q-23 8 -23 33q0 9 17 44q0 2 -1 3q-27 74 -33 201q-1 14 -1 32q0 94 8 156q0 2 8.5 69t13.5 85q66 296 179 423q40 42 73 42q22 0 41 -21q11 -12 14 -21q0 -6 4 -6q3 0 20 31q89 144 211 211q19 10 46 18q46 16 86 16q60 0 113 -32q15 -9 30 -24
q22 -22 39 -47l10 11q15 18 34 18q23 0 30 -15q5 -10 5 -17q0 -8 -5 -17q-4 -4 -26 -29q-7 -8 -16 -18z" />
    <glyph glyph-name="Ugrave" unicode="&#xd9;" horiz-adv-x="1162" 
d="M954 -117q-8 0 -8 2.5t-6 5t-13 14.5q-6 8 -6 99q0 291 164 1029q37 161 37 167q0 2 -1 2q-16 -22 -277 -484l-37 -62q-247 -418 -402 -550q-111 -94 -197 -94q-45 0 -82 23q-99 62 -130 257q-7 54 -7 175q0 83 6 147q20 211 69 394q41 153 96 266q66 139 118 156
q7 1 21 1q21 -2 28 -12q18 -19 18 -48q0 -89 -37 -89q-27 0 -35 30q-1 5 -2 6q-4 0 -20 -27q-137 -243 -186 -675q-6 -68 -6 -165q0 -98 6 -144q36 -210 143 -210q170 0 473 493q90 146 186 318q191 339 234 399q36 51 64 51q12 0 22 -8q20 -12 20 -52q0 -45 -61 -322
q-86 -379 -133 -714q-24 -175 -24 -275q0 -75 -3 -81q-12 -23 -32 -23zM750 1452q-16 0 -21 3q-20 14 -61 54q-18 16 -22 22q-6 10 -6 21q0 17 15 26q11 7 19 7q12 0 64 -46q41 -36 41 -46l1 -9q0 -28 -30 -32z" />
    <glyph glyph-name="Uacute" unicode="&#xda;" horiz-adv-x="1162" 
d="M954 -117q-8 0 -8 2.5t-6 5t-13 14.5q-6 8 -6 99q0 291 164 1029q37 161 37 167q0 2 -1 2q-16 -22 -277 -484l-37 -62q-247 -418 -402 -550q-111 -94 -197 -94q-45 0 -82 23q-99 62 -130 257q-7 54 -7 175q0 83 6 147q20 211 69 394q41 153 96 266q66 139 118 156
q7 1 21 1q21 -2 28 -12q18 -19 18 -48q0 -89 -37 -89q-27 0 -35 30q-1 5 -2 6q-4 0 -20 -27q-137 -243 -186 -675q-6 -68 -6 -165q0 -98 6 -144q36 -210 143 -210q170 0 473 493q90 146 186 318q191 339 234 399q36 51 64 51q12 0 22 -8q20 -12 20 -52q0 -45 -61 -322
q-86 -379 -133 -714q-24 -175 -24 -275q0 -75 -3 -81q-12 -23 -32 -23zM715 1452q-8 0 -8 3t-5 3t-11.5 9.5t-6.5 18.5q0 8 3.5 14.5t15 15.5t34.5 26q57 40 74 45t23 5q22 0 32 -24q2 -6 2 -9q0 -9 -7.5 -19.5t-18 -14.5t-53.5 -33q-47 -32 -54 -35q-11 -5 -20 -5z" />
    <glyph glyph-name="Ucircumflex" unicode="&#xdb;" horiz-adv-x="1162" 
d="M954 -117q-8 0 -8 2.5t-6 5t-13 14.5q-6 8 -6 99q0 291 164 1029q37 161 37 167q0 2 -1 2q-16 -22 -277 -484l-37 -62q-247 -418 -402 -550q-111 -94 -197 -94q-45 0 -82 23q-99 62 -130 257q-7 54 -7 175q0 83 6 147q20 211 69 394q41 153 96 266q66 139 118 156
q7 1 21 1q21 -2 28 -12q18 -19 18 -48q0 -89 -37 -89q-27 0 -35 30q-1 5 -2 6q-4 0 -20 -27q-137 -243 -186 -675q-6 -68 -6 -165q0 -98 6 -144q36 -210 143 -210q170 0 473 493q90 146 186 318q191 339 234 399q36 51 64 51q12 0 22 -8q20 -12 20 -52q0 -45 -61 -322
q-86 -379 -133 -714q-24 -175 -24 -275q0 -75 -3 -81q-12 -23 -32 -23zM819 1421q-13 0 -23 6q-15 9 -15 42l1 32q0 8 -2 8q-6 0 -50 -50q-18 -25 -35 -25q-8 0 -23 13q-6 4 -6 7.5t-3 3.5t-3 10q0 12 7 23q11 19 68 71q46 43 77 43q23 0 39 -22q6 -10 6 -22q0 -40 -6 -82
q-5 -35 -13 -44q-3 -4 -8.5 -6t-5.5 -5t-5 -3z" />
    <glyph glyph-name="Udieresis" unicode="&#xdc;" horiz-adv-x="1162" 
d="M954 -117q-8 0 -8 2.5t-6 5t-13 14.5q-6 8 -6 99q0 291 164 1029q37 161 37 167q0 2 -1 2q-16 -22 -277 -484l-37 -62q-247 -418 -402 -550q-111 -94 -197 -94q-45 0 -82 23q-99 62 -130 257q-7 54 -7 175q0 83 6 147q20 211 69 394q41 153 96 266q66 139 118 156
q7 1 21 1q21 -2 28 -12q18 -19 18 -48q0 -89 -37 -89q-27 0 -35 30q-1 5 -2 6q-4 0 -20 -27q-137 -243 -186 -675q-6 -68 -6 -165q0 -98 6 -144q36 -210 143 -210q170 0 473 493q90 146 186 318q191 339 234 399q36 51 64 51q12 0 22 -8q20 -12 20 -52q0 -45 -61 -322
q-86 -379 -133 -714q-24 -175 -24 -275q0 -75 -3 -81q-12 -23 -32 -23zM800 1460q-14 0 -16 1q-6 3 -12.5 9t-6.5 34q0 36 22 47q9 5 17 5q9 0 20.5 -11t11.5 -15.5v-6.5l-1 -11q-5 -50 -35 -52zM689 1470q-11 0 -21 11q-8 7 -10 12t-2 16q0 41 26 53q7 4 12 4q6 0 15 -5
q20 -8 20 -32q0 -22 -6 -35q-12 -24 -34 -24z" />
    <glyph glyph-name="Yacute" unicode="&#xdd;" horiz-adv-x="718" 
d="M567 -21q-3 0 -8 2t-9 2t-11 5q-12 7 -28 34q-7 10 -7 15t-3 6q-2 4 -7 33q-7 34 -7 40l-1 75q0 111 25 326q26 192 42 272q3 18 3.5 23t14 72t15 72t2.5 9t2.5 9.5t2 10t2 10.5t2.5 10.5t3.5 14t4.5 19.5q6 27 8.5 34.5t4 14t2.5 10t2.5 10.5t3.5 13.5t4.5 17t5.5 19.5
q7 24 13 51q-2 -1 -40 -63q-42 -73 -68 -113q-91 -151 -94 -154t-23 -38q-107 -179 -166 -247q-80 -92 -151 -92q-45 0 -73 36q-15 18 -15 23.5t-4 13.5q-7 12 -12 70q-3 31 -3 66q0 108 16 200q5 24 6.5 36.5t5.5 37.5q10 54 12 59.5t2 9.5l-1 1q1 5 3 11t4 18q0 7 7 37
q35 149 51 192l2 9q4 25 32 90q12 21 37 21q16 0 26.5 -4.5t10.5 -8.5t2.5 -4t4.5 -10q0 -12 -20 -72q-37 -115 -52 -190q-4 -18 -6 -24.5t-6 -28.5q-11 -47 -11 -54q-6 -36 -14 -76q-24 -153 -24 -241q0 -145 24 -145q4 0 27 14q29 19 75 80q74 104 130 201q18 30 36 58
q13 19 49 81q22 38 56 91q7 11 24.5 40t38.5 62q119 197 128 206q3 3 13 19q26 37 56 38q22 0 35.5 -12t14.5 -31q0 -23 -17 -78q-6 -24 -12 -41q0 -7 -7 -26q-19 -61 -19.5 -68.5t-7.5 -23.5l-5 -18l1 -1q-9 -25 -14 -51l-18 -63q-5 -27 -22 -100q-7 -25 -14 -65
q-6 -35 -7.5 -37.5t-2.5 -13.5l-3 -16q-3 -6 -3 -16q-9 -40 -14 -77l-20 -129l-10 -71q-9 -58 -13 -114q-14 -127 -14 -246q0 -115 28 -132q3 -2 3 -15q0 -17 -5 -24q-25 -17 -32 -17zM445 1461q-8 0 -8 3t-5 3t-11.5 9.5t-6.5 18.5q0 8 3.5 14.5t15 15.5t34.5 26
q57 40 74 45t23 5q22 0 32 -24q2 -6 2 -9q0 -9 -7.5 -19.5t-18 -14.5t-53.5 -33q-47 -32 -54 -35q-11 -5 -20 -5z" />
    <glyph glyph-name="Thorn" unicode="&#xde;" horiz-adv-x="1073" 
d="M186 94q-9 0 -20 9.5t-12 14t-1 13.5q0 37 9 113q6 50 12 82l5 31q0 2 -24 12q-72 23 -117 69q-38 40 -38 59q0 36 32 36q18 0 40 -29q19 -23 43 -40q17 -11 40 -21t34 -11q6 0 20 70q54 254 137 510q11 32 11 40v1q-2 0 -46 -25q-69 -39 -108 -74q-18 -16 -22.5 -17
t-7.5 -1q-24 0 -31 13t-7 21t4 17q12 20 66 56.5t118 68.5q25 12 43 21t20.5 10.5t11.5 24.5t20.5 57t21 58t11.5 28q9 10 25 10q17 0 28 -14q7 -10 7 -21q0 -7 -16.5 -56.5t-16.5 -53.5l42 10q137 33 251 33q205 0 292 -93q55 -55 55 -134v-8q0 -113 -104 -240
q-138 -164 -369 -285q-189 -96 -349 -103l-46 -2q-20 -115 -26 -190q-2 -31 -7 -45.5t-15.5 -19.5t-15.5 -5zM264 422l53 5q191 23 395 150q184 115 282 258q32 48 44 89q12 33 12 62q0 34 -16 62q-46 84 -138 93t-125 9q-130 0 -289 -49l-37 -11l-83 -266
q-34 -116 -65 -253q-25 -109 -33 -149z" />
    <glyph glyph-name="germandbls" unicode="&#xdf;" horiz-adv-x="1077" 
d="M36 70q-36 0 -36 63q0 47 19 131q72 318 235 556q232 348 585 491q100 38 165 38q72 0 93 -43q9 -19 9 -33q0 -59 -63 -144q-111 -148 -457 -443q3 0 56 17q181 59 296 59q149 0 181 -96q3 -10 3 -42q0 -34 -9 -61q-24 -67 -100 -146q-239 -240 -533 -298q-25 -3 -57 -3
q-57 0 -82 5q-55 14 -96 55q-35 35 -35 51q0 6 3 12q9 21 29 21q11 0 19.5 -4.5t28.5 -24.5q24 -26 44 -34q34 -13 75 -13l20 1q124 10 265 82t254 183q105 105 105 173q0 48 -46 62q-21 6 -73 6q-167 0 -457 -127q-53 -24 -73 -24q-7 0 -13.5 2.5t-13.5 12.5t-8 19
q0 14 23.5 37.5t117.5 101.5q435 366 510 510q16 33 16 47q0 4 -8.5 6.5t-22.5 2.5q-65 0 -179 -49q-220 -102 -390 -287q-247 -277 -340 -661q-26 -108 -26 -152v-23l-1 -15q-5 -22 -33 -22z" />
    <glyph glyph-name="agrave" unicode="&#xe0;" horiz-adv-x="511" 
d="M-4 415q-26 0 -39 16q-16 19 -16 54q0 37 9 72q21 76 59 147q91 172 196 172h8q78 0 84 -71q2 -20 5 -20q1 0 3 1.5t9 2t15 0.5q40 0 40 -42q0 -18 -10 -63q-20 -82 -20 -122q0 -43 24 -43q29 0 85 69q38 49 49.5 75.5t22.5 26.5q10 0 20 -6t13 -11.5t3 -15.5
q-4 -65 -87 -148q-33 -34 -60 -48q-23 -12 -50 -12q-35 0 -57 24q-33 32 -33 98q0 40 15 103l-34 -34l-51 -54q-108 -116 -141.5 -143.5t-61.5 -27.5zM12 496q1 0 16.5 14.5t37 36.5t41.5 42.5t28.5 30t24 26t31.5 33.5t32 35q2 14 2.5 26.5t1.5 25.5t1 21q0 14 -3.5 17
t-15.5 3q-29 0 -64.5 -32t-69.5 -95.5t-55 -135.5q-9 -35 -9 -44q0 -4 1 -4zM214 920q-16 0 -21 3q-20 14 -61 54q-18 16 -22 22q-6 10 -6 21q0 17 15 26q11 7 19 7q12 0 64 -46q41 -36 41 -46l1 -9q0 -28 -30 -32z" />
    <glyph glyph-name="aacute" unicode="&#xe1;" horiz-adv-x="511" 
d="M-4 415q-26 0 -39 16q-16 19 -16 54q0 37 9 72q21 76 59 147q91 172 196 172h8q78 0 84 -71q2 -20 5 -20q1 0 3 1.5t9 2t15 0.5q40 0 40 -42q0 -18 -10 -63q-20 -82 -20 -122q0 -43 24 -43q29 0 85 69q38 49 49.5 75.5t22.5 26.5q10 0 20 -6t13 -11.5t3 -15.5
q-4 -65 -87 -148q-33 -34 -60 -48q-23 -12 -50 -12q-35 0 -57 24q-33 32 -33 98q0 40 15 103l-34 -34l-51 -54q-108 -116 -141.5 -143.5t-61.5 -27.5zM12 496q1 0 16.5 14.5t37 36.5t41.5 42.5t28.5 30t24 26t31.5 33.5t32 35q2 14 2.5 26.5t1.5 25.5t1 21q0 14 -3.5 17
t-15.5 3q-29 0 -64.5 -32t-69.5 -95.5t-55 -135.5q-9 -35 -9 -44q0 -4 1 -4zM216 924q-8 0 -8 3t-5 3t-11.5 9.5t-6.5 18.5q0 8 3.5 14.5t15 15.5t34.5 26q57 40 74 45t23 5q22 0 32 -24q2 -6 2 -9q0 -9 -7.5 -19.5t-18 -14.5t-53.5 -33q-47 -32 -54 -35q-11 -5 -20 -5z" />
    <glyph glyph-name="acircumflex" unicode="&#xe2;" horiz-adv-x="511" 
d="M-4 415q-26 0 -39 16q-16 19 -16 54q0 37 9 72q21 76 59 147q91 172 196 172h8q78 0 84 -71q2 -20 5 -20q1 0 3 1.5t9 2t15 0.5q40 0 40 -42q0 -18 -10 -63q-20 -82 -20 -122q0 -43 24 -43q29 0 85 69q38 49 49.5 75.5t22.5 26.5q10 0 20 -6t13 -11.5t3 -15.5
q-4 -65 -87 -148q-33 -34 -60 -48q-23 -12 -50 -12q-35 0 -57 24q-33 32 -33 98q0 40 15 103l-34 -34l-51 -54q-108 -116 -141.5 -143.5t-61.5 -27.5zM12 496q1 0 16.5 14.5t37 36.5t41.5 42.5t28.5 30t24 26t31.5 33.5t32 35q2 14 2.5 26.5t1.5 25.5t1 21q0 14 -3.5 17
t-15.5 3q-29 0 -64.5 -32t-69.5 -95.5t-55 -135.5q-9 -35 -9 -44q0 -4 1 -4zM313 918q-13 0 -23 6q-15 9 -15 42l1 32q0 8 -2 8q-6 0 -50 -50q-18 -25 -35 -25q-8 0 -23 13q-6 4 -6 7.5t-3 3.5t-3 10q0 12 7 23q11 19 68 71q46 43 77 43q23 0 39 -22q6 -10 6 -22
q0 -40 -6 -82q-5 -35 -13 -44q-3 -4 -8.5 -6t-5.5 -5t-5 -3z" />
    <glyph glyph-name="atilde" unicode="&#xe3;" horiz-adv-x="511" 
d="M-4 415q-26 0 -39 16q-16 19 -16 54q0 37 9 72q21 76 59 147q91 172 196 172h8q78 0 84 -71q2 -20 5 -20q1 0 3 1.5t9 2t15 0.5q40 0 40 -42q0 -18 -10 -63q-20 -82 -20 -122q0 -43 24 -43q29 0 85 69q38 49 49.5 75.5t22.5 26.5q10 0 20 -6t13 -11.5t3 -15.5
q-4 -65 -87 -148q-33 -34 -60 -48q-23 -12 -50 -12q-35 0 -57 24q-33 32 -33 98q0 40 15 103l-34 -34l-51 -54q-108 -116 -141.5 -143.5t-61.5 -27.5zM12 496q1 0 16.5 14.5t37 36.5t41.5 42.5t28.5 30t24 26t31.5 33.5t32 35q2 14 2.5 26.5t1.5 25.5t1 21q0 14 -3.5 17
t-15.5 3q-29 0 -64.5 -32t-69.5 -95.5t-55 -135.5q-9 -35 -9 -44q0 -4 1 -4zM285 931q-26 0 -58 5q-17 3 -29 3q-8 0 -13 -3q-10 -5 -19 -5q-10 0 -19 7q-14 15 -14 28q0 20 28 36q13 6 38 6q22 0 54 -5q19 -3 34 -3q32 0 46 13q6 8 10.5 8t4.5 3t5 4l10 -1q30 -8 30 -35
q0 -19 -18 -35q-30 -26 -90 -26z" />
    <glyph glyph-name="adieresis" unicode="&#xe4;" horiz-adv-x="511" 
d="M-4 415q-26 0 -39 16q-16 19 -16 54q0 37 9 72q21 76 59 147q91 172 196 172h8q78 0 84 -71q2 -20 5 -20q1 0 3 1.5t9 2t15 0.5q40 0 40 -42q0 -18 -10 -63q-20 -82 -20 -122q0 -43 24 -43q29 0 85 69q38 49 49.5 75.5t22.5 26.5q10 0 20 -6t13 -11.5t3 -15.5
q-4 -65 -87 -148q-33 -34 -60 -48q-23 -12 -50 -12q-35 0 -57 24q-33 32 -33 98q0 40 15 103l-34 -34l-51 -54q-108 -116 -141.5 -143.5t-61.5 -27.5zM12 496q1 0 16.5 14.5t37 36.5t41.5 42.5t28.5 30t24 26t31.5 33.5t32 35q2 14 2.5 26.5t1.5 25.5t1 21q0 14 -3.5 17
t-15.5 3q-29 0 -64.5 -32t-69.5 -95.5t-55 -135.5q-9 -35 -9 -44q0 -4 1 -4zM300 911q-14 0 -16 1q-6 3 -12.5 9t-6.5 34q0 36 22 47q9 5 17 5q9 0 20.5 -11t11.5 -15.5v-6.5l-1 -11q-5 -50 -35 -52zM189 921q-11 0 -21 11q-8 7 -10 12t-2 16q0 41 26 53q7 4 12 4q6 0 15 -5
q20 -8 20 -32q0 -22 -6 -35q-12 -24 -34 -24z" />
    <glyph glyph-name="aring" unicode="&#xe5;" horiz-adv-x="511" 
d="M-4 415q-26 0 -39 16q-16 19 -16 54q0 37 9 72q21 76 59 147q91 172 196 172h8q78 0 84 -71q2 -20 5 -20q1 0 3 1.5t9 2t15 0.5q40 0 40 -42q0 -18 -10 -63q-20 -82 -20 -122q0 -43 24 -43q29 0 85 69q38 49 49.5 75.5t22.5 26.5q10 0 20 -6t13 -11.5t3 -15.5
q-4 -65 -87 -148q-33 -34 -60 -48q-23 -12 -50 -12q-35 0 -57 24q-33 32 -33 98q0 40 15 103l-34 -34l-51 -54q-108 -116 -141.5 -143.5t-61.5 -27.5zM12 496q1 0 16.5 14.5t37 36.5t41.5 42.5t28.5 30t24 26t31.5 33.5t32 35q2 14 2.5 26.5t1.5 25.5t1 21q0 14 -3.5 17
t-15.5 3q-29 0 -64.5 -32t-69.5 -95.5t-55 -135.5q-9 -35 -9 -44q0 -4 1 -4zM259 902q-23 0 -30 14q-3 3 -3 6.5t-3 3.5t-3 7t-2 8q-2 0 -9 -3t-10 -3q-25 0 -41 31q-12 21 -12 43q0 17 11 37q24 48 91 71q37 13 77 13q89 -12 89 -80q0 -53 -69 -108q-52 -40 -86 -40z
M235 966q8 0 29 9q27 11 48 32q31 31 31 41q-3 12 -25 12t-48.5 -9.5t-42.5 -24.5q-10 -9 -10 -16q0 -8 7.5 -23t7.5 -19v-1q0 -1 3 -1z" />
    <glyph glyph-name="ae" unicode="&#xe6;" horiz-adv-x="701" 
d="M12 496q1 0 16.5 14.5t37 36.5t41.5 42.5t28.5 30t24 26t31.5 33.5t32 35q2 14 2.5 26.5t1.5 25.5t1 21q0 14 -3.5 17t-15.5 3q-29 0 -64.5 -32t-69.5 -95.5t-55 -135.5q-9 -35 -9 -44q0 -4 1 -4zM378 702q4 0 26.5 21t38.5 41q21 26 21 31q0 1 -1 1q-6 0 -33 -25
q-20 -20 -43 -52q-10 -13 -10 -17h1zM286 674h-2l-34 -34l-51 -54q-108 -116 -141.5 -143.5t-61.5 -27.5q-26 0 -39 16q-16 19 -16 54q0 37 9 72q21 76 59 147q91 172 196 172h8q78 0 84 -71q2 -20 5 -20q1 0 3 1.5t9 2t15 0.5q12 0 20 -4q22 28 48 50q24 20 42.5 28t51.5 8
q13 0 25 -8q27 -14 29 -47q-1 -32 -37 -81t-88 -90q-28 -22 -53 -22l-26 3q-11 -48 -11 -68q0 -62 68 -62q46 0 117 34q46 24 92 61t67 66q10 14 16 20t12 8t11 2q31 0 33 -34q-2 -31 -53 -80t-125 -93q-96 -54 -174 -54q-37 0 -70 17q-28 14 -44 39q-12 19 -15 31t-3 56
q0 47 24 105z" />
    <glyph glyph-name="ccedilla" unicode="&#xe7;" horiz-adv-x="347" 
d="M32 388q-61 32 -61 139q0 46 13 102q24 109 84 197q61 81 116 81q71 0 71 -108q0 -33 -6 -47.5t-32 -14.5q-14 0 -21 9q-10 12 -10 50.5t-8 38.5q-5 0 -13 -6q-49 -40 -84.5 -126.5t-38.5 -174.5q0 -34 3 -44q8 -36 34 -36q86 0 234 204q27 37 44 37q6 0 15 -5.5
t14.5 -13t5.5 -16.5q0 -11 -11 -28q-115 -169 -228 -229q-34 -16 -42 -17q-3 0 -7 -1q-1 -3 -3 -7l-3 -9l10 3q32 8 49 8q50 0 66 -38q5 -12 5 -25q0 -34 -33 -75q-56 -64 -141 -64q-30 0 -50.5 17.5t-20.5 41.5q0 4 2.5 4t4.5 7t9 9t7 5t12 3q11 0 11 -3.5t3.5 -3.5t6.5 -1
q9 -9 20 -9q48 0 88 45q10 11 10 15l-1 2q-16 -2 -43 -10q-38 -11 -63 -11q-18 2 -29 21q-7 11 -7 24q0 17 10 42q4 10 8 18z" />
    <glyph glyph-name="egrave" unicode="&#xe8;" horiz-adv-x="407" 
d="M100 426q-37 0 -70 17q-28 14 -44 39q-12 19 -15 31t-3 56q0 50 27 113q42 98 108 153q24 20 42.5 28t51.5 8q13 0 25 -8q27 -14 29 -47q-1 -32 -37 -81t-88 -90q-28 -22 -53 -22l-26 3q-11 -48 -11 -68q0 -62 68 -62q46 0 117 34q46 24 92 61t67 66q10 14 16 20t12 8
t11 2q31 0 33 -34q-2 -31 -53 -80t-125 -93q-96 -54 -174 -54zM84 702q4 0 26.5 21t38.5 41q21 26 21 31q0 1 -1 1q-6 0 -33 -25q-20 -20 -43 -52q-10 -13 -10 -17h1zM232 911q-16 0 -21 3q-20 14 -61 54q-18 16 -22 22q-6 10 -6 21q0 17 15 26q11 7 19 7q12 0 64 -46
q41 -36 41 -46l1 -9q0 -28 -30 -32z" />
    <glyph glyph-name="eacute" unicode="&#xe9;" horiz-adv-x="407" 
d="M100 426q-37 0 -70 17q-28 14 -44 39q-12 19 -15 31t-3 56q0 50 27 113q42 98 108 153q24 20 42.5 28t51.5 8q13 0 25 -8q27 -14 29 -47q-1 -32 -37 -81t-88 -90q-28 -22 -53 -22l-26 3q-11 -48 -11 -68q0 -62 68 -62q46 0 117 34q46 24 92 61t67 66q10 14 16 20t12 8
t11 2q31 0 33 -34q-2 -31 -53 -80t-125 -93q-96 -54 -174 -54zM84 702q4 0 26.5 21t38.5 41q21 26 21 31q0 1 -1 1q-6 0 -33 -25q-20 -20 -43 -52q-10 -13 -10 -17h1zM248 902q-8 0 -8 3t-5 3t-11.5 9.5t-6.5 18.5q0 8 3.5 14.5t15 15.5t34.5 26q57 40 74 45t23 5
q22 0 32 -24q2 -6 2 -9q0 -9 -7.5 -19.5t-18 -14.5t-53.5 -33q-47 -32 -54 -35q-11 -5 -20 -5z" />
    <glyph glyph-name="ecircumflex" unicode="&#xea;" horiz-adv-x="407" 
d="M100 426q-37 0 -70 17q-28 14 -44 39q-12 19 -15 31t-3 56q0 50 27 113q42 98 108 153q24 20 42.5 28t51.5 8q13 0 25 -8q27 -14 29 -47q-1 -32 -37 -81t-88 -90q-28 -22 -53 -22l-26 3q-11 -48 -11 -68q0 -62 68 -62q46 0 117 34q46 24 92 61t67 66q10 14 16 20t12 8
t11 2q31 0 33 -34q-2 -31 -53 -80t-125 -93q-96 -54 -174 -54zM84 702q4 0 26.5 21t38.5 41q21 26 21 31q0 1 -1 1q-6 0 -33 -25q-20 -20 -43 -52q-10 -13 -10 -17h1zM318 897q-13 0 -23 6q-15 9 -15 42l1 32q0 8 -2 8q-6 0 -50 -50q-18 -25 -35 -25q-8 0 -23 13
q-6 4 -6 7.5t-3 3.5t-3 10q0 12 7 23q11 19 68 71q46 43 77 43q23 0 39 -22q6 -10 6 -22q0 -40 -6 -82q-5 -35 -13 -44q-3 -4 -8.5 -6t-5.5 -5t-5 -3z" />
    <glyph glyph-name="edieresis" unicode="&#xeb;" horiz-adv-x="407" 
d="M100 426q-37 0 -70 17q-28 14 -44 39q-12 19 -15 31t-3 56q0 50 27 113q42 98 108 153q24 20 42.5 28t51.5 8q13 0 25 -8q27 -14 29 -47q-1 -32 -37 -81t-88 -90q-28 -22 -53 -22l-26 3q-11 -48 -11 -68q0 -62 68 -62q46 0 117 34q46 24 92 61t67 66q10 14 16 20t12 8
t11 2q31 0 33 -34q-2 -31 -53 -80t-125 -93q-96 -54 -174 -54zM84 702q4 0 26.5 21t38.5 41q21 26 21 31q0 1 -1 1q-6 0 -33 -25q-20 -20 -43 -52q-10 -13 -10 -17h1zM258 889q-14 0 -16 1q-6 3 -12.5 9t-6.5 34q0 36 22 47q9 5 17 5q9 0 20.5 -11t11.5 -15.5v-6.5l-1 -11
q-5 -50 -35 -52zM147 899q-11 0 -21 11q-8 7 -10 12t-2 16q0 41 26 53q7 4 12 4q6 0 15 -5q20 -8 20 -32q0 -22 -6 -35q-12 -24 -34 -24z" />
    <glyph glyph-name="igrave" unicode="&#xec;" horiz-adv-x="309" 
d="M62 395q-18 0 -33 7q-58 28 -58 114q0 85 53 256q20 65 22 75q4 18 11.5 26t24.5 8q26 0 34 -27q1 -4 1 -9q-1 -6 -3.5 -16t-8 -30t-12.5 -41q-50 -160 -51 -233q0 -33 4.5 -45.5t17.5 -12.5q32 0 99 63.5t100 109.5q16 22 25.5 33t16.5 14.5t15 3.5q12 0 23 -10
q4 -5 4 -9t3.5 -4t3.5 -6q0 -11 -7 -24q-20 -36 -95 -116q-82 -89 -134 -113q-31 -14 -56 -14zM109 917q-16 0 -21 3q-20 14 -61 54q-18 16 -22 22q-6 10 -6 21q0 17 15 26q11 7 19 7q12 0 64 -46q41 -36 41 -46l1 -9q0 -28 -30 -32z" />
    <glyph glyph-name="iacute" unicode="&#xed;" horiz-adv-x="309" 
d="M62 395q-18 0 -33 7q-58 28 -58 114q0 85 53 256q20 65 22 75q4 18 11.5 26t24.5 8q26 0 34 -27q1 -4 1 -9q-1 -6 -3.5 -16t-8 -30t-12.5 -41q-50 -160 -51 -233q0 -33 4.5 -45.5t17.5 -12.5q32 0 99 63.5t100 109.5q16 22 25.5 33t16.5 14.5t15 3.5q12 0 23 -10
q4 -5 4 -9t3.5 -4t3.5 -6q0 -11 -7 -24q-20 -36 -95 -116q-82 -89 -134 -113q-31 -14 -56 -14zM113 926q-8 0 -8 3t-5 3t-11.5 9.5t-6.5 18.5q0 8 3.5 14.5t15 15.5t34.5 26q57 40 74 45t23 5q22 0 32 -24q2 -6 2 -9q0 -9 -7.5 -19.5t-18 -14.5t-53.5 -33q-47 -32 -54 -35
q-11 -5 -20 -5z" />
    <glyph glyph-name="icircumflex" unicode="&#xee;" horiz-adv-x="309" 
d="M62 395q-18 0 -33 7q-58 28 -58 114q0 85 53 256q20 65 22 75q4 18 11.5 26t24.5 8q26 0 34 -27q1 -4 1 -9q-1 -6 -3.5 -16t-8 -30t-12.5 -41q-50 -160 -51 -233q0 -33 4.5 -45.5t17.5 -12.5q32 0 99 63.5t100 109.5q16 22 25.5 33t16.5 14.5t15 3.5q12 0 23 -10
q4 -5 4 -9t3.5 -4t3.5 -6q0 -11 -7 -24q-20 -36 -95 -116q-82 -89 -134 -113q-31 -14 -56 -14zM177 912q-13 0 -23 6q-15 9 -15 42l1 32q0 8 -2 8q-6 0 -50 -50q-18 -25 -35 -25q-8 0 -23 13q-6 4 -6 7.5t-3 3.5t-3 10q0 12 7 23q11 19 68 71q46 43 77 43q23 0 39 -22
q6 -10 6 -22q0 -40 -6 -82q-5 -35 -13 -44q-3 -4 -8.5 -6t-5.5 -5t-5 -3z" />
    <glyph glyph-name="idieresis" unicode="&#xef;" horiz-adv-x="309" 
d="M62 395q-18 0 -33 7q-58 28 -58 114q0 85 53 256q20 65 22 75q4 18 11.5 26t24.5 8q26 0 34 -27q1 -4 1 -9q-1 -6 -3.5 -16t-8 -30t-12.5 -41q-50 -160 -51 -233q0 -33 4.5 -45.5t17.5 -12.5q32 0 99 63.5t100 109.5q16 22 25.5 33t16.5 14.5t15 3.5q12 0 23 -10
q4 -5 4 -9t3.5 -4t3.5 -6q0 -11 -7 -24q-20 -36 -95 -116q-82 -89 -134 -113q-31 -14 -56 -14zM163 907q-14 0 -16 1q-6 3 -12.5 9t-6.5 34q0 36 22 47q9 5 17 5q9 0 20.5 -11t11.5 -15.5v-6.5l-1 -11q-5 -50 -35 -52zM52 917q-11 0 -21 11q-8 7 -10 12t-2 16q0 41 26 53
q7 4 12 4q6 0 15 -5q20 -8 20 -32q0 -22 -6 -35q-12 -24 -34 -24z" />
    <glyph glyph-name="eth" unicode="&#xf0;" horiz-adv-x="369" 
d="M88 411q-24 0 -44 9q-44 17 -44 67q0 75 135 140q63 27 99 31q21 2 21 4q0 11 -10 43q-7 21 -18 38q-18 27 -22 27q-2 0 -34.5 -30t-48.5 -30l-8 1q-25 7 -25 30q0 15 9 26q6 7 54 50q-38 16 -41 28.5t-3 16.5q0 13 14 24q10 8 21 8q9 0 28 -8.5t42 -27.5l22 10
q22 9 34 9q12 -1 22.5 -12t10.5 -18q0 -26 -24 -37l-9 -5q34 -48 42 -72q13 -40 13 -100q0 -19 -5.5 -28t-17.5 -38q-33 -68 -93 -114q-56 -42 -120 -42zM79 481l16 1q25 2 47 13t47.5 34.5t43.5 56.5q-36 -7 -74 -25q-58 -27 -79 -54q-9 -13 -9 -20q0 -5 8 -6z" />
    <glyph glyph-name="ntilde" unicode="&#xf1;" horiz-adv-x="631" 
d="M4 455q-12 0 -20.5 4t-15 17t-6.5 25q0 48 55 247q18 63 18 70.5t8 15.5q14 14 27 14q11 0 22 -11t11 -29q0 -9 -6 -32q-47 -172 -47 -183q2 0 24 27q158 187 237 187q45 0 71 -46q14 -27 24 -80q12 -62 22 -86q13 -36 45 -36q40 0 76 34q43 46 65 71t33 25q5 0 13 -4.5
t13 -18.5q3 -7 3 -14q0 -16 -40 -66q-48 -60 -88.5 -79t-74.5 -19q-46 0 -81 34q-19 20 -30 47t-22 81q-16 86 -30 86q-24 0 -84 -56.5t-134 -147.5q-52 -66 -67 -73q-9 -4 -21 -4zM300 876q-26 0 -58 5q-17 3 -29 3q-8 0 -13 -3q-10 -5 -19 -5q-10 0 -19 7q-14 15 -14 28
q0 20 28 36q13 6 38 6q22 0 54 -5q19 -3 34 -3q32 0 46 13q6 8 10.5 8t4.5 3t5 4l10 -1q30 -8 30 -35q0 -19 -18 -35q-30 -26 -90 -26z" />
    <glyph glyph-name="ograve" unicode="&#xf2;" horiz-adv-x="361" 
d="M73 455h-11q-25 0 -36 4q-58 25 -58 102q0 80 62 178q18 28 59 69q33 33 56 33q13 0 24 -9q4 -3 4.5 -6.5t14.5 -3.5l22 -2q36 0 53 -7q39 -16 58 -52q9 -18 9 -46q-1 -84 -91 -174q-83 -86 -166 -86zM64 523q64 0 132 71q46 49 62 103q3 10 3 19q0 36 -57 36
q-19 0 -39 -5q-30 -5 -37.5 -5t-28.5 -28q-61 -87 -61 -155q0 -28 9 -32t17 -4zM254 875q-16 0 -21 3q-20 14 -61 54q-18 16 -22 22q-6 10 -6 21q0 17 15 26q11 7 19 7q12 0 64 -46q41 -36 41 -46l1 -9q0 -28 -30 -32z" />
    <glyph glyph-name="oacute" unicode="&#xf3;" horiz-adv-x="360" 
d="M73 455h-11q-25 0 -36 4q-58 25 -58 102q0 80 62 178q18 28 59 69q33 33 56 33q13 0 24 -9q4 -3 4.5 -6.5t14.5 -3.5l22 -2q36 0 53 -7q39 -16 58 -52q9 -18 9 -46q-1 -84 -91 -174q-83 -86 -166 -86zM64 523q64 0 132 71q46 49 62 103q3 10 3 19q0 36 -57 36
q-19 0 -39 -5q-30 -5 -37.5 -5t-28.5 -28q-61 -87 -61 -155q0 -28 9 -32t17 -4zM249 875q-8 0 -8 3t-5 3t-11.5 9.5t-6.5 18.5q0 8 3.5 14.5t15 15.5t34.5 26q57 40 74 45t23 5q22 0 32 -24q2 -6 2 -9q0 -9 -7.5 -19.5t-18 -14.5t-53.5 -33q-47 -32 -54 -35q-11 -5 -20 -5z
" />
    <glyph glyph-name="ocircumflex" unicode="&#xf4;" horiz-adv-x="360" 
d="M73 455h-11q-25 0 -36 4q-58 25 -58 102q0 80 62 178q18 28 59 69q33 33 56 33q13 0 24 -9q4 -3 4.5 -6.5t14.5 -3.5l22 -2q36 0 53 -7q39 -16 58 -52q9 -18 9 -46q-1 -84 -91 -174q-83 -86 -166 -86zM64 523q64 0 132 71q46 49 62 103q3 10 3 19q0 36 -57 36
q-19 0 -39 -5q-30 -5 -37.5 -5t-28.5 -28q-61 -87 -61 -155q0 -28 9 -32t17 -4zM330 867q-13 0 -23 6q-15 9 -15 42l1 32q0 8 -2 8q-6 0 -50 -50q-18 -25 -35 -25q-8 0 -23 13q-6 4 -6 7.5t-3 3.5t-3 10q0 12 7 23q11 19 68 71q46 43 77 43q23 0 39 -22q6 -10 6 -22
q0 -40 -6 -82q-5 -35 -13 -44q-3 -4 -8.5 -6t-5.5 -5t-5 -3z" />
    <glyph glyph-name="otilde" unicode="&#xf5;" horiz-adv-x="360" 
d="M73 455h-11q-25 0 -36 4q-58 25 -58 102q0 80 62 178q18 28 59 69q33 33 56 33q13 0 24 -9q4 -3 4.5 -6.5t14.5 -3.5l22 -2q36 0 53 -7q39 -16 58 -52q9 -18 9 -46q-1 -84 -91 -174q-83 -86 -166 -86zM64 523q64 0 132 71q46 49 62 103q3 10 3 19q0 36 -57 36
q-19 0 -39 -5q-30 -5 -37.5 -5t-28.5 -28q-61 -87 -61 -155q0 -28 9 -32t17 -4zM292 871q-26 0 -58 5q-17 3 -29 3q-8 0 -13 -3q-10 -5 -19 -5q-10 0 -19 7q-14 15 -14 28q0 20 28 36q13 6 38 6q22 0 54 -5q19 -3 34 -3q32 0 46 13q6 8 10.5 8t4.5 3t5 4l10 -1q30 -8 30 -35
q0 -19 -18 -35q-30 -26 -90 -26z" />
    <glyph glyph-name="odieresis" unicode="&#xf6;" horiz-adv-x="360" 
d="M73 455h-11q-25 0 -36 4q-58 25 -58 102q0 80 62 178q18 28 59 69q33 33 56 33q13 0 24 -9q4 -3 4.5 -6.5t14.5 -3.5l22 -2q36 0 53 -7q39 -16 58 -52q9 -18 9 -46q-1 -84 -91 -174q-83 -86 -166 -86zM64 523q64 0 132 71q46 49 62 103q3 10 3 19q0 36 -57 36
q-19 0 -39 -5q-30 -5 -37.5 -5t-28.5 -28q-61 -87 -61 -155q0 -28 9 -32t17 -4zM313 865q-14 0 -16 1q-6 3 -12.5 9t-6.5 34q0 36 22 47q9 5 17 5q9 0 20.5 -11t11.5 -15.5v-6.5l-1 -11q-5 -50 -35 -52zM202 875q-11 0 -21 11q-8 7 -10 12t-2 16q0 41 26 53q7 4 12 4
q6 0 15 -5q20 -8 20 -32q0 -22 -6 -35q-12 -24 -34 -24z" />
    <glyph glyph-name="divide" unicode="&#xf7;" horiz-adv-x="600" 
d="M564 640q-16 0 -46 6q-61 13 -214 13q-183 0 -237 -10q-16 -4 -38 -4q-29 0 -29 36q0 10 10 20q13 13 45 18q76 10 238 10q268 0 300 -38q7 -9 7 -16q0 -6 -6 -16t-11 -14.5t-19 -4.5zM254 472q-12 0 -21 8q-3 2 -4 5q0 7 -4 7t-4 7q0 26 14 67q7 20 28 26l11 1
q4 -1 4 -4t5.5 -3t11.5 -10t6 -21q0 -32 -16 -67q-9 -16 -31 -16zM316 790q-16 0 -26 15q-3 3 -3 4q0 5 -3.5 5.5t-3.5 5.5q0 4 3 16q4 16 4 27.5t12.5 24.5t24.5 13q8 0 18 -7q19 -15 19 -32q0 -6 -5 -24q-13 -48 -40 -48z" />
    <glyph glyph-name="oslash" unicode="&#xf8;" horiz-adv-x="360" 
d="M71 523q61 4 125 71q46 49 62 103q3 9 3 17q-40 -36 -93 -90q-58 -59 -97 -101zM42 593q30 33 69 72q50 50 90 87q-18 0 -36 -5q-30 -5 -37.5 -5t-28.5 -28q-46 -66 -57 -121zM320 762q10 -20 10 -47q-1 -84 -91 -174q-83 -86 -166 -86h-11q-25 0 -36 4l-7 3
q-7 -8 -11 -14q-8 -15 -24 -30q-9 -10 -19 -10q-12 0 -26 14q-8 7 -8 22q0 19 43 72q-6 20 -6 45q0 80 62 178q18 28 59 69q33 33 56 33q13 0 24 -9q4 -3 4.5 -6.5t25.5 -4.5q47 -1 64 -8q3 -1 6 -3q53 41 77 41q28 -1 28 -36v-5.5t-10.5 -15.5t-36.5 -27q-3 -2 -7 -5z" />
    <glyph glyph-name="ugrave" unicode="&#xf9;" horiz-adv-x="492" 
d="M29 435q-17 0 -33 16q-10 8 -15 21q-2 5 -4 44q0 30 1 43q4 75 44 205q24 77 40 94q7 6 23 6q20 0 29 -18q5 -10 5 -21q-1 -4 -10.5 -25.5t-22.5 -67.5q-23 -76 -38 -168q-4 -30 -4 -40q3 0 121 160q55 75 78.5 93.5t38.5 18.5q10 0 20 -7t15 -14q8 -13 12 -68
q2 -39 6 -59q8 -17 30 -17q23 0 66 20q30 14 46 28q9 9 22 11q11 0 14 -1q12 -6 21 -21q3 -5 3 -12q0 -37 -106 -81q-30 -11 -72 -11q-18 0 -26 2q-33 6 -55 42q-16 27 -16 59q0 12 -1.5 14.5t-2.5 2.5q-7 0 -36 -40q-55 -75 -59 -82q-61 -84 -88.5 -105.5t-45.5 -21.5z
M214 893q-16 0 -21 3q-20 14 -61 54q-18 16 -22 22q-6 10 -6 21q0 17 15 26q11 7 19 7q12 0 64 -46q41 -36 41 -46l1 -9q0 -28 -30 -32z" />
    <glyph glyph-name="uacute" unicode="&#xfa;" horiz-adv-x="492" 
d="M29 435q-17 0 -33 16q-10 8 -15 21q-2 5 -4 44q0 30 1 43q4 75 44 205q24 77 40 94q7 6 23 6q20 0 29 -18q5 -10 5 -21q-1 -4 -10.5 -25.5t-22.5 -67.5q-23 -76 -38 -168q-4 -30 -4 -40q3 0 121 160q55 75 78.5 93.5t38.5 18.5q10 0 20 -7t15 -14q8 -13 12 -68
q2 -39 6 -59q8 -17 30 -17q23 0 66 20q30 14 46 28q9 9 22 11q11 0 14 -1q12 -6 21 -21q3 -5 3 -12q0 -37 -106 -81q-30 -11 -72 -11q-18 0 -26 2q-33 6 -55 42q-16 27 -16 59q0 12 -1.5 14.5t-2.5 2.5q-7 0 -36 -40q-55 -75 -59 -82q-61 -84 -88.5 -105.5t-45.5 -21.5z
M198 884q-8 0 -8 3t-5 3t-11.5 9.5t-6.5 18.5q0 8 3.5 14.5t15 15.5t34.5 26q57 40 74 45t23 5q22 0 32 -24q2 -6 2 -9q0 -9 -7.5 -19.5t-18 -14.5t-53.5 -33q-47 -32 -54 -35q-11 -5 -20 -5z" />
    <glyph glyph-name="ucircumflex" unicode="&#xfb;" horiz-adv-x="492" 
d="M29 435q-17 0 -33 16q-10 8 -15 21q-2 5 -4 44q0 30 1 43q4 75 44 205q24 77 40 94q7 6 23 6q20 0 29 -18q5 -10 5 -21q-1 -4 -10.5 -25.5t-22.5 -67.5q-23 -76 -38 -168q-4 -30 -4 -40q3 0 121 160q55 75 78.5 93.5t38.5 18.5q10 0 20 -7t15 -14q8 -13 12 -68
q2 -39 6 -59q8 -17 30 -17q23 0 66 20q30 14 46 28q9 9 22 11q11 0 14 -1q12 -6 21 -21q3 -5 3 -12q0 -37 -106 -81q-30 -11 -72 -11q-18 0 -26 2q-33 6 -55 42q-16 27 -16 59q0 12 -1.5 14.5t-2.5 2.5q-7 0 -36 -40q-55 -75 -59 -82q-61 -84 -88.5 -105.5t-45.5 -21.5z
M282 876q-13 0 -23 6q-15 9 -15 42l1 32q0 8 -2 8q-6 0 -50 -50q-18 -25 -35 -25q-8 0 -23 13q-6 4 -6 7.5t-3 3.5t-3 10q0 12 7 23q11 19 68 71q46 43 77 43q23 0 39 -22q6 -10 6 -22q0 -40 -6 -82q-5 -35 -13 -44q-3 -4 -8.5 -6t-5.5 -5t-5 -3z" />
    <glyph glyph-name="udieresis" unicode="&#xfc;" horiz-adv-x="492" 
d="M29 435q-17 0 -33 16q-10 8 -15 21q-2 5 -4 44q0 30 1 43q4 75 44 205q24 77 40 94q7 6 23 6q20 0 29 -18q5 -10 5 -21q-1 -4 -10.5 -25.5t-22.5 -67.5q-23 -76 -38 -168q-4 -30 -4 -40q3 0 121 160q55 75 78.5 93.5t38.5 18.5q10 0 20 -7t15 -14q8 -13 12 -68
q2 -39 6 -59q8 -17 30 -17q23 0 66 20q30 14 46 28q9 9 22 11q11 0 14 -1q12 -6 21 -21q3 -5 3 -12q0 -37 -106 -81q-30 -11 -72 -11q-18 0 -26 2q-33 6 -55 42q-16 27 -16 59q0 12 -1.5 14.5t-2.5 2.5q-7 0 -36 -40q-55 -75 -59 -82q-61 -84 -88.5 -105.5t-45.5 -21.5z
M273 877q-14 0 -16 1q-6 3 -12.5 9t-6.5 34q0 36 22 47q9 5 17 5q9 0 20.5 -11t11.5 -15.5v-6.5l-1 -11q-5 -50 -35 -52zM162 887q-11 0 -21 11q-8 7 -10 12t-2 16q0 41 26 53q7 4 12 4q6 0 15 -5q20 -8 20 -32q0 -22 -6 -35q-12 -24 -34 -24z" />
    <glyph glyph-name="yacute" unicode="&#xfd;" horiz-adv-x="557" 
d="M-22 -21q-36 0 -56 38q-6 14 -6 39q0 32 11 68q22 60 61 126q97 153 287 289q40 28 45 40q3 7 4 20l1 9q2 17 2.5 40.5t0 43.5t-4.5 20q-14 0 -100 -68q-111 -87 -156 -87q-43 0 -64 41q-6 16 -6 41q0 57 25 124q27 74 62 74q8 0 15 -4q20 -10 22 -37q0 -15 -13 -26
q-20 -18 -32 -72q-10 -41 -10 -58q0 -6 0.5 -9t4.5 -3q15 1 94 60q73 57 107.5 77.5t57.5 20.5q44 0 63 -55q4 -12 4 -65v-52q127 75 172 75q8 0 14 -3q19 -10 19 -29v-6q-1 -15 -64 -38.5t-155 -85.5q-35 -134 -88 -242q-84 -171 -188 -250q-66 -51 -109 -54zM-12 49
q8 0 28 10q47 22 100 78q81 85 149 251q27 66 27 74l-1 1q-9 0 -86 -69q-172 -155 -215 -310q-7 -26 -7 -31q0 -4 5 -4zM228 871q-8 0 -8 3t-5 3t-11.5 9.5t-6.5 18.5q0 8 3.5 14.5t15 15.5t34.5 26q57 40 74 45t23 5q22 0 32 -24q2 -6 2 -9q0 -9 -7.5 -19.5t-18 -14.5
t-53.5 -33q-47 -32 -54 -35q-11 -5 -20 -5z" />
    <glyph glyph-name="thorn" unicode="&#xfe;" horiz-adv-x="571" 
d="M89 214q-9 0 -9.5 3t-5.5 3t-11 12q-8 16 -8 38q0 29 2 55l5 52q-1 7 -9 11l-2 1q-15 9 -30 26q-19 18 -21 34v13q2 9 13 17q3 3 6 3t3 3t8 3q10 0 18 -5q4 -3 10 -8t10 -10t7 -5t10 38l1 5q23 112 57 230l13 46q0 1 -1 1t-5.5 -3t-12.5 -10.5t-17 -17t-14.5 -13
t-13.5 -3.5q-9 0 -19 6.5t-10 12t-3.5 5.5t-3.5 8q0 43 106 101l26 15q45 133 57 157q13 28 35 28q17 0 28 -17q6 -9 6 -19t-6 -21q-8 -16 -21 -53q-4 -14 -7 -22t-3 -14v-1h4q38 11 68 15.5t67 4.5q58 0 76 -6q85 -23 119 -102q5 -17 5 -57q0 -72 -55 -151
q-70 -104 -180 -174.5t-215 -79.5q-33 -2 -33 -3.5t-1 -12.5q-9 -49 -9 -80q0 -13 3.5 -13t3.5 -6q0 -21 -20 -34q-9 -6 -21 -6zM158 439q12 0 35 4q80 18 159 70.5t135 125.5q31 41 46 80t15 64q0 58 -64 80q-25 7 -68 7q-47 0 -96 -14q-58 -17 -69 -26.5t-49 -144.5
q-25 -90 -41 -166q-15 -72 -15 -76t12 -4z" />
    <glyph glyph-name="ydieresis" unicode="&#xff;" horiz-adv-x="557" 
d="M-22 -21q-36 0 -56 38q-6 14 -6 39q0 32 11 68q22 60 61 126q97 153 287 289q40 28 45 40q3 7 4 20l1 9q2 17 2.5 40.5t0 43.5t-4.5 20q-14 0 -100 -68q-111 -87 -156 -87q-43 0 -64 41q-6 16 -6 41q0 57 25 124q27 74 62 74q8 0 15 -4q20 -10 22 -37q0 -15 -13 -26
q-20 -18 -32 -72q-10 -41 -10 -58q0 -6 0.5 -9t4.5 -3q15 1 94 60q73 57 107.5 77.5t57.5 20.5q44 0 63 -55q4 -12 4 -65v-52q127 75 172 75q8 0 14 -3q19 -10 19 -29v-6q-1 -15 -64 -38.5t-155 -85.5q-35 -134 -88 -242q-84 -171 -188 -250q-66 -51 -109 -54zM-12 49
q8 0 28 10q47 22 100 78q81 85 149 251q27 66 27 74l-1 1q-9 0 -86 -69q-172 -155 -215 -310q-7 -26 -7 -31q0 -4 5 -4zM286 838q-14 0 -16 1q-6 3 -12.5 9t-6.5 34q0 36 22 47q9 5 17 5q9 0 20.5 -11t11.5 -15.5v-6.5l-1 -11q-5 -50 -35 -52zM175 848q-11 0 -21 11
q-8 7 -10 12t-2 16q0 41 26 53q7 4 12 4q6 0 15 -5q20 -8 20 -32q0 -22 -6 -35q-12 -24 -34 -24z" />
    <glyph glyph-name="quoteleft" unicode="&#x2018;" horiz-adv-x="52" 
d="M33 1260l-13 5q-20 7 -20 34q0 18 9 49q14 51 26 67q10 12 28 12q23 0 26 -15q2 -8 5 -8t3 -4q0 -9 -13 -46q-13 -42 -15 -55q-5 -29 -33 -38z" />
    <glyph glyph-name="quoteright" unicode="&#x2019;" horiz-adv-x="52" 
d="M33 1260l-13 5q-20 7 -20 34q0 18 9 49q14 51 26 67q10 12 28 12q23 0 26 -15q2 -8 5 -8t3 -4q0 -9 -13 -46q-13 -42 -15 -55q-5 -29 -33 -38z" />
    <glyph glyph-name="quotesinglbase" unicode="&#x201a;" horiz-adv-x="52" 
d="M33 -3l-13 5q-20 7 -20 34q0 18 9 49q14 51 26 67q10 12 28 12q23 0 26 -15q2 -8 5 -8t3 -4q0 -9 -13 -46q-13 -42 -15 -55q-5 -29 -33 -38z" />
    <glyph glyph-name="quotedblleft" unicode="&#x201c;" horiz-adv-x="145" 
d="M107 1209q-13 0 -24 11.5t-11 23.5v11q-21 -20 -24 -21t-6 -1q-16 0 -26 8q-16 12 -16 36q0 35 36 93q22 37 44 37q9 0 18 -7q14 -9 14 -23q0 -15 -18.5 -46t-20.5 -49l-2 -17l14 26q33 66 70 66q9 0 19.5 -7t13 -14.5t2.5 -13.5q0 -13 -17 -29q-30 -30 -30 -52
q0 -8 -3.5 -8t-3.5 -5.5t-10 -12t-19 -6.5z" />
    <glyph glyph-name="quotedblright" unicode="&#x201d;" horiz-adv-x="145" 
d="M83 1407q13 0 24 -11.5t11 -23.5v-11q21 20 24 21t6 1q17 0 26 -8q16 -12 16 -36q0 -35 -36 -93q-22 -37 -44 -37q-9 0 -18 7q-14 9 -14 23q0 15 18.5 46t20.5 49l2 17l-14 -26q-33 -66 -70 -66q-9 0 -19.5 7t-13 14.5t-2.5 13.5q0 13 17 29q30 30 30 52q0 8 3.5 8
t3.5 5.5t10 12t19 6.5z" />
    <glyph glyph-name="quotedblbase" unicode="&#x201e;" horiz-adv-x="145" 
d="M107 0q-13 0 -24 11.5t-11 23.5v11q-21 -20 -24 -21t-6 -1q-16 0 -26 8q-16 12 -16 36q0 35 36 93q22 37 44 37q9 0 18 -7q14 -9 14 -23q0 -15 -18.5 -46t-20.5 -49l-2 -17l14 26q33 66 70 66q9 0 19.5 -7t13 -14.5t2.5 -13.5q0 -13 -17 -29q-30 -30 -30 -52
q0 -8 -3.5 -8t-3.5 -5.5t-10 -12t-19 -6.5z" />
    <glyph glyph-name="lira" unicode="&#x20a4;" horiz-adv-x="875" 
d="M271 64q-65 0 -83 45q-3 8 -3 35q0 33 18 94.5t60 190.5l-11 -1q-37 -6 -86.5 -13t-85.5 -11t-47 -4q-33 0 -33 32q0 24 20 32q10 3 231 34l29 4q11 4 46 112l6 19q-9 0 -95 -9q-101 -11 -114 -13h-5q-15 0 -25.5 10.5t-10.5 26.5q0 15 14 25.5t196 25.5l68 6
q39 97 65 148q31 63 64 117q119 202 215 220q10 2 29 2q28 0 34 -3t13 -7q27 -20 28.5 -34t1.5 -16q0 -24 -22 -37q-9 -5 -17 -5q-22 0 -30 25q-2 8 -10 8q-84 0 -232 -278q-18 -35 -50 -105q-11 -25 -11 -29q0 -1 33 -1.5t82 -1.5q86 0 107 -2.5t31 -12.5q8 -12 8 -26
q0 -3 -1.5 -7t-8 -10t-12.5 -12q-115 2 -203 2q-46 0 -59 -3q-6 -1 -10 -11l-22 -64q-15 -40 -15 -50q0 -1 1 -1h1q12 3 102 8q36 2 104 2q23 0 30 -3q16 -8 16 -31q0 -24 -23 -30q-15 -4 -52 -4q-73 -1 -208 -16q-76 -231 -87 -303q51 0 138 10q158 19 278 19
q134 0 231 -24q21 -10 21 -32q0 -21 -20 -31q-7 -3 -16 -3h-9q-72 14 -122 18q-40 2 -88 2q-115 0 -289 -21q-68 -8 -105 -8z" />
    <glyph glyph-name="Euro" unicode="&#x20ac;" horiz-adv-x="1007" 
d="M420 0q-63 0 -118 36q-34 21 -56 49q-90 119 -90 333q0 73 10 148q-114 -10 -127 -12q-18 0 -28.5 10.5t-10.5 26.5q0 15 13 25t165 20q15 78 41 157q-129 -12 -143 -14q-18 0 -28.5 10.5t-10.5 26.5q0 15 13.5 25.5t193.5 21.5q84 226 217 381q172 199 334 199
q83 0 144 -54q85 -81 111 -231q2 -13 2 -21q0 -7 -5 -16q-13 -23 -29 -23q-5 0 -15.5 6.5t-13.5 12t-6 16.5t-5 23q-36 177 -101 192t-83 15q-100 0 -226 -114q-155 -154 -246 -381q131 8 177 8q94 0 116 -2q39 -5 39 -39q0 -3 -1.5 -7t-8 -10t-12.5 -12q-115 2 -203 2
q-34 0 -132 -8q-26 -74 -45 -154q-1 -2 -1 -5q160 10 211 10q94 0 116 -2q39 -5 39 -39q0 -3 -1.5 -7t-8 -10t-12.5 -12q-115 2 -203 2q-37 0 -153 -10q-14 -88 -14 -164q0 -35 3 -68q36 -261 194 -261q99 0 215.5 106.5t206.5 280.5q15 33 27 52.5t29 19.5q19 0 31 -22
q5 -10 5 -14q-5 -25 -32 -78q-67 -132 -162 -237q-163 -188 -322 -188z" />
    <glyph glyph-name="minus" unicode="&#x2212;" horiz-adv-x="600" 
d="M564 640q-16 0 -46 6q-61 13 -214 13q-183 0 -237 -10q-16 -4 -38 -4q-29 0 -29 36q0 10 10 20q13 13 45 18q76 10 238 10q268 0 300 -38q7 -9 7 -16q0 -6 -6 -16t-11 -14.5t-19 -4.5z" />
    <glyph glyph-name="lessequal" unicode="&#x2264;" horiz-adv-x="731" 
d="M564 54q-16 0 -46 6q-61 13 -214 13q-183 0 -237 -10q-16 -4 -38 -4q-29 0 -29 36q0 10 10 20q13 13 45 18q76 10 238 10q268 0 300 -38q7 -9 7 -16q0 -6 -6 -16t-11 -14.5t-19 -4.5zM604 406q-16 0 -87 22l-173 54q-118 39 -163.5 65t-45.5 58q0 34 45 65q50 33 329 150
q43 17 82 34q88 38 106 42q9 -1 18.5 -7t9.5 -11.5t3 -5.5t3 -7q0 -9 -6 -19.5t-22 -18.5q-62 -29 -206 -88q-165 -68 -243 -108l-43 -22q35 -17 52.5 -23.5t35.5 -13.5q39 -15 189 -61q56 -18 87.5 -26.5t40.5 -12.5q25 -10 25 -31q0 -9 -6 -19q-8 -13 -17 -14.5t-14 -1.5z
" />
    <glyph glyph-name="greaterequal" unicode="&#x2265;" horiz-adv-x="657" 
d="M564 72q-16 0 -46 6q-61 13 -214 13q-183 0 -237 -10q-16 -4 -38 -4q-29 0 -29 36q0 10 10 20q13 13 45 18q76 10 238 10q268 0 300 -38q7 -9 7 -16q0 -6 -6 -16t-11 -14.5t-19 -4.5zM138 372q-7 0 -7 3t-4.5 3t-11.5 9t-7 19q0 9 3 17t37 36q75 67 270 172l55 30l66 37
l24 15q0 3 -109 34q-234 65 -257 101q-12 13 -12 23q0 9 6 19q11 15 26 15t33 -12q37 -25 236 -82q106 -30 132 -40q39 -16 39 -50q0 -25 -23 -45t-97 -59q-155 -83 -227 -127.5t-139 -101.5q-20 -16 -33 -16z" />
    <glyph glyph-name="plusminus" unicode="&#xb1;" horiz-adv-x="781" 
d="M564 85q-16 0 -46 6q-61 13 -214 13q-183 0 -237 -10q-16 -4 -38 -4q-29 0 -29 36q0 10 10 20q13 13 45 18q76 10 238 10q268 0 300 -38q7 -9 7 -16q0 -6 -6 -16t-11 -14.5t-19 -4.5zM346 389q-8 0 -8 3t-5.5 3t-11.5 10t-6 20q0 41 42 209l4 21q-1 1 -9 1q-22 0 -92 -7
q-94 -12 -129 -20q-18 -6 -31 -6q-32 0 -32 33q0 22 19 32q44 23 294 39l36 157q11 53 20 67t28 14q18 -1 29 -18v-1q4 -5 4 -13q0 -11 -6 -41q-14 -56 -14 -61l-23 -100q223 -4 269.5 -10.5t48.5 -20.5q2 -7 5 -7t3 -10t-3 -10t-5 -9.5t-12 -11t-19 -1.5q-13 0 -31 2
q-45 5 -275 7q-43 -178 -46 -201q-5 -32 -10 -46q-10 -24 -34 -24z" />
    </font>
</defs>
</svg>
